<?xml version="1.0" encoding="utf-8"?>
<!-- Generator: Adobe Illustrator 16.0.0, SVG Export Plug-In . SVG Version: 6.00 Build 0)  -->
<!DOCTYPE svg PUBLIC "-//W3C//DTD SVG 1.1//EN" "http://www.w3.org/Graphics/SVG/1.1/DTD/svg11.dtd">
<svg version="1.1" id="Layer_1" xmlns="http://www.w3.org/2000/svg" xmlns:xlink="http://www.w3.org/1999/xlink" x="0px" y="0px"
	 width="382.174px" height="135.857px" viewBox="0 0 382.174 135.857" enable-background="new 0 0 382.174 135.857"
	 xml:space="preserve">
<g>
	<path fill="#212021" d="M158.875,39.892c-4.176,0-7.433,1.712-9.774,5.132c-2.341,3.422-3.508,8.14-3.508,14.15
		c0,12.5,4.752,18.75,14.258,18.75c2.875,0,5.66-0.4,8.354-1.2c2.694-0.798,5.405-1.762,8.131-2.888v14.84
		c-5.423,2.397-11.552,3.601-18.395,3.601c-9.805,0-17.319-2.845-22.547-8.532c-5.228-5.688-7.843-13.907-7.843-24.658
		c0-6.724,1.267-12.633,3.8-17.727c2.533-5.094,6.175-9.013,10.93-11.751c4.753-2.739,10.343-4.11,16.771-4.11
		c7.021,0,13.729,1.524,20.127,4.576l-5.377,13.817c-2.4-1.126-4.801-2.073-7.198-2.843
		C164.207,40.28,161.629,39.892,158.875,39.892"/>
	<polygon fill="#212021" points="227.563,91.386 188.996,91.386 188.996,26.432 227.563,26.432 227.563,40.515 206.545,40.515 
		206.545,50.733 226.008,50.733 226.008,64.818 206.545,64.818 206.545,77.08 227.563,77.08 	"/>
	<path fill="#212021" d="M281.411,71.659c0,4.028-1.023,7.606-3.067,10.731c-2.045,3.124-4.99,5.553-8.841,7.285
		c-3.851,1.735-8.366,2.601-13.552,2.601c-4.322,0-7.95-0.306-10.885-0.912c-2.932-0.608-5.982-1.666-9.151-3.175v-15.64
		c3.347,1.718,6.827,3.058,10.44,4.021c3.613,0.964,6.933,1.444,9.952,1.444c2.606,0,4.516-0.453,5.731-1.356
		c1.213-0.903,1.823-2.067,1.823-3.488c0-0.886-0.246-1.666-0.735-2.331c-0.489-0.667-1.275-1.34-2.355-2.023
		c-1.079-0.68-3.963-2.072-8.643-4.176c-4.232-1.924-7.41-3.79-9.527-5.596c-2.118-1.807-3.688-3.88-4.708-6.22
		c-1.023-2.341-1.535-5.11-1.535-8.309c0-5.982,2.177-10.647,6.531-13.997c4.354-3.344,10.336-5.018,17.947-5.018
		c6.727,0,13.582,1.556,20.574,4.666l-5.378,13.549c-6.07-2.782-11.314-4.174-15.728-4.174c-2.282,0-3.941,0.399-4.977,1.199
		c-1.037,0.799-1.552,1.792-1.552,2.975c0,1.275,0.656,2.415,1.977,3.422c1.317,1.008,4.894,2.843,10.727,5.509
		c5.598,2.519,9.488,5.221,11.665,8.109C280.322,63.64,281.411,67.276,281.411,71.659"/>
	<rect x="291.45" y="26.431" fill="#212021" width="17.64" height="64.955"/>
	<path fill="#212021" d="M362.98,91.385l-3.198-12.173h-21.105l-3.288,12.173h-19.279l21.19-65.22h23.416l21.458,65.22H362.98z
		 M356.141,64.817l-2.802-10.662c-0.649-2.369-1.444-5.436-2.378-9.196c-0.93-3.763-1.546-6.458-1.843-8.086
		c-0.266,1.51-0.792,3.998-1.577,7.464c-0.783,3.466-2.525,10.292-5.22,20.48H356.141z"/>
	<polygon fill="#800B0B" points="87.147,56.629 37.651,39.501 37.651,28.918 27.588,36.019 17.738,32.61 37.613,18.09 37.613,0 
		0,26.469 0,45.605 87.147,75.766 	"/>
	<polygon fill="#800B0B" points="37.65,69.772 37.65,59.215 27.61,66.299 17.794,62.899 24.857,57.036 8.454,51.104 0.065,56.764 
		0.065,75.897 87.212,106.062 87.212,86.924 	"/>
	<polygon fill="#800B0B" points="24.725,87.511 7.393,81.412 0,86.561 0,105.693 87.147,135.857 87.147,116.72 17.732,92.697 	"/>
	<path d="M131.094,102.751c0-0.925,0.303-1.385,0.911-1.385c0.297,0,0.531,0.122,0.701,0.36c0.167,0.241,0.251,0.583,0.251,1.025
		c0,0.436-0.084,0.774-0.251,1.026c-0.17,0.249-0.404,0.376-0.701,0.376C131.396,104.154,131.094,103.687,131.094,102.751
		 M132.726,122.809h-1.428v-15.696h1.428V122.809z"/>
	<path d="M162.53,122.808v-10.179c0-1.579-0.333-2.727-0.998-3.443c-0.661-0.718-1.693-1.076-3.09-1.076
		c-1.877,0-3.251,0.475-4.122,1.421c-0.871,0.947-1.307,2.486-1.307,4.614v8.663h-1.431v-15.695h1.213l0.274,2.152h0.088
		c1.021-1.637,2.836-2.457,5.445-2.457c3.56,0,5.341,1.912,5.341,5.732v10.267H162.53z"/>
	<path d="M194.877,107.113v0.997l-3.251,0.202c0.865,1.079,1.301,2.262,1.301,3.552c0,1.511-0.504,2.737-1.51,3.674
		c-1.007,0.939-2.355,1.409-4.049,1.409c-0.713,0-1.216-0.029-1.504-0.087c-0.568,0.298-1.001,0.65-1.298,1.052
		c-0.3,0.406-0.45,0.833-0.45,1.287c0,0.501,0.189,0.865,0.571,1.097c0.382,0.23,1.018,0.348,1.914,0.348h2.742
		c1.705,0,3.009,0.343,3.913,1.032c0.905,0.686,1.36,1.703,1.36,3.053c0,1.656-0.673,2.933-2.016,3.833
		c-1.344,0.9-3.258,1.351-5.739,1.351c-1.977,0-3.503-0.382-4.583-1.142c-1.086-0.758-1.629-1.818-1.629-3.176
		c0-1.077,0.336-1.973,1.004-2.685c0.67-0.714,1.577-1.199,2.723-1.46c-0.47-0.2-0.852-0.487-1.134-0.856
		c-0.283-0.37-0.424-0.799-0.424-1.278c0-1.05,0.67-1.974,2.007-2.773c-0.916-0.375-1.629-0.964-2.141-1.77
		c-0.509-0.805-0.763-1.724-0.763-2.765c0-1.569,0.497-2.827,1.495-3.777c0.995-0.948,2.341-1.423,4.035-1.423
		c1.028,0,1.829,0.103,2.397,0.304H194.877z M182.169,125.465c0,2.155,1.603,3.235,4.809,3.235c4.119,0,6.178-1.314,6.178-3.942
		c0-0.945-0.322-1.625-0.967-2.051c-0.642-0.421-1.69-0.635-3.133-0.635h-2.569C183.604,122.072,182.169,123.203,182.169,125.465
		 M183.367,112.008c0,1.213,0.368,2.154,1.103,2.823c0.738,0.667,1.722,1.003,2.955,1.003c1.309,0,2.312-0.332,3.008-0.996
		c0.701-0.665,1.046-1.626,1.046-2.888c0-1.338-0.355-2.341-1.074-3.009c-0.718-0.67-1.719-1.005-3.008-1.005
		c-1.253,0-2.236,0.359-2.955,1.077C183.724,109.73,183.367,110.728,183.367,112.008"/>
	<path d="M218.035,123.097c-2.278,0-4.057-0.702-5.335-2.107c-1.275-1.406-1.911-3.373-1.911-5.905c0-2.504,0.613-4.508,1.849-6.015
		c1.23-1.505,2.893-2.261,4.981-2.261c1.847,0,3.306,0.646,4.371,1.936c1.072,1.291,1.604,3.042,1.604,5.256v1.156H212.29
		c0.02,2.157,0.521,3.801,1.51,4.938c0.984,1.137,2.397,1.704,4.235,1.704c0.896,0,1.686-0.062,2.363-0.188
		c0.679-0.126,1.538-0.396,2.576-0.808v1.298c-0.885,0.385-1.705,0.649-2.454,0.786
		C219.769,123.029,218.942,123.097,218.035,123.097 M217.619,108.08c-1.512,0-2.725,0.5-3.641,1.494
		c-0.914,0.998-1.448,2.435-1.604,4.311h9.703c0-1.819-0.393-3.241-1.182-4.268C220.104,108.592,219.014,108.08,217.619,108.08"/>
	<path d="M252.474,122.808v-10.179c0-1.579-0.33-2.727-0.995-3.443c-0.661-0.718-1.693-1.076-3.087-1.076
		c-1.88,0-3.254,0.475-4.125,1.421c-0.871,0.947-1.307,2.486-1.307,4.614v8.663h-1.431v-15.695h1.216l0.271,2.152h0.088
		c1.021-1.637,2.836-2.457,5.442-2.457c3.562,0,5.347,1.912,5.347,5.732v10.267H252.474z"/>
	<path d="M272.375,102.751c0-0.925,0.303-1.385,0.907-1.385c0.3,0,0.535,0.122,0.701,0.36c0.17,0.241,0.252,0.583,0.252,1.025
		c0,0.436-0.082,0.774-0.252,1.026c-0.166,0.249-0.401,0.376-0.701,0.376C272.678,104.154,272.375,103.687,272.375,102.751
		 M274.006,122.809h-1.43v-15.696h1.43V122.809z"/>
	<path d="M299.203,123.097c-2.282,0-4.061-0.702-5.335-2.107c-1.272-1.406-1.911-3.373-1.911-5.905c0-2.504,0.613-4.508,1.846-6.015
		c1.232-1.505,2.893-2.261,4.981-2.261c1.85,0,3.306,0.646,4.377,1.936c1.065,1.291,1.601,3.042,1.601,5.256v1.156h-11.304
		c0.017,2.157,0.521,3.801,1.507,4.938c0.989,1.137,2.4,1.704,4.238,1.704c0.896,0,1.685-0.062,2.363-0.188
		c0.676-0.126,1.535-0.396,2.576-0.808v1.298c-0.886,0.385-1.705,0.649-2.457,0.786
		C300.936,123.029,300.107,123.097,299.203,123.097 M298.784,108.08c-1.51,0-2.723,0.5-3.639,1.494
		c-0.916,0.998-1.45,2.435-1.6,4.311h9.703c0-1.819-0.399-3.241-1.188-4.268C301.272,108.592,300.181,108.08,298.784,108.08"/>
	<path d="M328.878,106.809c0.664,0,1.377,0.07,2.138,0.203l-0.274,1.371c-0.656-0.163-1.332-0.245-2.036-0.245
		c-1.337,0-2.437,0.57-3.291,1.704c-0.859,1.138-1.286,2.569-1.286,4.302v8.665h-1.431v-15.696h1.216l0.142,2.83h0.102
		c0.645-1.155,1.332-1.966,2.063-2.433C326.952,107.043,327.837,106.809,328.878,106.809"/>
	<path d="M346.727,104.658c0.703-0.76,1.396-1.585,2.086-2.475c0.688-0.892,1.156-1.568,1.408-2.029h2.035v0.246
		c-0.348,0.5-0.936,1.165-1.77,1.992c-0.831,0.828-1.747,1.66-2.751,2.499h-1.009V104.658z M349.239,122.809h-1.431v-15.696h1.431
		V122.809z"/>
	<path d="M377.628,122.808l-0.361-2.482h-0.116c-0.789,1.01-1.601,1.726-2.432,2.146c-0.834,0.417-1.817,0.625-2.954,0.625
		c-1.541,0-2.74-0.393-3.597-1.185c-0.856-0.789-1.283-1.882-1.283-3.277c0-1.53,0.636-2.719,1.914-3.567
		c1.275-0.845,3.121-1.294,5.535-1.34l2.988-0.088v-1.039c0-1.493-0.302-2.618-0.91-3.379c-0.604-0.76-1.58-1.142-2.929-1.142
		c-1.456,0-2.96,0.405-4.518,1.214l-0.538-1.24c1.725-0.811,3.427-1.215,5.115-1.215c1.722,0,3.008,0.449,3.859,1.345
		c0.854,0.895,1.277,2.289,1.277,4.185v10.439H377.628z M371.852,121.797c1.674,0,2.994-0.479,3.965-1.436
		c0.967-0.957,1.45-2.29,1.45-3.993v-1.546l-2.743,0.115c-2.205,0.107-3.777,0.452-4.716,1.035c-0.938,0.583-1.407,1.49-1.407,2.722
		c0,0.981,0.302,1.744,0.901,2.288C369.904,121.527,370.755,121.797,371.852,121.797"/>
</g>
</svg>
