<?xml version="1.0" encoding="utf-8"?>
<!-- Generator: Adobe Illustrator 16.0.0, SVG Export Plug-In . SVG Version: 6.00 Build 0)  -->
<!DOCTYPE svg PUBLIC "-//W3C//DTD SVG 1.1//EN" "http://www.w3.org/Graphics/SVG/1.1/DTD/svg11.dtd">
<svg version="1.1" id="Layer_1" xmlns="http://www.w3.org/2000/svg" xmlns:xlink="http://www.w3.org/1999/xlink" x="0px" y="0px"
	 width="382.174px" height="135.857px" viewBox="0 0 382.174 135.857" enable-background="new 0 0 382.174 135.857"
	 xml:space="preserve">
<g>
	<path fill="#E7E8E8" d="M158.771,38.993c-4.176,0-7.434,1.712-9.775,5.132c-2.34,3.422-3.508,8.14-3.508,14.15
		c0,12.5,4.752,18.75,14.258,18.75c2.875,0,5.66-0.4,8.355-1.2c2.693-0.798,5.404-1.762,8.131-2.888v14.84
		c-5.424,2.397-11.553,3.601-18.395,3.601c-9.805,0-17.32-2.845-22.547-8.532c-5.229-5.688-7.844-13.907-7.844-24.658
		c0-6.724,1.268-12.633,3.801-17.727c2.533-5.094,6.174-9.013,10.93-11.751c4.752-2.739,10.342-4.11,16.771-4.11
		c7.02,0,13.729,1.524,20.127,4.576l-5.377,13.817c-2.4-1.126-4.801-2.073-7.199-2.843
		C164.104,39.381,161.525,38.993,158.771,38.993"/>
	<polygon fill="#E7E8E8" points="227.459,90.487 188.893,90.487 188.893,25.533 227.459,25.533 227.459,39.616 206.441,39.616 
		206.441,49.834 225.904,49.834 225.904,63.919 206.441,63.919 206.441,76.181 227.459,76.181 	"/>
	<path fill="#E7E8E8" d="M281.307,70.76c0,4.028-1.023,7.606-3.066,10.731c-2.045,3.124-4.99,5.553-8.842,7.285
		c-3.85,1.735-8.365,2.601-13.551,2.601c-4.322,0-7.951-0.306-10.885-0.912c-2.932-0.608-5.982-1.666-9.152-3.175v-15.64
		c3.348,1.718,6.828,3.058,10.441,4.021c3.613,0.964,6.932,1.444,9.951,1.444c2.607,0,4.516-0.453,5.732-1.356
		c1.213-0.903,1.822-2.067,1.822-3.488c0-0.886-0.246-1.666-0.734-2.331c-0.49-0.667-1.275-1.34-2.355-2.023
		c-1.08-0.68-3.963-2.072-8.643-4.176c-4.232-1.924-7.41-3.79-9.527-5.596c-2.119-1.807-3.688-3.88-4.709-6.22
		c-1.023-2.341-1.535-5.11-1.535-8.309c0-5.982,2.178-10.647,6.531-13.997c4.354-3.344,10.336-5.018,17.947-5.018
		c6.727,0,13.582,1.556,20.574,4.666l-5.377,13.549c-6.07-2.782-11.314-4.174-15.729-4.174c-2.281,0-3.941,0.399-4.977,1.199
		c-1.037,0.799-1.551,1.792-1.551,2.975c0,1.275,0.656,2.415,1.977,3.422c1.316,1.008,4.893,2.843,10.727,5.509
		c5.598,2.519,9.488,5.221,11.664,8.109C280.219,62.741,281.307,66.377,281.307,70.76"/>
	<rect x="291.346" y="25.532" fill="#E7E8E8" width="17.641" height="64.955"/>
	<path fill="#E7E8E8" d="M362.877,90.486l-3.199-12.173h-21.105l-3.287,12.173h-19.279l21.189-65.22h23.416l21.459,65.22H362.877z
		 M356.037,63.918l-2.803-10.662c-0.648-2.369-1.443-5.436-2.377-9.196c-0.93-3.763-1.547-6.458-1.844-8.086
		c-0.266,1.51-0.791,3.998-1.576,7.464c-0.783,3.466-2.525,10.292-5.221,20.48H356.037z"/>
	<polygon fill="#E7E8E8" points="87.043,55.73 37.547,38.602 37.547,28.019 27.484,35.12 17.635,31.711 37.51,17.191 37.51,-0.899 
		-0.104,25.57 -0.104,44.706 87.043,74.867 	"/>
	<polygon fill="#E7E8E8" points="37.547,68.873 37.547,58.316 27.506,65.4 17.689,62 24.754,56.137 8.35,50.205 -0.039,55.865 
		-0.039,74.998 87.108,105.164 87.108,86.025 	"/>
	<polygon fill="#E7E8E8" points="24.621,86.612 7.289,80.513 -0.104,85.662 -0.104,104.794 87.043,134.958 87.043,115.821 
		17.629,91.798 	"/>
	<path fill="#E7E8E8" d="M130.99,101.853c0-0.925,0.303-1.385,0.91-1.385c0.297,0,0.531,0.122,0.701,0.36
		c0.168,0.241,0.252,0.583,0.252,1.025c0,0.436-0.084,0.774-0.252,1.026c-0.17,0.249-0.404,0.376-0.701,0.376
		C131.293,103.255,130.99,102.788,130.99,101.853 M132.621,121.91h-1.428v-15.696h1.428V121.91z"/>
	<path fill="#E7E8E8" d="M162.426,121.909V111.73c0-1.579-0.332-2.727-0.998-3.443c-0.66-0.718-1.693-1.076-3.09-1.076
		c-1.877,0-3.25,0.475-4.121,1.421c-0.871,0.947-1.307,2.486-1.307,4.614v8.663h-1.432v-15.695h1.213l0.275,2.152h0.088
		c1.02-1.637,2.836-2.457,5.445-2.457c3.559,0,5.34,1.912,5.34,5.732v10.267H162.426z"/>
	<path fill="#E7E8E8" d="M194.773,106.214v0.997l-3.252,0.202c0.865,1.079,1.301,2.262,1.301,3.552c0,1.511-0.504,2.737-1.51,3.674
		c-1.006,0.939-2.355,1.409-4.049,1.409c-0.713,0-1.215-0.029-1.504-0.087c-0.568,0.298-1,0.65-1.297,1.052
		c-0.301,0.406-0.451,0.833-0.451,1.287c0,0.501,0.189,0.865,0.572,1.097c0.381,0.23,1.018,0.348,1.914,0.348h2.742
		c1.705,0,3.008,0.343,3.912,1.032c0.906,0.686,1.361,1.703,1.361,3.053c0,1.656-0.674,2.933-2.016,3.833
		c-1.344,0.9-3.258,1.351-5.74,1.351c-1.977,0-3.502-0.382-4.582-1.142c-1.086-0.758-1.629-1.818-1.629-3.176
		c0-1.077,0.336-1.973,1.004-2.685c0.67-0.714,1.576-1.199,2.723-1.46c-0.471-0.2-0.852-0.487-1.135-0.856
		c-0.283-0.37-0.424-0.799-0.424-1.278c0-1.05,0.67-1.974,2.008-2.773c-0.916-0.375-1.629-0.964-2.141-1.77
		c-0.51-0.805-0.764-1.724-0.764-2.765c0-1.569,0.498-2.827,1.496-3.777c0.994-0.948,2.34-1.423,4.035-1.423
		c1.027,0,1.828,0.103,2.396,0.304H194.773z M182.064,124.566c0,2.155,1.604,3.235,4.809,3.235c4.119,0,6.178-1.314,6.178-3.942
		c0-0.945-0.322-1.625-0.967-2.051c-0.641-0.421-1.689-0.635-3.133-0.635h-2.568C183.5,121.173,182.064,122.304,182.064,124.566
		 M183.264,111.109c0,1.213,0.367,2.154,1.102,2.823c0.738,0.667,1.723,1.003,2.955,1.003c1.309,0,2.312-0.332,3.008-0.996
		c0.701-0.665,1.047-1.626,1.047-2.888c0-1.338-0.355-2.341-1.074-3.009c-0.719-0.67-1.719-1.005-3.008-1.005
		c-1.254,0-2.236,0.359-2.955,1.077C183.619,108.831,183.264,109.829,183.264,111.109"/>
	<path fill="#E7E8E8" d="M217.932,122.198c-2.279,0-4.057-0.702-5.336-2.107c-1.275-1.406-1.91-3.373-1.91-5.905
		c0-2.504,0.613-4.508,1.848-6.015c1.23-1.505,2.893-2.261,4.982-2.261c1.846,0,3.305,0.646,4.371,1.936
		c1.072,1.291,1.604,3.042,1.604,5.256v1.156h-11.305c0.02,2.157,0.521,3.801,1.51,4.938c0.984,1.137,2.398,1.704,4.236,1.704
		c0.896,0,1.686-0.062,2.363-0.188c0.678-0.126,1.537-0.396,2.576-0.808v1.298c-0.885,0.385-1.705,0.649-2.455,0.786
		C219.664,122.13,218.838,122.198,217.932,122.198 M217.516,107.181c-1.512,0-2.725,0.5-3.641,1.494
		c-0.914,0.998-1.449,2.435-1.604,4.311h9.703c0-1.819-0.393-3.241-1.182-4.268C220,107.693,218.91,107.181,217.516,107.181"/>
	<path fill="#E7E8E8" d="M252.369,121.909V111.73c0-1.579-0.33-2.727-0.994-3.443c-0.662-0.718-1.693-1.076-3.088-1.076
		c-1.879,0-3.254,0.475-4.125,1.421c-0.871,0.947-1.307,2.486-1.307,4.614v8.663h-1.43v-15.695h1.215l0.271,2.152H243
		c1.021-1.637,2.836-2.457,5.443-2.457c3.562,0,5.346,1.912,5.346,5.732v10.267H252.369z"/>
	<path fill="#E7E8E8" d="M272.271,101.853c0-0.925,0.303-1.385,0.906-1.385c0.301,0,0.535,0.122,0.701,0.36
		c0.17,0.241,0.252,0.583,0.252,1.025c0,0.436-0.082,0.774-0.252,1.026c-0.166,0.249-0.4,0.376-0.701,0.376
		C272.574,103.255,272.271,102.788,272.271,101.853 M273.902,121.91h-1.43v-15.696h1.43V121.91z"/>
	<path fill="#E7E8E8" d="M299.1,122.198c-2.283,0-4.061-0.702-5.336-2.107c-1.271-1.406-1.91-3.373-1.91-5.905
		c0-2.504,0.613-4.508,1.846-6.015c1.232-1.505,2.893-2.261,4.98-2.261c1.85,0,3.307,0.646,4.377,1.936
		c1.066,1.291,1.602,3.042,1.602,5.256v1.156h-11.305c0.018,2.157,0.521,3.801,1.508,4.938c0.988,1.137,2.4,1.704,4.238,1.704
		c0.896,0,1.684-0.062,2.363-0.188c0.676-0.126,1.535-0.396,2.576-0.808v1.298c-0.887,0.385-1.705,0.649-2.457,0.786
		C300.832,122.13,300.004,122.198,299.1,122.198 M298.68,107.181c-1.51,0-2.723,0.5-3.639,1.494c-0.916,0.998-1.449,2.435-1.6,4.311
		h9.703c0-1.819-0.398-3.241-1.188-4.268C301.168,107.693,300.076,107.181,298.68,107.181"/>
	<path fill="#E7E8E8" d="M328.773,105.91c0.664,0,1.377,0.07,2.139,0.203l-0.275,1.371c-0.656-0.163-1.332-0.245-2.035-0.245
		c-1.338,0-2.438,0.57-3.291,1.704c-0.859,1.138-1.287,2.569-1.287,4.302v8.665h-1.43v-15.696h1.215l0.143,2.83h0.102
		c0.645-1.155,1.332-1.966,2.062-2.433C326.848,106.145,327.732,105.91,328.773,105.91"/>
	<path fill="#E7E8E8" d="M346.623,103.759c0.703-0.76,1.396-1.585,2.086-2.475c0.688-0.892,1.156-1.568,1.408-2.029h2.035V99.5
		c-0.348,0.5-0.936,1.165-1.77,1.992c-0.832,0.828-1.748,1.66-2.752,2.499h-1.008V103.759z M349.135,121.91h-1.43v-15.696h1.43
		V121.91z"/>
	<path fill="#E7E8E8" d="M377.523,121.909l-0.361-2.482h-0.115c-0.789,1.01-1.602,1.726-2.432,2.146
		c-0.834,0.417-1.818,0.625-2.955,0.625c-1.541,0-2.74-0.393-3.596-1.185c-0.857-0.789-1.283-1.882-1.283-3.277
		c0-1.53,0.635-2.719,1.914-3.567c1.275-0.845,3.121-1.294,5.535-1.34l2.988-0.088v-1.039c0-1.493-0.303-2.618-0.91-3.379
		c-0.605-0.76-1.58-1.142-2.93-1.142c-1.455,0-2.959,0.405-4.518,1.214l-0.537-1.24c1.725-0.811,3.426-1.215,5.115-1.215
		c1.721,0,3.008,0.449,3.859,1.345c0.854,0.895,1.277,2.289,1.277,4.185v10.439H377.523z M371.748,120.898
		c1.674,0,2.994-0.479,3.965-1.436c0.967-0.957,1.449-2.29,1.449-3.993v-1.546l-2.742,0.115c-2.205,0.107-3.777,0.452-4.717,1.035
		c-0.938,0.583-1.406,1.49-1.406,2.722c0,0.981,0.301,1.744,0.9,2.288C369.801,120.628,370.65,120.898,371.748,120.898"/>
</g>
</svg>
