<?xml version="1.0" encoding="utf-8"?>
<!-- Generator: Adobe Illustrator 16.0.0, SVG Export Plug-In . SVG Version: 6.00 Build 0)  -->
<!DOCTYPE svg PUBLIC "-//W3C//DTD SVG 1.1//EN" "http://www.w3.org/Graphics/SVG/1.1/DTD/svg11.dtd">
<svg version="1.1" id="Layer_1" xmlns="http://www.w3.org/2000/svg" xmlns:xlink="http://www.w3.org/1999/xlink" x="0px" y="0px"
	 width="172.156px" height="129.117px" viewBox="0 0 172.156 129.117" enable-background="new 0 0 172.156 129.117"
	 xml:space="preserve">
<path fill="#800B0B" d="M166.776,91.458h-0.237c-2.298-33.827-26.662-63.049-58.941-72.219v-5.057C107.598,6.362,101.806,0,94.389,0
	h-0.24H78.25h-0.242c-7.416,0-13.449,6.362-13.449,14.183v4.979C31.76,28.255,7.922,57.546,5.617,91.458H5.38
	c-2.972,0-5.38,2.408-5.38,5.38v26.899c0,2.971,2.408,5.38,5.38,5.38h161.396c2.972,0,5.38-2.409,5.38-5.38V96.838
	C172.156,93.866,169.748,91.458,166.776,91.458z M94.148,10.76c1.457,0,2.689,1.568,2.689,3.423v30.813
	c0,1.854-1.232,3.423-2.689,3.423H78.25c-1.458,0-2.932-1.568-2.932-3.423V14.183c0-1.854,1.474-3.423,2.932-3.423H94.148z
	 M64.559,30.355v14.641c0,7.82,6.033,14.183,13.449,14.183h0.242h15.898h0.24c7.417,0,13.209-6.362,13.209-14.183V30.444
	c26.899,8.739,46.015,33.002,48.208,61.014h-44.866c-4.163-9.483-13.617-16.14-24.619-16.14s-20.457,6.656-24.619,16.14H16.351
	C18.551,63.36,37.84,39.026,64.559,30.355z M70.18,102.218c0-8.9,7.24-16.14,16.141-16.14s16.139,7.239,16.139,16.14
	s-7.238,16.139-16.139,16.139S70.18,111.118,70.18,102.218z M10.76,102.218h48.66c0,6.078,2.104,11.63,5.518,16.139H10.76V102.218z
	 M161.396,118.356h-53.695c3.414-4.509,5.518-10.061,5.518-16.139h48.178V118.356z"/>
</svg>
