<?xml version="1.0" encoding="utf-8"?>
<!-- Generator: Adobe Illustrator 16.0.0, SVG Export Plug-In . SVG Version: 6.00 Build 0)  -->
<!DOCTYPE svg PUBLIC "-//W3C//DTD SVG 1.1//EN" "http://www.w3.org/Graphics/SVG/1.1/DTD/svg11.dtd">
<svg version="1.1" id="Layer_1" xmlns="http://www.w3.org/2000/svg" xmlns:xlink="http://www.w3.org/1999/xlink" x="0px" y="0px"
	 width="150px" height="150px" viewBox="0 0 150 150" enable-background="new 0 0 150 150" xml:space="preserve">
<g>
	<path fill="#F1F2F2" d="M31.603,131.596c-0.271-0.199-0.349-0.462-0.348-0.796c0.014-4.927,0.005-9.855,0.039-14.779
		c0.013-1.772,0.279-3.511,1.151-5.102c1.494-2.734,3.768-4.426,6.836-4.906c5.182-0.809,9.906,2.461,10.87,7.684
		c0.655,3.562-0.26,6.722-3.008,9.174c-3.337,2.979-8.403,3.054-12.093,0.09c-0.158-0.127-0.317-0.259-0.574-0.469
		c-0.017,0.319-0.03,0.519-0.03,0.717c-0.002,2.393,0,4.792,0,7.187c0,0.135,0,0.269-0.002,0.402
		c-0.015,0.569-0.141,0.697-0.726,0.712c-0.345,0.012-0.69-0.005-1.036,0.008c-0.207,0.008-0.413,0.051-0.622,0.078
		C31.906,131.596,31.756,131.596,31.603,131.596z M46.948,115.465c0.028-0.793-0.148-1.672-0.49-2.516
		c-1.377-3.414-5.257-4.891-8.463-3.226c-3.325,1.731-4.562,6.26-2.543,9.426c1.049,1.642,2.574,2.578,4.509,2.845
		c2.349,0.325,4.266-0.436,5.698-2.319C46.575,118.475,46.963,117.09,46.948,115.465z"/>
	<path fill="#F1F2F2" d="M96.171,25.548c-3.269,10.733-8.666,20.272-16.275,28.541C70.622,64.175,59.39,71.135,46.275,75.04
		c-9.467-12.393-10.08-32.183,3.004-45.728C62.61,15.513,83.025,15.433,96.171,25.548z"/>
	<path fill="#F1F2F2" d="M47.686,76.771c1.269-0.378,2.488-0.748,3.709-1.107c4.246-1.235,8.54-2.291,12.852-3.27
		c2.823-0.639,5.653-1.242,8.477-1.866c3.993-0.886,7.979-1.8,11.875-3.064c2.896-0.94,5.698-2.089,8.342-3.622
		c3.859-2.242,7.021-5.209,9.347-9.038c1.644-2.715,2.728-5.639,3.251-8.775c0.318-1.925,0.406-3.86,0.279-5.802
		c-0.118-1.72-0.414-3.417-0.901-5.091c0.891,0.792,3.338,6.242,4.187,9.287c0.923,3.318,1.36,6.697,1.311,10.141
		c-0.05,3.445-0.593,6.808-1.628,10.092c-4.169,13.216-15.637,22.727-29.097,24.527C65.233,91.108,53.647,84.142,47.686,76.771z"/>
	<path fill="#F1F2F2" d="M77.934,122.636c0,0.203,0,0.409,0,0.615c0,2.41,0,4.826,0,7.237c0,0.174-0.003,0.347-0.004,0.518
		c-0.004,0.301-0.178,0.481-0.454,0.488c-0.767,0.017-1.531,0.015-2.297-0.004c-0.258-0.008-0.417-0.188-0.418-0.46
		c-0.002-0.113-0.004-0.23-0.004-0.343c0.002-4.542-0.019-9.083,0.019-13.62c0.009-1.261,0.099-2.534,0.328-3.77
		c0.667-3.539,3.635-6.471,7.163-7.195c5.261-1.081,10.184,2.04,11.326,7.285c0.727,3.348,0.043,6.408-2.339,8.963
		c-1.418,1.52-3.205,2.384-5.267,2.674c-2.843,0.4-5.331-0.407-7.546-2.175c-0.118-0.09-0.24-0.177-0.361-0.266
		C78.031,122.601,77.981,122.621,77.934,122.636z M90.522,115.625c0.008-1.077-0.223-2.094-0.69-3.058
		c-2.044-4.215-7.622-4.767-10.431-1.023c-1.225,1.63-1.635,3.474-1.266,5.48c0.806,4.432,6.043,6.341,9.46,4.139
		C89.602,119.876,90.439,117.941,90.522,115.625z"/>
	<path fill="#F1F2F2" d="M56.634,117.749c0.227,0.882,0.647,1.555,1.206,2.144c2.489,2.627,6.819,2.932,9.431-0.022
		c0.327-0.373,0.341-0.373,0.773-0.161c0.656,0.316,1.311,0.628,1.952,0.977c0.572,0.311,0.602,0.522,0.167,1.022
		c-1.305,1.509-2.929,2.504-4.861,2.994c-2.506,0.639-4.945,0.502-7.246-0.736c-2.688-1.441-4.288-3.706-4.807-6.707
		c-0.437-2.506-0.056-4.893,1.329-7.059c1.559-2.427,3.783-3.825,6.646-4.246c5.024-0.739,9.324,2.505,10.475,7.385
		c0.131,0.555,0.172,1.134,0.265,1.699c0.106,0.655-0.178,1.077-0.776,1.29c-0.937,0.333-1.862,0.711-2.823,0.955
		c-1.688,0.43-3.414,0.368-5.134,0.172c-0.968-0.111-1.935-0.272-2.904-0.355C59.067,116.991,57.858,117.24,56.634,117.749z
		 M68.776,113.979c-0.03-0.158-0.047-0.274-0.08-0.377c-0.306-0.926-0.799-1.737-1.466-2.445c-1.487-1.562-3.291-2.394-5.463-2.107
		c-2.707,0.353-4.966,2.422-5.553,5.119c-0.047,0.215-0.038,0.443-0.06,0.73c0.244-0.065,0.404-0.117,0.567-0.149
		c0.804-0.162,1.604-0.432,2.416-0.454c1.411-0.043,2.833,0.032,4.241,0.136c1.538,0.11,3.062,0.09,4.573-0.221
		C68.224,114.156,68.493,114.062,68.776,113.979z"/>
	<path fill="#F1F2F2" d="M103.793,105.749c2.207,0.045,4.196,0.664,5.966,1.983c0.06,0.045,0.126,0.088,0.185,0.136
		c0.491,0.396,0.512,0.582,0.054,1.007c-0.465,0.429-0.952,0.838-1.45,1.231c-0.344,0.271-0.52,0.256-0.878,0.021
		c-0.159-0.104-0.312-0.223-0.473-0.33c-1.48-0.994-3.104-1.239-4.83-0.879c-0.606,0.123-1.156,0.4-1.605,0.841
		c-0.909,0.901-0.862,2.148,0.117,2.963c0.725,0.613,1.61,0.868,2.509,1.076c1.082,0.247,2.167,0.452,3.251,0.693
		c0.91,0.198,1.744,0.568,2.515,1.086c2.558,1.729,2.607,5.349,0.645,7.352c-0.998,1.021-2.233,1.602-3.612,1.884
		c-2.205,0.454-4.375,0.369-6.48-0.49c-1.222-0.5-2.287-1.237-3.265-2.112c-0.412-0.374-0.41-0.567,0.02-0.933
		c0.524-0.446,1.061-0.875,1.607-1.304c0.346-0.279,0.453-0.279,0.797,0.011c0.646,0.553,1.334,1.034,2.115,1.374
		c1.483,0.647,3.021,0.852,4.587,0.356c0.501-0.156,0.997-0.43,1.397-0.768c1.102-0.935,0.964-2.408-0.245-3.205
		c-0.61-0.398-1.311-0.513-2.003-0.663c-1.064-0.226-2.138-0.43-3.192-0.702c-0.966-0.245-1.873-0.662-2.703-1.229
		c-2.564-1.737-2.376-4.507-1.319-6.285c0.953-1.593,2.421-2.469,4.191-2.859C102.376,105.852,103.093,105.828,103.793,105.749z"/>
	<path fill="#F1F2F2" d="M118.18,115.624c0,2.697,0,5.4,0,8.102c0,0.174,0,0.345-0.008,0.519c-0.014,0.244-0.142,0.405-0.39,0.407
		c-0.787,0.008-1.572,0.008-2.357,0.001c-0.275-0.001-0.411-0.174-0.42-0.441c-0.004-0.135-0.004-0.274-0.004-0.405
		c0-5.463,0-10.923,0-16.384c0-0.115-0.006-0.229,0-0.342c0.024-0.41,0.119-0.519,0.515-0.525c0.708-0.014,1.416-0.01,2.125-0.002
		c0.419,0.009,0.507,0.104,0.532,0.505c0.009,0.151,0.005,0.307,0.005,0.454C118.18,110.221,118.18,112.921,118.18,115.624z"/>
	<path fill="#F1F2F2" d="M118.745,102.482c-0.001,1.188-0.974,2.166-2.153,2.163c-1.141-0.005-2.088-0.978-2.099-2.154
		c-0.014-1.227,0.909-2.167,2.118-2.163C117.825,100.333,118.747,101.265,118.745,102.482z"/>
</g>
</svg>
