<?xml version="1.0" encoding="utf-8"?>
<!-- Generator: Adobe Illustrator 16.0.0, SVG Export Plug-In . SVG Version: 6.00 Build 0)  -->
<!DOCTYPE svg PUBLIC "-//W3C//DTD SVG 1.1//EN" "http://www.w3.org/Graphics/SVG/1.1/DTD/svg11.dtd">
<svg version="1.1" id="Layer_1" xmlns="http://www.w3.org/2000/svg" xmlns:xlink="http://www.w3.org/1999/xlink" x="0px" y="0px"
	 width="163.919px" height="150px" viewBox="0 0 163.919 150" enable-background="new 0 0 163.919 150" xml:space="preserve">
<g>
	<path fill="#F1F2F2" d="M80.496,88.754c-0.186,0.287-0.318,0.495-0.453,0.698c-0.85,1.284-1.691,2.569-2.561,3.84
		c-0.094,0.138-0.318,0.269-0.482,0.269c-3.487,0.013-6.979,0.059-10.471-0.015c-1.855-0.044-3.684-0.404-5.294-1.442
		c-1.436-0.922-1.918-2.164-1.521-3.818c0.407-1.681,1.148-3.23,2.007-4.717c1.891-3.28,4.026-6.392,6.74-9.059
		c1.99-1.955,4.324-3.272,7.105-3.708c2.154-0.339,4.326-0.31,6.494-0.277c1.391,0.016,2.78,0.141,4.096,0.597
		c0.727,0.25,1.434,0.626,2.059,1.069c0.746,0.529,0.912,1.334,0.795,2.24c-0.205,1.607-0.91,3.014-1.693,4.383
		c-0.885,1.55-1.83,3.063-2.729,4.604c-0.164,0.278-0.38,0.268-0.628,0.268c-5.042-0.002-10.086,0.001-15.126-0.013
		c-0.437-0.001-0.712,0.131-0.951,0.488c-0.551,0.819-1.063,1.654-1.373,2.609c-0.391,1.203,0.507,2.008,1.499,1.984
		c0.147-0.004,0.297,0,0.451,0c3.833,0,7.665,0,11.5,0C80.107,88.754,80.255,88.754,80.496,88.754z M71.042,79.516
		c0.534,0,1.038,0,1.546,0c2.896,0,5.798,0.004,8.696-0.009c0.18-0.004,0.442-0.073,0.517-0.2c0.641-1.09,1.184-2.226,1.472-3.47
		c0.139-0.602-0.056-1.095-0.566-1.427c-0.26-0.172-0.562-0.29-0.856-0.382c-1.029-0.325-2.093-0.271-3.149-0.25
		c-1.324,0.028-2.571,0.368-3.71,1.065c-1.755,1.076-2.926,2.671-3.899,4.435C71.063,79.331,71.063,79.405,71.042,79.516z"/>
	<path fill="#F1F2F2" d="M136.351,88.754c-0.081,0.146-0.124,0.242-0.182,0.331c-0.925,1.396-1.845,2.795-2.789,4.18
		c-0.103,0.147-0.337,0.296-0.517,0.296c-3.49,0.013-6.981,0.062-10.471-0.016c-1.858-0.043-3.69-0.407-5.295-1.448
		c-1.456-0.94-1.937-2.23-1.496-3.905c0.427-1.635,1.14-3.148,1.975-4.603c1.871-3.246,3.987-6.321,6.65-8.982
		c2.014-2.01,4.387-3.372,7.229-3.814c2.167-0.339,4.354-0.306,6.539-0.27c1.358,0.023,2.71,0.173,4.013,0.583
		c0.495,0.153,0.991,0.344,1.436,0.606c1.093,0.644,1.715,1.424,1.404,3.021c-0.252,1.313-0.781,2.515-1.435,3.656
		c-0.961,1.682-1.974,3.331-2.949,5.004c-0.156,0.266-0.354,0.291-0.615,0.291c-5.057-0.007-10.116,0-15.174-0.014
		c-0.423-0.002-0.686,0.133-0.916,0.471c-0.591,0.866-1.159,1.736-1.409,2.771c-0.23,0.969,0.348,1.76,1.341,1.832
		c0.18,0.013,0.356,0.01,0.536,0.01c3.874,0,7.752,0,11.629,0C136.002,88.754,136.147,88.754,136.351,88.754z M126.841,79.373
		c0.034,0.044,0.066,0.082,0.099,0.124c0.123,0.005,0.243,0.019,0.367,0.019c3.295,0,6.592,0.001,9.89-0.011
		c0.164-0.002,0.425-0.081,0.477-0.196c0.506-1.104,1.024-2.211,1.433-3.356c0.273-0.767-0.07-1.352-0.813-1.714
		c-0.184-0.088-0.378-0.167-0.575-0.216c-1.435-0.367-2.887-0.347-4.328-0.12c-2.063,0.323-3.644,1.477-4.903,3.08
		C127.89,77.743,127.385,78.575,126.841,79.373z"/>
	<path fill="#F1F2F2" d="M69.351,63.272c-1.401,2.053-2.747,4.04-4.169,6.128c1.427,0,2.757,0,4.164,0
		c-0.108,0.217-0.164,0.337-0.232,0.449c-0.658,1.11-1.328,2.214-1.974,3.332c-0.149,0.256-0.31,0.362-0.617,0.36
		c-1.274-0.019-2.554-0.019-3.829,0.002c-0.186,0.004-0.434,0.126-0.531,0.274c-3.156,4.564-6.296,9.142-9.434,13.718
		c-0.096,0.135-0.184,0.276-0.258,0.424c-0.293,0.573-0.115,1.017,0.504,1.222c0.23,0.076,0.48,0.117,0.727,0.118
		c0.974,0.011,1.949,0.007,2.926,0.007c0.149,0,0.297,0,0.519,0c-0.077,0.168-0.115,0.275-0.175,0.377
		c-0.675,1.193-1.358,2.383-2.025,3.585c-0.132,0.241-0.292,0.313-0.555,0.312c-2.445-0.009-4.893-0.006-7.338-0.005
		c-0.601,0-1.13-0.209-1.614-0.537c-0.752-0.509-0.81-1.271-0.703-2.059c0.13-0.95,0.472-1.818,1.021-2.618
		c3.276-4.748,6.535-9.51,9.797-14.268c0.098-0.146,0.194-0.296,0.339-0.52c-1.215,0-2.355,0-3.581,0
		c0.106-0.183,0.158-0.288,0.225-0.385c0.796-1.149,1.605-2.295,2.392-3.456c0.158-0.238,0.335-0.317,0.61-0.313
		c0.891,0.013,1.783-0.006,2.676,0.011c0.297,0.004,0.477-0.099,0.644-0.342c1.251-1.841,2.513-3.673,3.771-5.509
		c0.147-0.217,0.294-0.358,0.587-0.355c1.913,0.01,3.82,0.006,5.734,0.009C69.054,63.23,69.154,63.248,69.351,63.272z"/>
	<path fill="#F1F2F2" d="M122.954,70.509c-0.167,0.249-0.273,0.404-0.376,0.561c-0.88,1.297-1.764,2.59-2.631,3.893
		c-0.144,0.218-0.306,0.305-0.572,0.303c-1.441-0.013-2.888,0.038-4.329-0.017c-2.307-0.091-4.389,0.606-6.321,1.776
		c-3.037,1.843-5.256,4.476-6.94,7.559c-0.385,0.705-0.577,1.535-0.754,2.334c-0.239,1.078,0.441,1.832,1.58,1.836
		c3.434,0.003,6.87,0,10.307,0.001c0.149,0,0.301,0,0.519,0c-0.075,0.143-0.117,0.246-0.182,0.34
		c-0.923,1.399-1.854,2.793-2.774,4.191c-0.13,0.204-0.275,0.295-0.527,0.294c-3.109-0.011-6.214,0.024-9.317-0.03
		c-1.61-0.031-3.199-0.308-4.651-1.065c-1.319-0.687-2.057-1.74-1.845-3.271c0.096-0.728,0.281-1.457,0.521-2.148
		c0.765-2.181,1.911-4.166,3.204-6.065c0.929-1.371,1.866-2.764,2.959-4c2.83-3.196,6.393-5.196,10.567-6.044
		c1.241-0.254,2.526-0.382,3.795-0.418c2.429-0.066,4.865-0.025,7.295-0.027C122.604,70.509,122.728,70.509,122.954,70.509z"/>
	<path fill="#F1F2F2" d="M80.885,93.573c0.436-0.659,0.805-1.234,1.186-1.806c6.161-9.344,12.328-18.687,18.477-28.042
		c0.25-0.381,0.52-0.516,0.966-0.51c1.8,0.025,3.601,0.01,5.4,0.014c0.16,0,0.32,0.011,0.554,0.023
		c-0.113,0.19-0.186,0.319-0.263,0.437c-6.49,9.843-12.98,19.675-19.466,29.518c-0.18,0.275-0.372,0.379-0.696,0.376
		c-1.884-0.015-3.766-0.01-5.649-0.01C81.259,93.573,81.124,93.573,80.885,93.573z"/>
	<path fill="#F1F2F2" d="M137.356,93.549c0.603-0.915,1.168-1.776,1.729-2.632c6.001-9.09,11.998-18.179,17.988-27.276
		c0.192-0.292,0.391-0.426,0.758-0.423c1.871,0.021,3.74,0.01,5.608,0.01c0.135,0,0.267,0.013,0.479,0.02
		c-0.104,0.177-0.169,0.305-0.25,0.423c-6.498,9.862-13.008,19.718-19.509,29.579c-0.124,0.19-0.234,0.334-0.506,0.331
		c-2.022-0.012-4.041-0.007-6.062-0.009C137.538,93.571,137.486,93.561,137.356,93.549z"/>
	<path fill="#F1F2F2" d="M49.63,67.064c-0.356,0.516-0.641,0.967-0.969,1.384c-0.073,0.097-0.291,0.116-0.446,0.116
		c-3.118,0.008-6.238,0.005-9.356,0.005c-1.954,0-3.906,0.003-5.855-0.007c-0.304-0.002-0.487,0.066-0.597,0.369
		c-0.034,0.107-0.2,0.24-0.31,0.24c-2.306,0.015-4.614,0.01-6.96,0.01c0.007-0.577-0.38-0.615-0.805-0.615
		c-2.526,0.006-5.06,0.003-7.588,0.003c-0.149,0-0.299,0-0.551,0c0.353-0.515,0.653-0.98,0.993-1.417
		c0.062-0.085,0.271-0.083,0.414-0.083c2.834-0.006,5.666-0.01,8.495,0.004c0.322,0,0.556-0.066,0.711-0.357
		c0.127-0.238,0.323-0.325,0.609-0.321c1.924,0.014,3.846,0.01,5.772,0c0.261,0,0.457,0.046,0.555,0.308
		c0.113,0.304,0.331,0.371,0.646,0.369c4.893-0.011,9.785-0.006,14.68-0.006C49.216,67.064,49.367,67.064,49.63,67.064z"/>
	<path fill="#F1F2F2" d="M16.762,81.1c-0.007-0.59-0.077-0.662-0.624-0.662c-2.462-0.001-4.918,0-7.376,0c-0.147,0-0.297,0-0.566,0
		c0.369-0.533,0.658-0.988,0.989-1.414c0.065-0.085,0.277-0.081,0.418-0.081c2.708-0.006,5.412-0.004,8.12-0.002
		c0.232,0,0.463,0.023,0.61-0.231c0.041-0.075,0.214-0.096,0.329-0.099c1.565-0.004,3.133-0.005,4.698,0.008
		c0.132,0,0.261,0.136,0.399,0.186c0.156,0.059,0.32,0.129,0.484,0.129c5.604,0.009,11.21,0.007,16.813,0.007
		c0.163,0,0.323,0,0.581,0c-0.358,0.519-0.651,0.979-0.988,1.399c-0.084,0.101-0.331,0.096-0.504,0.097
		c-4.379,0.004-8.765,0.004-13.145,0.004c-1.277,0-2.555,0.01-3.83-0.009c-0.317-0.002-0.567,0.062-0.74,0.335
		c-0.174,0.268-0.417,0.344-0.735,0.34C20.062,81.088,18.427,81.1,16.762,81.1z"/>
	<path fill="#F1F2F2" d="M36.872,59.448c-0.442,0.435-0.589,1.125-1.26,1.372c-0.079,0.028-0.137,0.131-0.198,0.204
		c-0.355,0.437-0.705,0.881-1.062,1.314c-0.169,0.199-0.351,0.422-0.173,0.651c0.098,0.123,0.356,0.159,0.544,0.161
		c3.613,0.006,7.227,0.004,10.841,0.004c2.02,0,4.04,0,6.061,0c0.158,0,0.316,0,0.587,0c-0.356,0.516-0.632,0.957-0.956,1.355
		c-0.082,0.103-0.32,0.107-0.491,0.107c-4.851,0.002-9.702,0.007-14.55-0.005c-0.466,0-0.831,0.089-1.094,0.503
		c-0.056,0.088-0.223,0.155-0.34,0.157c-2.278,0.011-4.558,0.006-6.838,0.006c-0.141-0.584-0.239-0.658-0.878-0.66
		c-2.567,0-5.136,0-7.707,0c-0.151,0-0.302,0-0.549,0c0.335-0.492,0.61-0.946,0.938-1.355c0.079-0.103,0.324-0.103,0.493-0.103
		c3.696-0.006,7.396-0.004,11.09-0.004c0.428,0,0.856-0.042,1.275,0.011c0.639,0.078,1.042-0.239,1.395-0.688
		c0.32-0.41,0.646-0.819,0.946-1.248c0.096-0.14,0.427-0.268,0.126-0.521c-0.007-0.005-0.005-0.03,0.002-0.041
		c0.333-0.419,0.637-0.866,1.021-1.232c0.146-0.14,0.48-0.072,0.729-0.099C36.842,59.378,36.859,59.412,36.872,59.448z"/>
	<path fill="#F1F2F2" d="M20.68,84.566c0.182,0.253,0.306,0.424,0.462,0.644c-0.162,0.008-0.275,0.023-0.391,0.024
		c-0.759,0-1.515-0.027-2.267,0.01c-0.538,0.021-0.984-0.064-1.36-0.495c-0.115-0.131-0.389-0.174-0.594-0.174
		C13,84.564,9.471,84.57,5.936,84.57c-0.146,0-0.297,0-0.546,0c0.356-0.52,0.657-0.985,0.995-1.423
		c0.065-0.085,0.275-0.079,0.42-0.081c2.679-0.004,5.358,0.002,8.041-0.014c0.198,0,0.397-0.147,0.6-0.228
		c0.097-0.04,0.199-0.102,0.3-0.102c1.657-0.007,3.316-0.005,5.01-0.005c-0.011,0.123-0.02,0.219-0.034,0.351
		c6.024,0,12.021,0,18.109,0c-0.354,0.516-0.646,0.975-0.979,1.401c-0.075,0.094-0.302,0.094-0.457,0.094
		c-5.384,0.008-10.774,0.002-16.158,0.002C21.079,84.566,20.922,84.566,20.68,84.566z"/>
	<path fill="#F1F2F2" d="M46.875,71.013c-0.339,0.49-0.614,0.928-0.933,1.331c-0.077,0.101-0.295,0.117-0.446,0.117
		c-2.104,0.008-4.203,0.005-6.303,0.005c-3.329,0-6.65,0.006-9.976-0.007c-0.384-0.002-0.661,0.067-0.824,0.449
		c-0.038,0.095-0.202,0.194-0.308,0.194c-1.883,0.012-3.763,0.01-5.636,0.01c-0.189-0.543-0.342-0.644-0.945-0.647
		c-2.503,0-5,0-7.501,0c-0.149,0-0.297,0-0.533,0c0.333-0.495,0.604-0.936,0.918-1.34c0.074-0.099,0.293-0.108,0.45-0.111
		c2.815-0.007,5.63-0.005,8.446-0.002c0.266,0,0.513,0.018,0.692-0.251c0.056-0.083,0.243-0.107,0.374-0.107
		c1.812-0.007,3.628-0.007,5.439-0.002c0.119,0,0.301,0.002,0.348,0.072c0.235,0.364,0.592,0.283,0.925,0.283
		c5.098,0.002,10.195,0.002,15.291,0.002C46.497,71.013,46.646,71.013,46.875,71.013z"/>
	<path fill="#F1F2F2" d="M19.591,77.07c-0.066-0.547-0.147-0.626-0.684-0.626c-2.483-0.002-4.97-0.002-7.457-0.002
		c-0.158,0-0.316,0-0.592,0c0.356-0.517,0.632-0.953,0.952-1.356c0.075-0.097,0.297-0.105,0.451-0.105
		c2.748-0.007,5.495-0.005,8.241-0.005c0.25,0,0.487,0.025,0.655-0.234c0.05-0.071,0.218-0.09,0.336-0.09
		c1.744-0.004,3.485-0.009,5.229,0.004c0.137,0,0.263,0.135,0.401,0.184c0.152,0.058,0.32,0.132,0.483,0.132
		c4.425,0.005,8.845,0.005,13.271,0.005c1.098,0,2.197,0,3.408,0c-0.354,0.506-0.647,0.964-0.991,1.376
		c-0.079,0.101-0.333,0.087-0.504,0.087c-5.211,0.002-10.413,0.002-15.62,0.002c-0.369,0-0.745,0.015-1.112-0.004
		c-0.303-0.018-0.48,0.097-0.613,0.369c-0.06,0.123-0.252,0.251-0.386,0.251C23.249,77.076,21.437,77.07,19.591,77.07z"/>
	<path fill="#F1F2F2" d="M33.489,91.024c-0.318,0.457-0.594,0.898-0.92,1.299c-0.086,0.11-0.314,0.149-0.475,0.149
		c-1.335,0.013-2.667,0.021-3.995-0.001c-0.389-0.009-0.654,0.093-0.874,0.404c-0.164,0.232-0.376,0.43-0.6,0.682
		c-0.286-0.272-0.558-0.504-0.795-0.767c-0.224-0.24-0.47-0.318-0.799-0.318c-6.225,0.01-12.452,0.008-18.674,0.008
		c-1.913,0-3.822,0-5.733,0c-0.144,0-0.291,0-0.545,0c0.354-0.519,0.637-0.967,0.957-1.383c0.066-0.092,0.269-0.106,0.412-0.106
		c1.679-0.005,3.351-0.005,5.027-0.005c5.456,0,10.915,0.007,16.369-0.01c0.817-0.002,1.659-0.277,2.454-0.169
		C28.001,91.185,30.711,90.841,33.489,91.024z"/>
	<path fill="#F1F2F2" d="M2.696,88.494c0.353-0.521,0.61-0.943,0.918-1.325c0.086-0.109,0.312-0.145,0.473-0.145
		c4.371-0.008,8.738-0.008,13.105-0.008c0.619,0,1.234,0.013,1.858-0.006c0.13-0.009,0.258-0.129,0.389-0.189
		c0.104-0.052,0.211-0.13,0.316-0.13c0.809-0.013,1.618-0.009,2.432-0.007c0.092,0,0.248,0.013,0.263,0.059
		c0.142,0.391,0.466,0.271,0.732,0.271c4.122,0.005,8.244,0.003,12.368,0.003c0.149,0,0.299,0,0.563,0
		c-0.351,0.507-0.643,0.963-0.982,1.378c-0.083,0.101-0.333,0.093-0.502,0.093c-3.255,0.007-6.512,0.007-9.769,0.007
		c-0.203,0-0.405,0-0.747,0c0.205,0.32,0.344,0.535,0.502,0.783c-0.912,0-1.796,0.013-2.685-0.014
		c-0.151-0.002-0.335-0.132-0.434-0.258c-0.344-0.426-0.769-0.523-1.301-0.523c-5.621,0.018-11.241,0.012-16.86,0.012
		C3.162,88.494,2.988,88.494,2.696,88.494z"/>
</g>
</svg>
