<?xml version="1.0" encoding="utf-8"?>
<!-- Generator: Adobe Illustrator 16.0.0, SVG Export Plug-In . SVG Version: 6.00 Build 0)  -->
<!DOCTYPE svg PUBLIC "-//W3C//DTD SVG 1.1//EN" "http://www.w3.org/Graphics/SVG/1.1/DTD/svg11.dtd">
<svg version="1.1" id="Layer_1" xmlns="http://www.w3.org/2000/svg" xmlns:xlink="http://www.w3.org/1999/xlink" x="0px" y="0px"
	 width="150px" height="150px" viewBox="0 0 150 150" enable-background="new 0 0 150 150" xml:space="preserve">
<g>
	<path fill="#F1F2F2" d="M71.686,63.396c0.289-1.848,0.575-3.693,0.86-5.541c0.726-4.781,1.469-9.559,2.157-14.345
		c0.113-0.801,0.584-0.723,1.108-0.723c8.82,0,17.641,0,26.459,0c9.045,0,18.085,0,27.127,0c0.355,0,0.708,0,1.216,0
		c-0.146,1.072-0.261,2.043-0.405,3.009c-0.37,2.488-0.769,4.971-1.11,7.461c-0.086,0.625-0.324,0.811-0.946,0.808
		c-5.476-0.022-10.949,0-16.426-0.029c-0.743-0.004-0.979,0.232-1.085,0.955c-0.635,4.347-1.323,8.687-1.989,13.028
		c-0.043,0.267-0.061,0.535-0.104,0.938c6.042,0,11.997,0,18.08,0c-0.093,0.729-0.154,1.32-0.244,1.909
		c-0.435,2.812-0.889,5.623-1.289,8.44c-0.096,0.68-0.387,0.834-1.025,0.833c-5.419-0.021-10.837,0.002-16.258-0.025
		c-0.763-0.003-1.043,0.224-1.154,0.988c-0.673,4.62-1.396,9.234-2.099,13.851c-0.053,0.347-0.065,0.701-0.105,1.146
		c6.048,0,12.005,0,18.1,0c-0.12,0.886-0.212,1.668-0.334,2.446c-0.421,2.674-0.865,5.347-1.267,8.023
		c-0.08,0.535-0.257,0.75-0.83,0.748c-9.013-0.016-18.028-0.009-27.04-0.012c-0.188,0-0.373-0.043-0.669-0.077
		c1.371-9.015,2.734-17.983,4.111-27.041c-0.434-0.026-0.731-0.054-1.029-0.054c-5.061-0.004-10.121,0.012-15.18-0.016
		c-0.725-0.005-0.991,0.203-1.1,0.944c-1.166,7.899-2.371,15.793-3.567,23.689c-0.033,0.219-0.07,0.436-0.108,0.652
		c-0.326,1.906-0.326,1.906-2.296,1.906c-2.405,0-4.812,0-7.217,0c-0.295,0-0.591,0-1.012,0c0.77-5.088,1.52-10.044,2.269-15.003
		c-0.068-0.021-0.136-0.045-0.206-0.07c-0.143,0.245-0.292,0.487-0.43,0.736c-2.965,5.403-6.966,9.816-12.667,12.335
		c-10.754,4.754-23.604,2.469-30.571-10.151c-2.856-5.186-4.026-10.797-4.024-16.668c0.002-8.177,2-15.811,6.375-22.764
		c3.536-5.62,8.194-9.906,14.599-12.045c11.065-3.697,22.31,0.79,27.837,11.072c1.302,2.422,2.291,4.962,2.97,7.625
		c0.089,0.342,0.184,0.678,0.273,1.018C71.525,63.396,71.605,63.396,71.686,63.396z M71.517,64.484c-0.491,0-0.816,0-1.141,0
		c-3.043,0-6.084-0.009-9.125,0.012c-0.517,0.005-0.802-0.135-0.989-0.642c-0.257-0.699-0.585-1.375-0.928-2.037
		c-3.359-6.517-10.519-9.204-17.336-6.466c-3.328,1.339-5.73,3.801-7.723,6.689c-3.767,5.469-4.85,11.598-4.32,18.094
		c0.255,3.123,1.074,6.089,2.674,8.812c4.089,6.967,12.126,8.936,18.968,4.625c2.652-1.669,4.631-3.997,6.252-6.642
		c0.296-0.483,0.621-0.675,1.189-0.668c2.628,0.028,5.253,0.024,7.881,0.007c1.409-0.01,1.254,0.251,1.495-1.316
		c0.778-5.023,1.537-10.052,2.298-15.076C70.977,68.133,71.232,66.388,71.517,64.484z M130.241,43.171
		c-0.361-0.031-0.576-0.067-0.789-0.067c-8.71-0.004-17.421,0.004-26.129-0.014c-0.633,0-0.86,0.219-0.952,0.832
		c-1.203,8.006-2.427,16.011-3.646,24.015c-1.754,11.501-3.508,23.001-5.26,34.503c-0.224,1.466-0.429,2.937-0.649,4.454
		c0.325,0.038,0.542,0.082,0.755,0.082c8.738,0.004,17.478,0,26.215,0.013c0.541,0,0.798-0.169,0.882-0.716
		c0.435-2.869,0.906-5.732,1.345-8.601c0.189-1.221,0.171-1.225-1.041-1.225c-5.224,0-10.453,0-15.68-0.003
		c-0.377,0-0.756-0.035-1.218-0.059c0.033-0.371,0.045-0.665,0.09-0.956c0.741-4.891,1.503-9.776,2.221-14.67
		c0.105-0.714,0.316-0.964,1.074-0.959c5.445,0.035,10.896,0.008,16.339,0.033c0.669,0.002,0.922-0.225,1.009-0.867
		c0.241-1.754,0.537-3.497,0.805-5.245c0.219-1.436,0.427-2.872,0.656-4.431c-6.093,0-12.049,0-18.08,0
		c0.035-0.41,0.04-0.711,0.088-1.004c0.696-4.536,1.422-9.063,2.075-13.604c0.113-0.791,0.405-0.971,1.153-0.967
		c5.391,0.028,10.782,0.002,16.177,0.028c0.74,0.004,1.086-0.166,1.163-0.975c0.125-1.317,0.385-2.623,0.58-3.936
		C129.693,46.979,129.959,45.124,130.241,43.171z M71.163,64.103c-0.027-0.251-0.03-0.413-0.062-0.567
		c-0.609-2.797-1.529-5.487-2.874-8.016c-2.779-5.224-6.663-9.373-12.333-11.365c-8.458-2.97-16.265-1.335-23.229,4.157
		c-4.741,3.74-7.881,8.719-10.002,14.312c-3.491,9.212-4.137,18.569-0.909,28.001c1.889,5.524,5.126,10.155,10.112,13.271
		c7.06,4.418,14.541,4.405,21.98,1.099c6.463-2.873,10.728-8.041,13.563-14.4c0.521-1.164,0.521-2.561,0.775-3.941
		c-0.445-0.027-0.714-0.059-0.982-0.062c-2.654-0.002-5.308,0.013-7.962-0.013c-0.563-0.005-0.9,0.177-1.199,0.661
		c-1.301,2.105-2.834,4.03-4.803,5.556c-4.466,3.463-9.378,4.424-14.631,2.172c-3.914-1.678-6.199-4.965-7.673-8.84
		c-1.438-3.776-1.642-7.718-1.314-11.688c0.517-6.197,2.812-11.623,7.271-16.036c4.562-4.515,11.054-5.686,16.586-3.002
		c3.363,1.631,5.457,4.428,6.855,7.786c0.322,0.77,0.711,1.016,1.522,0.999c2.767-0.049,5.53-0.017,8.296-0.021
		C70.471,64.166,70.789,64.127,71.163,64.103z M65.43,106.799c0.168,0.089,0.216,0.137,0.266,0.137
		c2.929,0.013,5.857,0.032,8.789,0.009c0.192-0.001,0.5-0.315,0.553-0.531c0.167-0.726,0.244-1.472,0.353-2.209
		c1.182-7.812,2.371-15.625,3.525-23.442c0.11-0.763,0.396-0.966,1.155-0.962c5.085,0.036,10.175,0.005,15.263,0.036
		c0.736,0.005,1.01-0.234,1.107-0.946c0.354-2.573,0.759-5.14,1.14-7.709c0.088-0.586,0.145-1.178,0.231-1.896
		c-5.769,0-11.416,0-17.077,0c0-0.255-0.02-0.395,0.002-0.526c0.717-4.697,1.452-9.394,2.147-14.096
		c0.104-0.705,0.357-0.952,1.097-0.947c5.088,0.03,10.176,0,15.262,0.031c0.775,0.005,1.054-0.246,1.154-0.995
		c0.293-2.165,0.661-4.318,0.985-6.475c0.156-1.021,0.292-2.049,0.443-3.123c-0.382-0.021-0.623-0.052-0.87-0.052
		c-8.322-0.001-16.644,0.009-24.966-0.015c-0.728-0.002-0.927,0.272-1.026,0.937c-1.535,10.19-3.086,20.378-4.641,30.566
		c-1.362,8.934-2.726,17.866-4.09,26.798C65.966,103.185,65.7,104.984,65.43,106.799z M81.077,68.868
		c0.307,0.042,0.493,0.097,0.68,0.097c5.249,0.003,10.496-0.004,15.745,0.009c0.535,0,0.771-0.171,0.85-0.735
		c0.51-3.497,1.055-6.989,1.586-10.48c0.182-1.191,0.359-2.384,0.552-3.659c-0.423-0.02-0.719-0.045-1.014-0.045
		c-5.054-0.005-10.11,0.015-15.167-0.021c-0.776-0.008-1.039,0.247-1.144,0.992c-0.476,3.334-1.015,6.658-1.522,9.988
		C81.447,66.287,81.269,67.563,81.077,68.868z"/>
	<path fill="#F1F2F2" d="M128.697,44.571c-0.296,1.999-0.565,3.906-0.868,5.811c-0.295,1.881-0.305,1.881-2.238,1.892
		c-5.086,0.023-10.177,0.064-15.267,0.058c-0.715,0-0.996,0.191-1.107,0.925c-0.82,5.521-1.686,11.038-2.533,16.556
		c-0.033,0.214-0.035,0.433-0.063,0.828c5.997,0,11.947,0,18.066,0c-0.148,1.024-0.269,1.858-0.386,2.693
		c-0.19,1.368-0.409,2.732-0.562,4.106c-0.081,0.724-0.341,1.007-1.137,0.999c-5.28-0.046-10.562-0.037-15.844-0.037
		c-1.563,0-1.383-0.206-1.623,1.36c-0.863,5.686-1.734,11.366-2.602,17.05c-0.042,0.269-0.062,0.539-0.113,0.988
		c6.062,0,12.044,0,18.158,0c-0.237,1.651-0.445,3.117-0.662,4.581c-0.138,0.902-0.326,1.799-0.423,2.704
		c-0.059,0.556-0.265,0.741-0.831,0.737c-4.344-0.037-8.687-0.039-13.024-0.06c-3.433-0.016-6.857-0.041-10.288-0.067
		c-0.324-0.001-0.648-0.027-1.081-0.046c0.196-1.354,0.375-2.632,0.566-3.905c1.876-12.293,3.749-24.592,5.624-36.886
		c0.994-6.506,2.002-13.005,2.974-19.513c0.105-0.687,0.355-0.888,1.055-0.883c7.771,0.042,15.542,0.049,23.312,0.065
		C128.068,44.53,128.337,44.554,128.697,44.571z"/>
	<path fill="#F1F2F2" d="M69.785,62.81c-2.236,0-4.365-0.104-6.479,0.035c-1.418,0.092-2.055-0.39-2.705-1.673
		c-5.156-10.111-17.057-10.373-23.817-4.164c-4.26,3.914-6.775,8.803-7.729,14.509c-0.798,4.781-0.889,9.534,0.645,14.189
		c1.476,4.489,3.99,8.232,8.366,10.354c4.561,2.206,9.045,1.614,13.325-0.851c2.977-1.717,5.557-3.912,7.467-6.823
		c0.131-0.195,0.413-0.415,0.628-0.417c2.567-0.029,5.137-0.019,7.751-0.019c0,0.201,0.03,0.315-0.006,0.4
		c-2.133,5.007-5.042,9.441-9.372,12.86c-4.652,3.672-9.977,4.997-15.787,4.521c-3.879-0.315-7.589-1.241-10.733-3.729
		c-3.602-2.849-6.05-6.552-7.89-10.705c-2.579-5.82-3.208-11.891-2.505-18.175c0.938-8.407,4.269-15.7,10.093-21.793
		c4.767-4.981,10.6-7.8,17.607-7.495c8.171,0.355,14.202,4.386,18.344,11.342c1.238,2.079,2.062,4.339,2.633,6.688
		C69.688,62.128,69.714,62.4,69.785,62.81z"/>
	<path fill="#F1F2F2" d="M100.355,44.585c-0.413,2.494-0.817,4.888-1.206,7.281c-0.092,0.561-0.505,0.486-0.886,0.486
		c-3.182,0-6.361,0-9.54,0.003c-2.048,0-4.096,0.007-6.142-0.007c-0.462,0-0.763,0.053-0.846,0.627
		c-0.832,5.714-1.691,11.428-2.54,17.141c-0.007,0.049,0.024,0.104,0.083,0.328c5.622,0,11.293,0,17.091,0
		c-0.245,1.683-0.461,3.176-0.685,4.668c-0.127,0.846-0.336,1.684-0.396,2.536c-0.053,0.728-0.365,0.9-1.048,0.896
		c-4.975-0.033-9.954-0.03-14.932-0.035c-1.428-0.001-1.426,0-1.648,1.444c-1.264,8.276-2.54,16.551-3.777,24.834
		c-0.103,0.686-0.355,0.852-0.998,0.838c-1.902-0.038-3.804-0.015-5.847-0.015c0.156-1.147,0.272-2.092,0.416-3.034
		c1.961-12.981,3.92-25.964,5.89-38.94c0.929-6.12,1.884-12.236,2.809-18.356c0.083-0.545,0.221-0.822,0.858-0.819
		c7.574,0.036,15.153,0.046,22.728,0.062C99.904,44.524,100.062,44.554,100.355,44.585z"/>
</g>
</svg>
