<?xml version="1.0" encoding="utf-8"?>
<!-- Generator: Adobe Illustrator 16.0.0, SVG Export Plug-In . SVG Version: 6.00 Build 0)  -->
<!DOCTYPE svg PUBLIC "-//W3C//DTD SVG 1.1//EN" "http://www.w3.org/Graphics/SVG/1.1/DTD/svg11.dtd">
<svg version="1.1" id="Layer_1" xmlns="http://www.w3.org/2000/svg" xmlns:xlink="http://www.w3.org/1999/xlink" x="0px" y="0px"
	 width="150px" height="150px" viewBox="0 0 150 150" enable-background="new 0 0 150 150" xml:space="preserve">
<g>
	<g>
		<path fill="#F1F2F2" d="M73.906,111.312c-8.262,0-16.528-0.006-24.79-0.016c-2.748-0.004-5.983-0.184-9.168-1.498
			c-4.952-2.045-8.18-5.861-9.599-11.346c-0.65-2.521-1.286-5.09-1.9-7.572c-0.389-1.565-0.775-3.132-1.17-4.696
			c-3.208-12.739-6.421-25.48-9.633-38.218l-1.289-5.113c-0.154-0.615-0.314-1.232-0.488-1.903l-0.273-1.059
			c-0.074-0.289-0.011-0.595,0.171-0.83c0.185-0.237,0.464-0.374,0.763-0.374h116.941c0.301,0,0.583,0.141,0.767,0.377
			c0.182,0.24,0.242,0.55,0.164,0.838l-0.79,2.921c-0.605,2.229-1.199,4.417-1.787,6.604l-1.917,7.125
			c-2.787,10.354-5.575,20.708-8.351,31.064c-0.496,1.854-0.988,3.744-1.463,5.57c-0.765,2.945-1.559,5.992-2.397,8.979
			c-1.258,4.474-6.131,8.443-10.86,8.851c-2.189,0.185-4.154,0.275-6.001,0.278C91.859,111.307,82.885,111.312,73.906,111.312z
			 M17.773,40.615c0.16,0.618,0.309,1.193,0.453,1.767l1.29,5.113c3.213,12.738,6.424,25.478,9.632,38.217
			c0.395,1.568,0.783,3.137,1.172,4.707c0.614,2.477,1.247,5.039,1.896,7.552c1.276,4.935,4.046,8.22,8.467,10.046
			c2.873,1.186,5.876,1.351,8.436,1.353c17.236,0.023,34.475,0.021,51.711-0.002c1.794,0,3.706-0.091,5.842-0.273
			c3.928-0.336,8.127-3.745,9.168-7.45c0.833-2.966,1.622-6.002,2.387-8.941c0.476-1.83,0.968-3.724,1.466-5.584
			c2.778-10.357,5.564-20.713,8.351-31.065l1.918-7.125c0.589-2.189,1.183-4.377,1.786-6.608l0.462-1.704H17.773L17.773,40.615z"/>
	</g>
	<path fill="#F1F2F2" d="M122.257,47.87c-1.094,3.919-2.096,7.461-3.069,11.008c-3.291,11.993-6.573,23.992-9.856,35.989
		c-0.056,0.205-0.092,0.416-0.133,0.626c-0.879,4.477-2.993,6.413-7.572,6.446c-5.78,0.041-11.562-0.152-17.343-0.254
		c-0.204-0.004-0.402-0.09-0.671-0.152c0.247-3.604,0.488-7.164,0.743-10.907c3.22,0,6.313,0,9.404,0
		c0.804,0,1.611-0.058,2.407,0.012c1.753,0.151,2.78-0.707,3.132-2.32c0.451-2.074,0.769-4.181,0.916-6.381
		c-0.654,0.943-1.367,1.848-1.951,2.829c-0.93,1.564-2.353,2.143-4.048,2.111c-2.3-0.04-4.602-0.145-6.896-0.302
		c-1.46-0.099-2.562-1.409-2.547-3.177c0.016-2.136,0.188-4.272,0.354-6.406c0.726-9.388,1.473-18.776,2.216-28.161
		c0.015-0.21,0.058-0.416,0.111-0.788c4.74,0,9.467,0,14.376,0c-0.598,3.74-1.205,7.423-1.776,11.109
		c-0.829,5.334-1.634,10.675-2.442,16.011c-0.165,1.091-0.06,2.166,1.239,2.396c1.312,0.229,1.739-0.759,1.943-1.845
		c1.64-8.82,3.263-17.651,4.955-26.462c0.099-0.515,0.734-1.313,1.135-1.322C111.903,47.839,116.928,47.87,122.257,47.87z"/>
	<path fill="#F1F2F2" d="M27.443,47.974c4.27,0,8.329,0,12.389,0c1.929,0,3.858,0.05,5.784-0.017
		c1.021-0.039,1.391,0.338,1.526,1.333c1.27,9.276,2.582,18.544,3.887,27.814c0.491,3.493,0.949,6.994,1.517,10.476
		c0.427,2.624,1.082,3.105,3.715,3.11c7.604,0.015,15.209,0.028,22.813,0.042c0.525,0,1.053,0,1.762,0
		c-0.22,3.691-0.43,7.233-0.646,10.892c-0.553,0.048-1.017,0.118-1.476,0.12c-10.23,0.047-20.458,0.091-30.687,0.119
		c-4.309,0.014-7.34-2.277-8.421-6.451c-3.385-13.077-6.739-26.165-10.101-39.25C28.828,53.526,28.176,50.887,27.443,47.974z"/>
	<path fill="#F1F2F2" d="M66.986,72.2c-0.132,0.302-0.165,0.351-0.172,0.4c-0.51,4.505-0.161,4.896,4.386,4.896
		c2.839,0,5.678,0.039,8.516-0.019c1.046-0.02,1.419,0.326,1.396,1.373c-0.049,2.394-0.016,4.789-0.016,7.368
		c-1.173,0-2.284,0-3.395,0c-5.408,0.011-10.817,0.03-16.227,0.025c-3.573-0.002-5.216-1.549-5.646-5.067
		c-1.106-9.079-2.267-18.15-3.396-27.228c-0.086-0.689-0.17-1.385-0.167-2.077c0.006-2.191,1.311-3.75,3.517-3.777
		c7.657-0.096,15.313-0.121,22.97-0.049c2.527,0.025,4.097,1.954,4.047,4.831c-0.072,4.117-0.292,8.236-0.473,12.355
		c-0.099,2.241-0.249,4.481-0.39,6.97C76.856,72.2,71.862,72.2,66.986,72.2z M66.21,68.609c1.447,0,2.441,0,3.471,0
		c0-2.984,0.091-5.903-0.078-8.807c-0.033-0.525-1.255-1.485-1.692-1.366c-0.675,0.18-1.583,1.09-1.625,1.742
		C66.104,62.924,66.21,65.689,66.21,68.609z"/>
</g>
</svg>
