<?xml version="1.0" encoding="utf-8"?>
<!-- Generator: Adobe Illustrator 16.0.0, SVG Export Plug-In . SVG Version: 6.00 Build 0)  -->
<!DOCTYPE svg PUBLIC "-//W3C//DTD SVG 1.1//EN" "http://www.w3.org/Graphics/SVG/1.1/DTD/svg11.dtd">
<svg version="1.1" id="Layer_1" xmlns="http://www.w3.org/2000/svg" xmlns:xlink="http://www.w3.org/1999/xlink" x="0px" y="0px"
	 width="150px" height="150px" viewBox="0 0 150 150" enable-background="new 0 0 150 150" xml:space="preserve">
<g>
	<g>
		<polygon fill="#F1F2F2" points="31.142,92.061 73.928,17.222 89.062,42.898 61.197,92.061 		"/>
	</g>
	<g>
		<polygon fill="#F1F2F2" points="75.726,70.365 89.907,45.635 118.419,92.061 88.065,92.061 		"/>
	</g>
	<g>
		<path fill="#F1F2F2" d="M36.078,101.633h3.035l4.839,11.446h-3.378l-0.812-2.045h-4.399l-0.812,2.045h-3.294L36.078,101.633z
			 M38.836,108.582l-1.266-3.215l-1.281,3.215H38.836z"/>
		<path fill="#F1F2F2" d="M45.051,101.714h2.938l4.676,6.008v-6.008h3.117v11.364h-2.744l-4.87-6.234v6.234h-3.118v-11.364H45.051z"
			/>
		<path fill="#F1F2F2" d="M61.719,101.633h3.037l4.839,11.446h-3.378l-0.812-2.045h-4.399l-0.812,2.045h-3.298L61.719,101.633z
			 M64.478,108.582l-1.266-3.215l-1.281,3.215H64.478z"/>
		<path fill="#F1F2F2" d="M70.692,101.714h3.149v4.254h4.044v-4.254h3.148v11.364h-3.148v-4.317h-4.044v4.317h-3.149V101.714z"/>
		<path fill="#F1F2F2" d="M82.911,108.096v-6.383h3.183v6.315c0,1.64,0.829,2.419,2.096,2.419c1.28,0,2.108-0.747,2.108-2.337
			v-6.397h3.184v6.3c0,3.654-2.094,5.276-5.328,5.276C84.941,113.29,82.911,111.651,82.911,108.096z"/>
		<path fill="#F1F2F2" d="M98.817,101.633h3.037l4.838,11.446h-3.377l-0.812-2.045h-4.402l-0.81,2.045h-3.294L98.817,101.633z
			 M101.577,108.582l-1.265-3.215l-1.284,3.215H101.577z"/>
		<path fill="#F1F2F2" d="M106.688,107.428v-0.032c0-3.312,2.535-5.908,5.975-5.908c2.321,0,3.818,0.972,4.823,2.354l-2.37,1.835
			c-0.648-0.797-1.396-1.331-2.485-1.331c-1.591,0-2.712,1.361-2.712,3.019v0.032c0,1.705,1.121,3.036,2.712,3.036
			c1.186,0,1.885-0.553,2.566-1.379l2.371,1.688c-1.072,1.478-2.518,2.564-5.018,2.564
			C109.302,113.306,106.688,110.823,106.688,107.428z"/>
	</g>
	<g>
		<path fill="#F1F2F2" d="M31.642,119.487v-0.018c0-1.845,1.383-3.456,3.418-3.456c2.034,0,3.4,1.595,3.4,3.436v0.021
			c0,1.843-1.386,3.456-3.419,3.456C33.005,122.926,31.642,121.33,31.642,119.487z M37.674,119.487v-0.018
			c0-1.519-1.105-2.761-2.635-2.761c-1.527,0-2.617,1.22-2.617,2.741v0.02c0,1.519,1.107,2.761,2.638,2.761
			C36.587,122.229,37.674,121.008,37.674,119.487z"/>
		<path fill="#F1F2F2" d="M40.823,116.127h2.871c0.821,0,1.48,0.249,1.9,0.668c0.324,0.325,0.516,0.794,0.516,1.319v0.019
			c0,1.107-0.762,1.758-1.813,1.946l2.052,2.73h-0.926l-1.938-2.597h-1.911v2.597h-0.751V116.127z M43.629,119.537
			c1.003,0,1.72-0.518,1.72-1.377v-0.02c0-0.821-0.631-1.316-1.71-1.316h-2.062v2.711L43.629,119.537L43.629,119.537z"/>
		<path fill="#F1F2F2" d="M48.196,119.487v-0.018c0-1.834,1.347-3.456,3.353-3.456c1.126,0,1.823,0.323,2.491,0.887l-0.487,0.571
			c-0.516-0.445-1.09-0.761-2.034-0.761c-1.48,0-2.539,1.25-2.539,2.741v0.018c0,1.597,1.021,2.778,2.644,2.778
			c0.765,0,1.471-0.295,1.93-0.667v-1.662h-2.034v-0.677h2.76v2.662c-0.621,0.554-1.558,1.024-2.683,1.024
			C49.495,122.926,48.196,121.398,48.196,119.487z"/>
		<path fill="#F1F2F2" d="M59.222,116.079h0.706l3.045,6.73h-0.811l-0.783-1.765H57.74l-0.792,1.765h-0.774L59.222,116.079z
			 M61.082,120.356l-1.517-3.399l-1.528,3.399H61.082z"/>
		<path fill="#F1F2F2" d="M65.06,116.127h0.706l4.213,5.358v-5.358h0.734v6.683h-0.602l-4.316-5.479v5.479h-0.734L65.06,116.127
			L65.06,116.127z"/>
		<path fill="#F1F2F2" d="M73.438,116.127h0.755v6.683h-0.755V116.127z"/>
		<path fill="#F1F2F2" d="M76.61,122.305l4.327-5.499h-4.185v-0.679h5.212v0.506l-4.334,5.501h4.334v0.676H76.61V122.305z"/>
		<path fill="#F1F2F2" d="M86.774,116.079h0.708l3.046,6.73h-0.812l-0.784-1.765h-3.639l-0.792,1.765h-0.773L86.774,116.079z
			 M88.635,120.356l-1.517-3.399l-1.53,3.399H88.635z"/>
		<path fill="#F1F2F2" d="M91.923,119.487v-0.018c0-1.891,1.414-3.456,3.381-3.456c1.214,0,1.938,0.429,2.607,1.059l-0.518,0.553
			c-0.564-0.533-1.192-0.916-2.101-0.916c-1.479,0-2.587,1.205-2.587,2.741v0.02c0,1.548,1.117,2.761,2.587,2.761
			c0.919,0,1.519-0.353,2.16-0.964l0.494,0.485c-0.694,0.706-1.46,1.174-2.672,1.174C93.347,122.926,91.923,121.408,91.923,119.487z
			"/>
		<path fill="#F1F2F2" d="M100.103,116.127h0.755v6.683h-0.755V116.127z"/>
		<path fill="#F1F2F2" d="M103.283,119.487v-0.018c0-1.845,1.385-3.456,3.419-3.456c2.033,0,3.397,1.595,3.397,3.436v0.021
			c0,1.843-1.382,3.456-3.416,3.456C104.65,122.926,103.283,121.33,103.283,119.487z M109.318,119.487v-0.018
			c0-1.519-1.107-2.761-2.634-2.761c-1.527,0-2.618,1.22-2.618,2.741v0.02c0,1.519,1.109,2.761,2.636,2.761
			C108.23,122.23,109.318,121.008,109.318,119.487z"/>
		<path fill="#F1F2F2" d="M112.464,116.127h0.708l4.211,5.358v-5.358h0.736v6.683h-0.601l-4.317-5.479v5.479h-0.736L112.464,116.127
			L112.464,116.127z"/>
	</g>
	<g>
		<path fill="#F1F2F2" d="M31.473,129.341v-0.019c0-1.893,1.414-3.458,3.382-3.458c1.214,0,1.939,0.43,2.607,1.06l-0.516,0.554
			c-0.564-0.534-1.196-0.916-2.102-0.916c-1.479,0-2.586,1.205-2.586,2.741v0.02c0,1.546,1.117,2.76,2.586,2.76
			c0.916,0,1.518-0.352,2.158-0.965l0.496,0.486c-0.696,0.708-1.459,1.175-2.674,1.175
			C32.896,132.778,31.473,131.261,31.473,129.341z"/>
		<path fill="#F1F2F2" d="M38.717,129.341v-0.019c0-1.845,1.384-3.458,3.416-3.458s3.4,1.595,3.4,3.437v0.021
			c0,1.844-1.386,3.456-3.42,3.456C40.08,132.778,38.717,131.184,38.717,129.341z M44.748,129.341v-0.019
			c0-1.521-1.105-2.761-2.635-2.761c-1.528,0-2.616,1.22-2.616,2.741v0.02c0,1.519,1.107,2.76,2.636,2.76
			S44.748,130.859,44.748,129.341z"/>
		<path fill="#F1F2F2" d="M47.514,125.98h0.708l4.212,5.356v-5.356h0.734v6.683h-0.602l-4.315-5.479v5.479h-0.737V125.98
			L47.514,125.98z"/>
		<path fill="#F1F2F2" d="M55.005,131.689l0.468-0.555c0.697,0.631,1.365,0.945,2.292,0.945c0.897,0,1.49-0.478,1.49-1.135v-0.02
			c0-0.622-0.336-0.976-1.738-1.272c-1.537-0.335-2.244-0.831-2.244-1.929v-0.02c0-1.051,0.928-1.822,2.197-1.822
			c0.973,0,1.668,0.276,2.347,0.82l-0.438,0.583c-0.622-0.505-1.241-0.725-1.931-0.725c-0.868,0-1.422,0.477-1.422,1.077v0.021
			c0,0.629,0.344,0.983,1.814,1.299c1.49,0.323,2.178,0.869,2.178,1.891v0.019c0,1.146-0.955,1.894-2.282,1.894
			C56.674,132.76,55.805,132.406,55.005,131.689z"/>
		<path fill="#F1F2F2" d="M63.563,126.678h-2.245v-0.697h5.254v0.697h-2.246v5.985h-0.763V126.678L63.563,126.678z"/>
		<path fill="#F1F2F2" d="M68.368,125.98h2.874c0.821,0,1.48,0.246,1.899,0.666c0.324,0.326,0.516,0.794,0.516,1.318v0.02
			c0,1.109-0.762,1.758-1.813,1.946l2.052,2.73h-0.925l-1.94-2.595h-1.908v2.595h-0.755L68.368,125.98L68.368,125.98z
			 M71.176,129.388c1.006,0,1.722-0.515,1.722-1.375v-0.02c0-0.821-0.632-1.317-1.711-1.317h-2.062v2.711L71.176,129.388
			L71.176,129.388z"/>
		<path fill="#F1F2F2" d="M75.556,129.865v-3.885h0.756v3.837c0,1.443,0.773,2.254,2.041,2.254c1.233,0,2.016-0.746,2.016-2.206
			v-3.885h0.755v3.827c0,1.947-1.118,2.958-2.788,2.958C76.681,132.769,75.556,131.755,75.556,129.865z"/>
		<path fill="#F1F2F2" d="M82.995,129.341v-0.019c0-1.893,1.414-3.458,3.38-3.458c1.214,0,1.938,0.43,2.606,1.06l-0.516,0.554
			c-0.564-0.534-1.192-0.916-2.1-0.916c-1.479,0-2.587,1.205-2.587,2.741v0.02c0,1.546,1.116,2.76,2.587,2.76
			c0.916,0,1.518-0.352,2.16-0.965l0.494,0.486c-0.696,0.708-1.462,1.175-2.674,1.175C84.417,132.778,82.995,131.261,82.995,129.341
			z"/>
		<path fill="#F1F2F2" d="M92.491,126.678h-2.245v-0.697h5.253v0.697h-2.245v5.985h-0.765L92.491,126.678L92.491,126.678z"/>
		<path fill="#F1F2F2" d="M96.544,129.341v-0.019c0-1.845,1.385-3.458,3.417-3.458c2.034,0,3.401,1.595,3.401,3.437v0.021
			c0,1.844-1.387,3.456-3.419,3.456C97.909,132.778,96.544,131.184,96.544,129.341z M102.578,129.341v-0.019
			c0-1.521-1.105-2.761-2.635-2.761c-1.528,0-2.616,1.22-2.616,2.741v0.02c0,1.519,1.106,2.76,2.636,2.76
			C101.491,132.082,102.578,130.859,102.578,129.341z"/>
		<path fill="#F1F2F2" d="M105.341,125.98h2.874c0.821,0,1.479,0.246,1.9,0.666c0.323,0.326,0.514,0.794,0.514,1.318v0.02
			c0,1.109-0.761,1.758-1.813,1.946l2.052,2.73h-0.926l-1.937-2.595h-1.909v2.595h-0.757L105.341,125.98L105.341,125.98z
			 M108.149,129.388c1.003,0,1.72-0.515,1.72-1.375v-0.02c0-0.821-0.632-1.317-1.709-1.317h-2.064v2.711L108.149,129.388
			L108.149,129.388z"/>
		<path fill="#F1F2F2" d="M115.105,125.933h0.706l3.047,6.731h-0.812l-0.782-1.767h-3.638l-0.794,1.767h-0.773L115.105,125.933z
			 M116.968,130.21l-1.518-3.399l-1.529,3.399H116.968z"/>
	</g>
</g>
</svg>
