<?xml version="1.0" encoding="utf-8"?>
<!-- Generator: Adobe Illustrator 16.0.0, SVG Export Plug-In . SVG Version: 6.00 Build 0)  -->
<!DOCTYPE svg PUBLIC "-//W3C//DTD SVG 1.1//EN" "http://www.w3.org/Graphics/SVG/1.1/DTD/svg11.dtd">
<svg version="1.1" id="Layer_1" xmlns="http://www.w3.org/2000/svg" xmlns:xlink="http://www.w3.org/1999/xlink" x="0px" y="0px"
	 width="150px" height="150px" viewBox="0 0 150 150" enable-background="new 0 0 150 150" xml:space="preserve">
<g>
	<path fill="#F1F2F2" d="M136.451,60.163l-14.014-23.532c-0.206-0.344-0.631-0.484-1.002-0.329L97.43,46.408
		c-0.245,0.104-0.427,0.322-0.478,0.584c-0.051,0.261,0.029,0.53,0.217,0.72l3.273,3.322l-2.26,13.15
		c-1.795-0.619-3.629-1.169-5.495-1.646l2.99-17.549l5.51-2.565c0.248-0.117,0.423-0.354,0.457-0.626
		c0.035-0.276-0.073-0.547-0.286-0.722L76.054,20.259c-0.291-0.239-0.711-0.243-1.01-0.01L48.001,41.672
		c-0.223,0.176-0.336,0.459-0.297,0.741c0.041,0.282,0.228,0.521,0.491,0.63l5.501,2.253l3.718,17.052
		c-1.844,0.449-3.653,0.972-5.433,1.561l-3.767-12.729l3.196-3.079c0.206-0.197,0.291-0.488,0.225-0.767
		c-0.066-0.274-0.273-0.496-0.545-0.581l-25.457-7.812c-0.389-0.118-0.805,0.069-0.971,0.442L13.506,64.393
		c-0.113,0.254-0.089,0.544,0.065,0.775c0.153,0.229,0.418,0.365,0.69,0.356l4.541-0.135l8.807,11.729
		c0.156,0.207,0.395,0.321,0.644,0.321c0.033,0,0.072-0.007,0.105-0.014c-1.639,1.455-3.2,2.985-4.67,4.588
		c0,0-0.994,2.116,2.974,0.137c3.97-1.98,5.576-2.168,5.669-0.845c0.095,1.324,8.695,0.943,15.688-3.025
		c6.993-3.968,4.442,1.323,5.575,2.363c1.135,1.039,5.29-7.372,16.064-7.466c10.771-0.094,12.567,6.898,20.222,7.087
		c0,0,1.229-8.502,7.369-8.032c6.145,0.473,9.83,8.126,14.934,8.787c0,0,2.119-5.414,5.764-2.645
		c7.64,5.806,7.823,3.774,7.823,3.774c-0.779-0.855-1.587-1.691-2.419-2.509c0.065-0.065,0.118-0.14,0.156-0.227l7.858-17.645
		l4.468-0.396c0.274-0.024,0.518-0.189,0.644-0.436C136.601,60.692,136.593,60.4,136.451,60.163z"/>
	<path fill="#F1F2F2" d="M40.456,87.786c-1.678,0.018-3.356,0.02-5.032,0c-0.328-0.002-0.51,0.106-0.665,0.383
		c-0.888,1.593-1.561,3.273-2.075,5.021c-0.106,0.354-0.177,0.716-0.29,1.064c-0.114,0.35-0.124,0.727-0.302,1.063
		c-0.096-0.073-0.102-0.163-0.123-0.249c-0.581-2.42-1.362-4.76-2.599-6.934c-0.14-0.243-0.29-0.35-0.59-0.347
		c-1.677,0.018-3.354,0.021-5.03-0.002c-0.394-0.004-0.521,0.085-0.518,0.505c0.016,5.446,0.011,10.894,0.011,16.34
		c0,3.962,0.006,7.925-0.012,11.889c-0.002,0.403,0.108,0.49,0.492,0.479c1.156-0.025,2.314-0.027,3.472,0
		c0.404,0.011,0.509-0.1,0.509-0.506c-0.014-7.006-0.011-14.011-0.011-21.018c0-0.16,0-0.318,0-0.478
		c0.825,1.308,1.369,2.704,1.688,4.184c0.367,1.715,0.465,3.456,0.467,5.206c0.004,4.022,0.012,8.043-0.013,12.064
		c-0.003,0.471,0.14,0.558,0.568,0.546c1.127-0.03,2.256-0.029,3.383,0c0.407,0.012,0.505-0.102,0.507-0.507
		c0.037-4.703-0.115-9.406,0.082-14.108c0.062-1.523,0.273-3.026,0.741-4.484c0.316-0.992,0.704-1.957,1.26-2.884
		c0.104,0.19,0.06,0.353,0.06,0.505c0.001,7.006,0.005,14.008-0.006,21.014c0,0.374,0.101,0.472,0.467,0.466
		c1.186-0.023,2.374-0.023,3.562,0c0.356,0.006,0.438-0.102,0.438-0.446c-0.01-9.438-0.01-18.878,0-28.316
		C40.896,87.89,40.812,87.782,40.456,87.786z"/>
	<path fill="#F1F2F2" d="M124.588,87.786c-1.705,0.018-3.413,0.02-5.119,0c-0.32-0.004-0.466,0.123-0.61,0.382
		c-0.874,1.535-1.528,3.158-2.027,4.849c-0.23,0.783-0.436,1.576-0.668,2.435c-0.058-0.23-0.092-0.389-0.133-0.544
		c-0.598-2.352-1.346-4.644-2.562-6.762c-0.142-0.243-0.279-0.361-0.579-0.359c-1.706,0.018-3.412,0.018-5.119,0
		c-0.348-0.002-0.452,0.092-0.452,0.451c0.008,9.451,0.008,18.904,0,28.356c0,0.306,0.07,0.408,0.391,0.403
		c1.173-0.018,2.344-0.029,3.515,0.003c0.442,0.013,0.566-0.092,0.565-0.549c-0.018-6.975-0.014-13.949-0.01-20.923
		c0-0.166-0.043-0.343,0.069-0.551c0.414,0.688,0.705,1.374,0.986,2.069c0.926,2.308,1.095,4.743,1.124,7.181
		c0.048,4.109,0.017,8.219,0.003,12.331c0,0.352,0.096,0.446,0.443,0.44c1.144-0.022,2.286-0.029,3.428,0.003
		c0.417,0.009,0.542-0.079,0.544-0.524c0.015-4.301-0.077-8.603,0.041-12.903c0.052-1.957,0.211-3.895,0.822-5.769
		c0.316-0.964,0.699-1.901,1.221-2.774c0.038,0.012,0.075,0.02,0.113,0.033c0,0.158,0,0.316,0,0.475
		c0,7.005,0.001,14.008-0.008,21.012c0,0.333,0.062,0.459,0.43,0.451c1.2-0.025,2.402-0.024,3.605-0.003
		c0.34,0.008,0.416-0.097,0.416-0.424c-0.01-9.451-0.009-18.903,0-28.355C125.017,87.884,124.923,87.785,124.588,87.786z"/>
	<path fill="#F1F2F2" d="M83.245,116.998c0.39,0.012,0.487-0.091,0.487-0.486c-0.014-5.104-0.01-10.206-0.01-15.312
		c0-4.302-0.007-8.604,0.01-12.908c0.001-0.418-0.12-0.516-0.519-0.506c-1.111,0.028-2.227,0.029-3.34-0.001
		c-0.415-0.012-0.549,0.078-0.543,0.524c0.023,2.224,0.008,4.451,0.005,6.677c-0.05-0.004-0.101-0.007-0.15-0.01
		c-0.605-2.326-1.312-4.62-2.212-6.852c-0.097-0.237-0.205-0.341-0.479-0.339c-1.127,0.019-2.256,0.02-3.381,0
		c-0.326-0.005-0.437,0.084-0.437,0.422c0.01,9.467,0.01,18.931,0,28.398c0,0.323,0.11,0.391,0.407,0.388
		c1.188-0.015,2.374-0.028,3.56,0.005c0.431,0.012,0.5-0.137,0.5-0.521c-0.012-5.98-0.009-11.959-0.009-17.938
		c0-0.169,0-0.338,0-0.591c0.199,0.17,0.215,0.312,0.26,0.443c1.277,3.798,1.817,7.723,1.926,11.707
		c0.061,2.166,0.024,4.332,0.016,6.499c0,0.311,0.079,0.401,0.396,0.396C80.899,116.978,82.072,116.971,83.245,116.998z"/>
	<path fill="#F1F2F2" d="M103.72,114.696c0.793-1.822,0.948-3.774,0.992-5.725c0.053-2.478,0.014-4.956,0.014-7.436
		c0-4.422-0.005-8.845,0.011-13.267c0.003-0.398-0.107-0.492-0.495-0.483c-1.171,0.025-2.344,0.024-3.515,0
		c-0.376-0.007-0.463,0.106-0.463,0.469c0.013,3.636,0.009,7.272,0.009,10.907c-0.002,3.575-0.002,7.153,0,10.73
		c0,0.445-0.044,0.887-0.173,1.313c-0.136,0.449-0.509,0.706-0.96,0.688c-0.471-0.019-0.806-0.287-0.913-0.756
		c-0.139-0.61-0.16-1.233-0.161-1.852c-0.01-6.989-0.011-13.978,0.007-20.968c0-0.438-0.118-0.545-0.543-0.534
		c-1.127,0.032-2.257,0.03-3.385,0.001c-0.421-0.012-0.548,0.104-0.544,0.539c0.047,6.794-0.055,13.59,0.064,20.384
		c0.03,1.72,0.166,3.425,0.643,5.086c0.487,1.699,1.452,2.96,3.255,3.411c0.763,0.19,1.537,0.223,2.328,0.15
		C101.678,117.189,102.993,116.355,103.72,114.696z"/>
	<path fill="#F1F2F2" d="M70.202,111.458c-1.365,0.016-2.73-0.002-4.095,0.012c-0.296,0.005-0.379-0.088-0.379-0.377
		c0.01-2.285,0.013-4.569-0.001-6.854c-0.001-0.341,0.111-0.429,0.437-0.424c1.215,0.018,2.432-0.008,3.649,0.017
		c0.362,0.008,0.442-0.114,0.438-0.453c-0.017-1.543-0.017-3.087,0-4.628c0.005-0.347-0.085-0.462-0.446-0.457
		c-1.231,0.022-2.463,0-3.693,0.015c-0.288,0.005-0.386-0.073-0.383-0.373c0.015-1.393,0.015-2.788,0-4.181
		c-0.003-0.295,0.087-0.377,0.378-0.372c1.29,0.015,2.581-0.005,3.869,0.013c0.313,0.003,0.399-0.083,0.397-0.395
		c-0.016-1.575-0.021-3.144,0.001-4.718c0.008-0.384-0.081-0.499-0.486-0.497c-2.684,0.021-5.369,0.021-8.054-0.001
		c-0.434-0.004-0.499,0.141-0.499,0.526c0.012,4.689,0.007,9.377,0.007,14.064c0,4.717,0.005,9.435-0.007,14.152
		c-0.003,0.361,0.075,0.472,0.456,0.471c2.804-0.018,5.607-0.014,8.411-0.003c0.299,0,0.409-0.063,0.407-0.387
		c-0.018-1.588-0.018-3.176,0-4.763C70.611,111.523,70.501,111.455,70.202,111.458z"/>
	<path fill="#F1F2F2" d="M59.562,111.458c-1.231,0.016-2.464,0.008-3.695,0.006c-0.651-0.003-0.562,0.07-0.562-0.57
		c-0.002-7.537-0.005-15.072,0.007-22.61c0-0.374-0.068-0.51-0.479-0.498c-1.142,0.032-2.285,0.03-3.426,0.001
		c-0.42-0.009-0.551,0.097-0.549,0.536c0.015,4.688,0.01,9.375,0.01,14.062c0,4.719,0.002,9.435-0.008,14.153
		c0,0.319,0.04,0.466,0.425,0.462c2.761-0.019,5.52-0.013,8.278-0.004c0.282,0,0.379-0.063,0.375-0.364
		c-0.015-1.603-0.014-3.204,0-4.807C59.94,111.523,59.845,111.455,59.562,111.458z"/>
	<path fill="#F1F2F2" d="M90.911,116.547c-0.009-9.435-0.009-18.869,0-28.304c0-0.349-0.088-0.463-0.447-0.457
		c-1.172,0.022-2.343,0.028-3.516,0c-0.39-0.009-0.492,0.088-0.492,0.485c0.017,4.703,0.011,9.406,0.011,14.108
		c0,4.716,0.006,9.435-0.009,14.152c-0.002,0.367,0.081,0.476,0.459,0.467c1.186-0.025,2.373-0.025,3.56,0
		C90.844,117.007,90.911,116.884,90.911,116.547z"/>
	<path fill="#F1F2F2" d="M47.616,87.786c-1.155,0.018-2.312,0.03-3.47-0.001c-0.431-0.012-0.539,0.107-0.538,0.537
		c0.016,4.703,0.01,9.405,0.01,14.108c0,4.688,0.009,9.378-0.01,14.064c-0.001,0.418,0.12,0.513,0.517,0.503
		c1.172-0.026,2.344-0.017,3.517-0.004c0.283,0.004,0.377-0.068,0.377-0.366c-0.008-9.479-0.008-18.96,0-28.44
		C48.019,87.874,47.926,87.784,47.616,87.786z"/>
	<path fill="#F1F2F2" d="M47.673,119.652c-0.445,0.016-0.891,0.025-1.337-0.002c-0.323-0.017-0.402,0.114-0.395,0.412
		c0.02,0.594,0.011,1.188,0.006,1.782c-0.002,0.108,0.046,0.264-0.123,0.287c-0.147,0.021-0.185-0.102-0.237-0.217
		c-0.278-0.619-0.573-1.232-0.855-1.85c-0.14-0.301-0.337-0.453-0.691-0.416c-0.338,0.035-0.685,0.033-1.021,0.001
		c-0.389-0.035-0.468,0.127-0.464,0.482c0.019,1.528,0.008,3.055,0.008,4.585c0,1.557,0.01,3.116-0.006,4.674
		c-0.004,0.329,0.087,0.449,0.423,0.428c0.4-0.028,0.804-0.033,1.201,0c0.371,0.031,0.442-0.123,0.441-0.459
		c-0.015-1.958-0.011-3.916-0.004-5.875c0.004-0.141-0.11-0.37,0.124-0.412c0.178-0.029,0.199,0.192,0.258,0.316
		c0.667,1.383,0.864,2.869,0.94,4.377c0.03,0.577,0.013,1.156,0.003,1.735c-0.004,0.227,0.076,0.319,0.309,0.314
		c0.476-0.012,0.949-0.016,1.426,0.001c0.261,0.009,0.325-0.103,0.325-0.343c-0.008-3.161-0.008-6.322,0-9.481
		C48.004,119.743,47.926,119.645,47.673,119.652z"/>
	<path fill="#F1F2F2" d="M85.511,119.652c-0.397,0.013-0.8,0.028-1.198-0.003c-0.397-0.031-0.532,0.082-0.53,0.507
		c0.023,2.313,0.014,4.629,0.013,6.939c0,0.177-0.029,0.351-0.05,0.524c-0.054,0.436-0.302,0.501-0.677,0.507
		c-0.402,0.008-0.517-0.229-0.584-0.533c-0.03-0.143-0.02-0.294-0.02-0.443c-0.003-2.358-0.008-4.715,0.006-7.072
		c0.003-0.329-0.087-0.45-0.425-0.429c-0.412,0.029-0.829,0.023-1.244,0c-0.324-0.02-0.399,0.113-0.396,0.411
		c0.015,1.216,0.006,2.431,0.006,3.648c0,0.846,0.002,1.691,0,2.535c-0.005,0.694-0.035,1.391,0.179,2.065
		c0.216,0.688,0.619,1.204,1.336,1.422c0.781,0.24,1.57,0.244,2.354,0.016c0.932-0.277,1.543-1.13,1.559-2.337
		c0.033-2.476,0.007-4.952,0.015-7.428C85.853,119.729,85.759,119.645,85.511,119.652z"/>
	<path fill="#F1F2F2" d="M56.282,123.922c-0.61-0.404-1.184-0.88-1.619-1.485c-0.217-0.299-0.283-0.662-0.051-0.945
		c0.24-0.295,0.606-0.274,0.93-0.095c0.256,0.141,0.341,0.4,0.375,0.671c0.089,0.709,0.084,0.709,0.8,0.709
		c0.118,0,0.238,0.002,0.355,0c0.838-0.011,0.709,0.107,0.724-0.738c0.009-0.682-0.112-1.314-0.58-1.853
		c-0.726-0.835-2.778-0.919-3.779-0.302c-1.142,0.706-1.438,2.18-0.692,3.389c0.472,0.765,1.124,1.36,1.805,1.939
		c0.687,0.585,1.331,1.195,1.198,2.231c-0.044,0.347-0.099,0.655-0.537,0.673c-0.446,0.019-0.653-0.148-0.704-0.608
		c-0.022-0.218-0.009-0.443-0.009-0.666c0-1.04,0-1.04-1.044-1.04c-1.094,0-1.094,0-1.094,1.197
		c-0.046,0.679,0.004,1.461,0.575,2.09c0.758,0.837,1.754,0.891,2.781,0.773c0.877-0.101,1.577-0.514,1.899-1.371
		C58.214,126.888,57.957,125.028,56.282,123.922z"/>
	<path fill="#F1F2F2" d="M113.645,124.104c-0.705-0.505-1.417-1.02-1.912-1.762c-0.177-0.262-0.212-0.522-0.025-0.783
		c0.173-0.238,0.429-0.315,0.704-0.272c0.315,0.054,0.522,0.237,0.593,0.575c0.064,0.297-0.033,0.715,0.198,0.862
		c0.225,0.143,0.603,0.052,0.915,0.052c0.918,0.001,0.95-0.002,0.84-0.921c-0.151-1.284-0.438-1.9-1.587-2.237
		c-0.196-0.058-0.402-0.097-0.604-0.114c-0.89-0.079-1.747,0.002-2.471,0.597c-0.982,0.807-1.06,2.231-0.335,3.321
		c0.537,0.813,1.259,1.438,2.006,2.043c0.633,0.512,1.021,1.147,0.947,1.994c-0.031,0.328-0.129,0.606-0.524,0.657
		c-0.395,0.051-0.606-0.121-0.724-0.488c-0.085-0.263-0.081-0.523-0.081-0.79c-0.002-1.036-0.002-1.036-1.048-1.036
		c-0.267,0-0.535,0.007-0.801-0.002c-0.203-0.008-0.29,0.068-0.297,0.281c-0.015,0.651-0.034,1.313,0.118,1.943
		c0.201,0.847,0.669,1.511,1.576,1.74c0.67,0.17,1.344,0.215,2.015,0.038c0.553-0.148,1.056-0.387,1.381-0.896
		C115.396,127.55,115.238,125.252,113.645,124.104z"/>
	<path fill="#F1F2F2" d="M26.588,119.604c-0.649-0.153-1.306-0.129-1.963,0.021c-0.874,0.198-1.351,0.741-1.601,1.584
		c-0.154,0.521-0.192,1.059-0.202,1.57c-0.037,1.756-0.137,3.521,0.155,5.27c0.145,0.864,0.825,1.581,1.618,1.757
		c0.469,0.101,0.946,0.145,1.412,0.089c1.176-0.141,1.853-0.492,2.179-1.611c0.258-0.875,0.23-1.781,0.223-2.682
		c-0.002-0.204-0.113-0.247-0.283-0.246c-0.417,0.006-0.832-0.001-1.248,0.001c-0.685,0.005-0.594-0.064-0.614,0.627
		c-0.014,0.605,0.076,1.214-0.087,1.812c-0.104,0.388-0.408,0.313-0.684,0.321c-0.257,0.008-0.431-0.083-0.467-0.359
		c-0.042-0.291-0.101-0.579-0.095-0.878c0.013-0.727,0.003-1.452,0.003-2.179c0-0.786,0.008-1.572-0.003-2.359
		c-0.004-0.227,0.044-0.438,0.096-0.653c0.074-0.314,0.317-0.435,0.598-0.413c0.25,0.019,0.502,0.047,0.577,0.417
		c0.101,0.488,0.045,0.974,0.061,1.459c0.005,0.24,0.068,0.35,0.327,0.344c0.505-0.017,1.01-0.014,1.513-0.003
		c0.237,0.006,0.296-0.09,0.312-0.315c0.034-0.492-0.062-0.972-0.105-1.455C28.214,120.634,27.564,119.833,26.588,119.604z"/>
	<path fill="#F1F2F2" d="M94.002,123.494c0.506-0.016,1.01-0.014,1.514,0c0.236,0.005,0.324-0.092,0.305-0.318
		c-0.048-0.526-0.083-1.055-0.146-1.58c-0.07-0.587-0.276-1.117-0.73-1.523c-0.48-0.433-1.094-0.525-1.689-0.56
		c-0.866-0.053-1.731,0.047-2.357,0.755c-0.58,0.66-0.665,1.515-0.671,2.333c-0.016,1.655-0.118,3.318,0.073,4.972
		c0.089,0.763,0.27,1.492,0.99,1.928c0.722,0.434,1.523,0.465,2.321,0.375c0.826-0.092,1.505-0.45,1.831-1.27
		c0.388-0.982,0.391-2.018,0.37-3.053c-0.003-0.226-0.18-0.194-0.323-0.194c-0.476-0.004-0.951,0.017-1.426-0.009
		c-0.328-0.017-0.387,0.122-0.392,0.417c-0.012,0.633,0.062,1.268-0.066,1.904c-0.065,0.332-0.207,0.451-0.526,0.45
		c-0.543,0-0.722-0.161-0.729-0.753c-0.011-0.891-0.004-1.781-0.004-2.669c0-0.52,0-1.04,0-1.558c0-0.416-0.007-0.832,0.007-1.247
		c0.011-0.379,0.217-0.609,0.599-0.622c0.342-0.012,0.567,0.128,0.659,0.509c0.113,0.461,0.049,0.916,0.063,1.371
		C93.681,123.395,93.745,123.501,94.002,123.494z"/>
	<path fill="#F1F2F2" d="M66.188,119.652c-0.668,0.013-1.337,0.005-2.004,0.005c-0.489,0-0.978,0-1.469,0
		c-0.917,0-0.917,0-0.917,0.899c0,0.794,0.001,0.819,0.801,0.786c0.424-0.018,0.549,0.101,0.546,0.534
		c-0.021,2.464,0.003,4.927-0.023,7.39c-0.006,0.469,0.138,0.597,0.575,0.553c0.337-0.037,0.685-0.03,1.021-0.003
		c0.368,0.031,0.48-0.09,0.475-0.466c-0.015-2.301-0.008-4.598-0.008-6.899c0-1.038,0-1.044,1.018-1.096
		c0.221-0.011,0.331-0.063,0.322-0.304c-0.014-0.355-0.018-0.715,0-1.068C66.537,119.729,66.437,119.649,66.188,119.652z"/>
	<path fill="#F1F2F2" d="M75.537,125.714c-0.083-0.493-0.261-1.002,0.234-1.432c0.19-0.163,0.229-0.469,0.282-0.734
		c0.135-0.646,0.088-1.285,0.005-1.935c-0.156-1.204-0.95-1.943-2.174-1.955c-0.948-0.008-1.9,0.012-2.848-0.009
		c-0.333-0.008-0.433,0.093-0.428,0.427c0.016,1.559,0.007,3.116,0.007,4.672c0,1.544,0.009,3.088-0.006,4.632
		c-0.004,0.317,0.062,0.462,0.412,0.439c0.443-0.03,0.893-0.024,1.337-0.002c0.313,0.016,0.406-0.093,0.4-0.403
		c-0.014-1.305-0.003-2.613-0.006-3.918c0-0.213-0.029-0.418,0.302-0.407c0.271,0.006,0.385,0.078,0.419,0.375
		c0.159,1.372,0.351,2.739,0.523,4.11c0.019,0.167,0.082,0.239,0.247,0.237c0.577-0.002,1.156-0.002,1.735,0
		c0.191,0,0.246-0.062,0.208-0.273C75.96,128.265,75.739,126.992,75.537,125.714z M73.873,123.178
		c-0.111,0.281-0.893,0.454-1.122,0.283c-0.099-0.072-0.081-0.185-0.082-0.286c-0.001-0.267,0-0.532,0-0.799
		c0-0.147-0.02-0.3,0.006-0.443c0.035-0.196-0.138-0.468,0.159-0.577c0.371-0.136,0.866,0.021,1.021,0.321
		C74.106,122.17,74.068,122.683,73.873,123.178z"/>
	<path fill="#F1F2F2" d="M38.026,121.566c-0.169-0.934-0.594-1.654-1.584-1.919c-0.885-0.237-1.752-0.198-2.592,0.147
		c-0.279,0.115-0.514,0.323-0.705,0.582c-0.384,0.527-0.539,1.143-0.538,1.753c0.007,1.881-0.127,3.763,0.073,5.639
		c0.125,1.159,0.681,1.768,1.814,2.057c0.444,0.112,0.896,0.12,1.323,0.063c1.099-0.148,1.783-0.521,2.075-1.514
		c0.146-0.494,0.244-0.999,0.229-1.524c-0.02-0.698-0.005-1.396-0.005-2.296C38.063,123.693,38.212,122.624,38.026,121.566z
		 M35.899,127.561c-0.049,0.364-0.209,0.478-0.545,0.478c-0.342,0-0.511-0.11-0.546-0.478c-0.16-1.686-0.035-3.373-0.07-5.062
		c-0.004-0.22,0.06-0.438,0.075-0.657c0.021-0.326,0.195-0.486,0.511-0.494c0.333-0.007,0.515,0.165,0.567,0.494
		c0.157,0.94,0.041,1.891,0.09,2.836C35.933,125.639,36.031,126.599,35.899,127.561z"/>
	<path fill="#F1F2F2" d="M124.674,128.195c0.011-1.358-0.089-2.712-0.265-4.059c-0.176-1.327-0.535-2.592-1.126-3.798
		c-0.245-0.498-0.545-0.801-1.153-0.692c-0.303,0.056-0.622,0.014-0.934,0.01c-0.16-0.003-0.271,0.042-0.365,0.192
		c-0.482,0.771-0.824,1.601-1.059,2.476c-0.541,2.044-0.625,4.135-0.619,6.232c0.002,0.395-0.169,0.899,0.076,1.161
		c0.25,0.268,0.757,0.083,1.152,0.088c1.02,0.008,0.896,0.118,0.905-0.895c0.01-0.958-0.152-0.873,0.926-0.885
		c0.264-0.002,0.332,0.107,0.322,0.346c-0.014,0.37,0.01,0.742-0.008,1.113c-0.013,0.256,0.094,0.336,0.339,0.329
		c0.489-0.014,0.98-0.018,1.469,0c0.293,0.013,0.348-0.122,0.342-0.374C124.663,129.026,124.674,128.61,124.674,128.195z
		 M122.156,126.267c-0.812-0.016-0.787,0.005-0.793-0.773c-0.012-1.095,0.105-2.171,0.36-3.235c0.036-0.154,0.062-0.307,0.206-0.483
		c0.296,0.691,0.314,1.381,0.435,2.053c0.124,0.689,0.051,1.386,0.121,2.078C122.508,126.133,122.468,126.271,122.156,126.267z"/>
	<path fill="#F1F2F2" d="M105.177,124.767c-0.151-1.589-0.545-3.099-1.267-4.525c-0.203-0.405-0.438-0.668-0.946-0.594
		c-0.35,0.049-0.713,0.011-1.067,0.01c-0.153-0.001-0.292,0.008-0.375,0.171c-0.479,0.917-0.928,1.844-1.166,2.862
		c-0.457,1.968-0.486,3.975-0.527,5.976c-0.023,1.146-0.005,1.146,1.158,1.146c0.977,0,0.977,0,0.977-0.974
		c0-0.861,0-0.853,0.877-0.811c0.265,0.013,0.376,0.109,0.368,0.375c-0.009,0.354,0.008,0.711-0.005,1.067
		c-0.009,0.238,0.058,0.353,0.319,0.347c0.505-0.017,1.01-0.012,1.514-0.002c0.231,0.005,0.317-0.079,0.312-0.312
		c-0.009-0.501-0.001-1.008-0.002-1.512C105.369,126.911,105.281,125.841,105.177,124.767z M102.826,126.271
		c-0.849-0.078-0.836-0.047-0.797-0.897c0.045-1.048,0.143-2.088,0.376-3.113c0.038-0.17,0.057-0.347,0.221-0.544
		c0.302,0.677,0.275,1.369,0.412,2.022c0.145,0.706,0.059,1.429,0.164,2.139C103.241,126.152,103.205,126.305,102.826,126.271z"/>
</g>
</svg>
