<?xml version="1.0" encoding="utf-8"?>
<!-- Generator: Adobe Illustrator 16.0.0, SVG Export Plug-In . SVG Version: 6.00 Build 0)  -->
<!DOCTYPE svg PUBLIC "-//W3C//DTD SVG 1.1//EN" "http://www.w3.org/Graphics/SVG/1.1/DTD/svg11.dtd">
<svg version="1.1" id="Layer_1" xmlns="http://www.w3.org/2000/svg" xmlns:xlink="http://www.w3.org/1999/xlink" x="0px" y="0px"
	 width="150px" height="150px" viewBox="0 0 150 150" enable-background="new 0 0 150 150" xml:space="preserve">
<g>
	<g>
		<path fill="#F1F2F2" d="M7.326,105.223v-1.37h9.782v1.37h-4.076v10.862h-1.628v-10.862H7.326z"/>
		<path fill="#F1F2F2" d="M23.277,115.519c-0.664,0.503-1.499,0.754-2.501,0.754c-0.709,0-1.322-0.115-1.843-0.343
			c-0.52-0.23-0.957-0.549-1.311-0.959c-0.354-0.412-0.621-0.903-0.796-1.476c-0.179-0.569-0.277-1.193-0.3-1.865
			c0-0.675,0.102-1.29,0.308-1.852c0.205-0.56,0.493-1.046,0.864-1.456c0.371-0.411,0.811-0.73,1.319-0.959
			c0.507-0.229,1.065-0.344,1.671-0.344c0.788,0,1.441,0.163,1.963,0.489c0.519,0.324,0.934,0.739,1.25,1.241
			c0.312,0.502,0.529,1.05,0.649,1.645c0.121,0.596,0.168,1.16,0.146,1.696h-6.632c-0.01,0.389,0.036,0.756,0.138,1.105
			c0.103,0.351,0.268,0.657,0.497,0.924c0.229,0.27,0.52,0.483,0.873,0.644s0.771,0.24,1.252,0.24c0.616,0,1.121-0.144,1.517-0.43
			c0.394-0.283,0.652-0.719,0.778-1.302h1.438C24.368,114.268,23.938,115.016,23.277,115.519z M22.925,109.831
			c-0.131-0.309-0.308-0.575-0.53-0.796c-0.224-0.225-0.484-0.402-0.788-0.533c-0.302-0.129-0.638-0.195-1.003-0.195
			c-0.375,0-0.716,0.066-1.02,0.195c-0.302,0.132-0.562,0.31-0.779,0.54c-0.219,0.228-0.388,0.495-0.514,0.798
			c-0.125,0.303-0.2,0.624-0.223,0.968h5.088C23.134,110.466,23.057,110.139,22.925,109.831z"/>
		<path fill="#F1F2F2" d="M28.432,103.853v12.232h-1.456v-12.232H28.432z"/>
		<path fill="#F1F2F2" d="M37.649,115.519c-0.662,0.503-1.495,0.754-2.501,0.754c-0.71,0-1.321-0.115-1.842-0.343
			c-0.518-0.23-0.956-0.549-1.311-0.959c-0.355-0.412-0.619-0.903-0.797-1.476c-0.178-0.569-0.276-1.193-0.299-1.865
			c0-0.675,0.102-1.29,0.308-1.852c0.204-0.56,0.494-1.046,0.864-1.456c0.37-0.411,0.812-0.73,1.321-0.959
			c0.506-0.229,1.063-0.344,1.669-0.344c0.789,0,1.442,0.163,1.962,0.489c0.519,0.324,0.936,0.739,1.25,1.241
			c0.314,0.501,0.53,1.05,0.651,1.645c0.12,0.596,0.169,1.16,0.147,1.696h-6.631c-0.012,0.389,0.033,0.756,0.138,1.105
			c0.101,0.351,0.267,0.657,0.496,0.924c0.229,0.27,0.519,0.483,0.874,0.644c0.354,0.159,0.771,0.24,1.25,0.24
			c0.616,0,1.122-0.144,1.518-0.43c0.393-0.283,0.653-0.719,0.778-1.302h1.439C38.74,114.268,38.312,115.016,37.649,115.519z
			 M37.298,109.831c-0.133-0.309-0.309-0.575-0.53-0.796c-0.224-0.225-0.483-0.402-0.789-0.533
			c-0.305-0.129-0.637-0.195-1.001-0.195c-0.378,0-0.718,0.066-1.02,0.195c-0.304,0.132-0.563,0.31-0.778,0.54
			c-0.219,0.228-0.389,0.495-0.516,0.798c-0.126,0.303-0.199,0.624-0.223,0.968h5.089C37.506,110.466,37.431,110.139,37.298,109.831
			z"/>
		<path fill="#F1F2F2" d="M46.559,108.769c-0.366-0.308-0.858-0.462-1.473-0.462c-0.527,0-0.966,0.098-1.32,0.29
			c-0.354,0.195-0.636,0.453-0.849,0.772c-0.211,0.32-0.362,0.688-0.452,1.105c-0.093,0.417-0.138,0.849-0.138,1.291
			c0,0.413,0.049,0.811,0.145,1.2c0.098,0.388,0.25,0.734,0.453,1.038c0.208,0.302,0.476,0.544,0.807,0.728s0.725,0.273,1.182,0.273
			c0.72,0,1.282-0.187,1.687-0.564c0.406-0.377,0.653-0.908,0.747-1.594h1.491c-0.16,1.096-0.569,1.942-1.225,2.537
			c-0.658,0.593-1.552,0.891-2.684,0.891c-0.674,0-1.271-0.11-1.791-0.325c-0.519-0.218-0.953-0.525-1.3-0.926
			c-0.349-0.401-0.612-0.876-0.79-1.432c-0.177-0.554-0.264-1.162-0.264-1.826c0-0.661,0.085-1.281,0.258-1.856
			c0.171-0.577,0.43-1.078,0.78-1.508c0.346-0.428,0.783-0.765,1.31-1.012c0.524-0.245,1.136-0.367,1.834-0.367
			c0.502,0,0.971,0.059,1.413,0.181c0.438,0.117,0.827,0.306,1.165,0.556c0.336,0.252,0.612,0.568,0.83,0.949
			c0.217,0.383,0.354,0.837,0.409,1.362h-1.508C47.164,109.512,46.921,109.078,46.559,108.769z"/>
		<path fill="#F1F2F2" d="M50.945,109.839c0.181-0.565,0.454-1.056,0.819-1.474c0.365-0.416,0.818-0.745,1.354-0.985
			c0.536-0.24,1.155-0.359,1.852-0.359c0.708,0,1.328,0.121,1.857,0.359c0.532,0.238,0.979,0.569,1.347,0.985
			c0.365,0.418,0.64,0.908,0.822,1.474s0.273,1.172,0.273,1.825s-0.091,1.257-0.273,1.817c-0.184,0.557-0.457,1.046-0.822,1.462
			c-0.367,0.419-0.814,0.744-1.347,0.978c-0.529,0.233-1.149,0.352-1.857,0.352c-0.696,0-1.315-0.117-1.852-0.352
			c-0.535-0.233-0.988-0.559-1.354-0.978c-0.365-0.416-0.64-0.905-0.819-1.462c-0.185-0.561-0.276-1.164-0.276-1.817
			C50.669,111.013,50.76,110.404,50.945,109.839z M52.425,113.096c0.142,0.416,0.339,0.765,0.591,1.044
			c0.252,0.278,0.546,0.493,0.883,0.642c0.336,0.148,0.693,0.224,1.07,0.224s0.733-0.075,1.071-0.224
			c0.335-0.148,0.631-0.363,0.884-0.642c0.25-0.279,0.445-0.628,0.588-1.044c0.145-0.418,0.217-0.896,0.217-1.432
			c0-0.535-0.072-1.013-0.217-1.43c-0.143-0.417-0.338-0.769-0.588-1.056c-0.253-0.282-0.549-0.502-0.884-0.649
			c-0.337-0.148-0.693-0.223-1.071-0.223c-0.376,0-0.733,0.074-1.07,0.223c-0.337,0.147-0.631,0.367-0.883,0.649
			c-0.252,0.287-0.449,0.639-0.591,1.056c-0.143,0.417-0.214,0.894-0.214,1.43C52.211,112.203,52.282,112.678,52.425,113.096z"/>
		<path fill="#F1F2F2" d="M63.036,107.226v1.304h0.037c0.663-1.005,1.615-1.507,2.859-1.507c0.55,0,1.044,0.114,1.49,0.342
			c0.446,0.229,0.758,0.617,0.943,1.165c0.298-0.479,0.688-0.851,1.174-1.112c0.486-0.265,1.02-0.396,1.603-0.396
			c0.443,0,0.849,0.05,1.208,0.146s0.669,0.25,0.927,0.453c0.256,0.207,0.455,0.473,0.601,0.796
			c0.142,0.326,0.212,0.718,0.212,1.175v6.493h-1.456v-5.808c0-0.274-0.025-0.53-0.069-0.771c-0.046-0.24-0.13-0.448-0.257-0.626
			c-0.127-0.177-0.3-0.317-0.523-0.419c-0.223-0.104-0.51-0.154-0.865-0.154c-0.72,0-1.284,0.205-1.696,0.616
			c-0.41,0.411-0.616,0.958-0.616,1.645v5.517H67.15v-5.807c0-0.286-0.025-0.549-0.077-0.789c-0.053-0.24-0.14-0.449-0.265-0.626
			c-0.125-0.178-0.295-0.313-0.504-0.409c-0.213-0.099-0.483-0.146-0.815-0.146c-0.423,0-0.785,0.085-1.09,0.256
			c-0.302,0.171-0.547,0.379-0.735,0.617c-0.188,0.24-0.326,0.487-0.411,0.745c-0.086,0.256-0.128,0.471-0.128,0.642v5.518h-1.458
			v-8.858H63.036L63.036,107.226z"/>
		<path fill="#F1F2F2" d="M86.851,103.853c1.885,0,3.335,0.479,4.354,1.438c1.014,0.96,1.524,2.421,1.524,4.387
			c0,1.026-0.117,1.938-0.344,2.731c-0.229,0.794-0.581,1.462-1.062,2.005c-0.479,0.544-1.091,0.956-1.833,1.242
			c-0.743,0.285-1.621,0.428-2.639,0.428h-4.197v-12.231H86.851L86.851,103.853z M86.989,114.713c0.181,0,0.409-0.015,0.685-0.041
			c0.275-0.029,0.565-0.098,0.874-0.207c0.306-0.106,0.613-0.265,0.917-0.472c0.303-0.206,0.574-0.485,0.812-0.837
			c0.241-0.354,0.438-0.8,0.591-1.33c0.154-0.531,0.23-1.174,0.23-1.926c0-0.732-0.071-1.385-0.212-1.962
			c-0.145-0.576-0.379-1.068-0.703-1.473c-0.325-0.406-0.747-0.714-1.26-0.926c-0.514-0.211-1.146-0.316-1.902-0.316h-2.739v9.492
			h2.708L86.989,114.713L86.989,114.713z"/>
		<path fill="#F1F2F2" d="M95.246,105.635v-1.782H96.7v1.782H95.246z M96.7,107.226v8.859h-1.454v-8.859H96.7z"/>
		<path fill="#F1F2F2" d="M102.081,116.085l-3.288-8.859h1.625l2.484,7.386h0.036l2.415-7.386h1.526l-3.239,8.859H102.081z"/>
		<path fill="#F1F2F2" d="M108.985,105.635v-1.782h1.458v1.782H108.985z M110.443,107.226v8.859h-1.458v-8.859H110.443z"/>
		<path fill="#F1F2F2" d="M114.503,114.105c0.136,0.222,0.316,0.4,0.539,0.53c0.224,0.131,0.475,0.226,0.754,0.283
			c0.279,0.059,0.568,0.085,0.864,0.085c0.229,0,0.468-0.016,0.721-0.051c0.252-0.035,0.481-0.098,0.693-0.188
			c0.213-0.09,0.385-0.226,0.523-0.402c0.136-0.179,0.204-0.404,0.204-0.675c0-0.38-0.142-0.663-0.428-0.858
			c-0.285-0.194-0.644-0.351-1.069-0.474c-0.431-0.117-0.896-0.227-1.398-0.324c-0.503-0.096-0.968-0.234-1.396-0.411
			s-0.786-0.425-1.069-0.743c-0.287-0.32-0.429-0.767-0.429-1.338c0-0.447,0.098-0.829,0.299-1.147
			c0.198-0.32,0.457-0.578,0.771-0.778c0.312-0.201,0.668-0.35,1.062-0.446c0.393-0.097,0.784-0.146,1.175-0.146
			c0.501,0,0.965,0.042,1.387,0.13c0.423,0.086,0.797,0.233,1.122,0.444c0.326,0.211,0.585,0.496,0.779,0.857
			c0.194,0.358,0.309,0.807,0.343,1.343h-1.457c-0.022-0.284-0.097-0.523-0.224-0.708c-0.125-0.189-0.285-0.342-0.478-0.455
			c-0.195-0.114-0.409-0.197-0.643-0.248c-0.236-0.053-0.474-0.077-0.713-0.077c-0.216,0-0.437,0.016-0.659,0.051
			s-0.426,0.095-0.607,0.18c-0.183,0.086-0.332,0.2-0.446,0.343c-0.113,0.144-0.17,0.331-0.17,0.559
			c0,0.251,0.087,0.458,0.264,0.624c0.177,0.165,0.404,0.302,0.678,0.411s0.582,0.2,0.926,0.275c0.342,0.073,0.685,0.151,1.026,0.23
			c0.365,0.08,0.723,0.176,1.072,0.29c0.347,0.114,0.656,0.266,0.926,0.455c0.265,0.186,0.483,0.424,0.65,0.71
			c0.165,0.284,0.248,0.64,0.248,1.062c0,0.538-0.112,0.982-0.333,1.338c-0.224,0.354-0.514,0.639-0.874,0.856
			c-0.361,0.216-0.765,0.368-1.216,0.453c-0.451,0.087-0.899,0.129-1.346,0.129c-0.491,0-0.959-0.052-1.405-0.153
			c-0.444-0.103-0.84-0.271-1.182-0.506s-0.615-0.544-0.822-0.926c-0.205-0.381-0.319-0.847-0.342-1.396h1.458
			C114.29,113.611,114.365,113.882,114.503,114.105z"/>
		<path fill="#F1F2F2" d="M122.725,105.635v-1.782h1.457v1.782H122.725z M124.182,107.226v8.859h-1.458v-8.859H124.182z"/>
		<path fill="#F1F2F2" d="M126.922,109.839c0.184-0.565,0.459-1.056,0.823-1.474c0.365-0.416,0.816-0.745,1.353-0.985
			c0.539-0.24,1.155-0.359,1.852-0.359c0.708,0,1.328,0.121,1.858,0.359c0.532,0.238,0.979,0.569,1.345,0.985
			c0.366,0.418,0.64,0.908,0.822,1.474c0.184,0.565,0.274,1.172,0.274,1.825s-0.091,1.257-0.274,1.817
			c-0.183,0.557-0.456,1.046-0.822,1.462c-0.366,0.419-0.812,0.744-1.345,0.978c-0.53,0.233-1.15,0.352-1.858,0.352
			c-0.696,0-1.313-0.117-1.852-0.352c-0.536-0.233-0.987-0.559-1.353-0.978c-0.364-0.416-0.64-0.905-0.823-1.462
			c-0.182-0.561-0.273-1.164-0.273-1.817C126.648,111.013,126.74,110.404,126.922,109.839z M128.403,113.096
			c0.145,0.416,0.342,0.765,0.592,1.044c0.251,0.278,0.546,0.493,0.883,0.642c0.336,0.148,0.692,0.224,1.071,0.224
			c0.377,0,0.733-0.075,1.071-0.224c0.335-0.148,0.628-0.363,0.882-0.642c0.252-0.279,0.448-0.628,0.593-1.044
			c0.14-0.418,0.211-0.896,0.211-1.432c0-0.535-0.071-1.013-0.211-1.43c-0.145-0.417-0.341-0.769-0.593-1.056
			c-0.254-0.282-0.547-0.502-0.882-0.649c-0.336-0.148-0.695-0.223-1.071-0.223c-0.377,0-0.733,0.074-1.071,0.223
			c-0.337,0.147-0.632,0.367-0.883,0.649c-0.25,0.287-0.447,0.639-0.592,1.056c-0.142,0.417-0.213,0.894-0.213,1.43
			C128.19,112.203,128.262,112.678,128.403,113.096z"/>
		<path fill="#F1F2F2" d="M139.019,107.226v1.406h0.034c0.604-1.073,1.564-1.608,2.878-1.608c0.581,0,1.067,0.078,1.456,0.239
			c0.39,0.16,0.702,0.381,0.942,0.668c0.24,0.284,0.408,0.624,0.505,1.021c0.098,0.393,0.146,0.83,0.146,1.309v5.825h-1.457v-5.995
			c0-0.549-0.159-0.982-0.48-1.304c-0.317-0.317-0.756-0.477-1.318-0.477c-0.445,0-0.832,0.068-1.154,0.204
			c-0.325,0.137-0.6,0.332-0.814,0.582c-0.219,0.252-0.38,0.548-0.488,0.883c-0.11,0.337-0.163,0.705-0.163,1.104v5.003h-1.457
			v-8.859H139.019L139.019,107.226z"/>
	</g>
	<g>
		<rect x="3.987" y="92.615" fill="#F1F2F2" width="141.14" height="0.959"/>
	</g>
	<g>
		<path fill="#F1F2F2" d="M119.223,57.009h-7.944c-1.566,0-1.622-0.91-1.622-2.475l2.9-14.326c0-1.565,1.269-2.833,2.834-2.833
			h3.832c0.147,0,0.292,0.012,0.434,0.033h8.067c0,0,0.182,3.741-1.198,3.955c-2.103,0.326-8.377,0.454-8.377,0.454l-0.562,3.297
			h6.866c0,0-0.047,3.425-1.197,3.673c-1.011,0.216-6.545,0.078-6.545,0.078l-0.48,3.994l8.542,0.081c0,0,0.284,3.698-1.316,4.07
			c-1.014,0.235-12.175,0-12.175,0"/>
	</g>
	<g>
		<path fill="#F1F2F2" d="M131.006,37.938l-3.275,19h5.431l2.636-15.248c0,0,2.953-1.677,4.39,0.637
			c1.436,2.315-0.971,3.678-2.967,3.439c-1.998-0.239-2.045,3.26-0.348,3.427c1.312,0.128,2.514,0.479,2.274,2.954
			c-0.237,2.474-0.797,4.791-0.797,4.791h4.709c0,0,0.639-4.632,0.798-6.706c0.16-2.077-2.075-2.874-2.314-2.794
			c0,0,4.471-0.72,4.471-5.509C146.013,35.935,134.917,37.378,131.006,37.938z"/>
	</g>
	<g>
		<path fill="#F1F2F2" d="M88.206,79.104c-0.902,0.355-1.811,0.534-2.727,0.534c-1.163,0-2.203-0.215-3.118-0.644
			c-0.917-0.43-1.695-1.008-2.335-1.734c-0.641-0.727-1.127-1.564-1.462-2.508c-0.334-0.945-0.502-1.927-0.502-2.945
			c0-1.133,0.157-2.213,0.469-3.24c0.313-1.025,0.778-1.922,1.397-2.693c0.617-0.771,1.389-1.385,2.312-1.845
			c0.923-0.457,2.003-0.686,3.239-0.686c0.843,0,1.639,0.097,2.389,0.294c0.749,0.197,1.417,0.506,2.006,0.926
			c0.589,0.423,1.082,0.957,1.483,1.604c0.401,0.647,0.673,1.429,0.818,2.346h-2.072c-0.102-0.597-0.293-1.11-0.566-1.538
			c-0.277-0.43-0.62-0.782-1.025-1.06c-0.406-0.274-0.868-0.481-1.385-0.621c-0.517-0.138-1.066-0.208-1.647-0.208
			c-0.944,0-1.754,0.19-2.432,0.568s-1.229,0.875-1.657,1.494c-0.429,0.618-0.748,1.322-0.95,2.116
			c-0.203,0.793-0.306,1.604-0.306,2.431c0,0.815,0.118,1.597,0.351,2.344c0.232,0.749,0.575,1.412,1.025,1.988
			c0.45,0.572,1.007,1.031,1.668,1.374c0.66,0.341,1.429,0.512,2.303,0.512c0.814,0,1.531-0.132,2.159-0.394
			c0.625-0.261,1.151-0.621,1.581-1.077c0.429-0.461,0.751-1,0.971-1.617c0.217-0.617,0.312-1.284,0.282-1.995h-4.973v-1.745h6.828
			v8.201H91.02l-0.547-1.94C89.864,78.163,89.107,78.749,88.206,79.104z"/>
		<path fill="#F1F2F2" d="M97.629,68.013v2.377h0.043c0.451-0.916,1.003-1.592,1.658-2.029c0.653-0.435,1.483-0.639,2.486-0.61
			v1.964c-0.742,0-1.374,0.103-1.897,0.304c-0.522,0.203-0.946,0.502-1.266,0.896c-0.32,0.393-0.552,0.87-0.698,1.428
			c-0.145,0.56-0.218,1.203-0.218,1.931v5.015h-1.853V68.013H97.629z"/>
		<path fill="#F1F2F2" d="M103.432,71.339c0.231-0.722,0.582-1.344,1.045-1.877c0.467-0.529,1.039-0.948,1.725-1.254
			c0.684-0.305,1.469-0.458,2.356-0.458c0.901,0,1.688,0.153,2.365,0.458c0.677,0.306,1.248,0.724,1.714,1.254
			c0.465,0.531,0.812,1.156,1.046,1.877c0.231,0.72,0.35,1.494,0.35,2.321c0,0.829-0.118,1.601-0.35,2.312
			c-0.233,0.714-0.581,1.334-1.046,1.866c-0.467,0.529-1.037,0.944-1.714,1.242c-0.675,0.3-1.464,0.449-2.365,0.449
			c-0.888,0-1.675-0.149-2.356-0.449c-0.683-0.298-1.258-0.711-1.725-1.242c-0.464-0.531-0.813-1.151-1.045-1.866
			c-0.233-0.712-0.351-1.483-0.351-2.312C103.081,72.833,103.197,72.058,103.432,71.339z M105.317,75.483
			c0.182,0.53,0.433,0.974,0.753,1.332c0.319,0.354,0.694,0.628,1.123,0.816c0.428,0.189,0.886,0.283,1.364,0.283
			c0.478,0,0.934-0.093,1.36-0.283c0.43-0.189,0.805-0.462,1.126-0.816c0.317-0.357,0.568-0.802,0.751-1.332
			c0.182-0.53,0.271-1.138,0.271-1.823c0-0.683-0.09-1.289-0.271-1.821c-0.183-0.53-0.434-0.977-0.751-1.341
			c-0.321-0.363-0.696-0.639-1.126-0.829c-0.428-0.188-0.883-0.282-1.36-0.282c-0.479,0-0.937,0.094-1.364,0.282
			c-0.43,0.189-0.804,0.465-1.123,0.829c-0.32,0.364-0.571,0.812-0.753,1.341c-0.182,0.531-0.271,1.139-0.271,1.821
			C105.046,74.346,105.136,74.952,105.317,75.483z"/>
		<path fill="#F1F2F2" d="M124.676,79.29v-1.788h-0.044c-0.393,0.698-0.893,1.21-1.504,1.538c-0.611,0.327-1.33,0.49-2.159,0.49
			c-0.742,0-1.362-0.098-1.856-0.294c-0.492-0.196-0.894-0.477-1.198-0.84c-0.305-0.362-0.52-0.797-0.644-1.299
			c-0.124-0.501-0.185-1.057-0.185-1.667v-7.417h1.852v7.636c0,0.698,0.204,1.25,0.611,1.657c0.409,0.408,0.968,0.611,1.68,0.611
			c0.569,0,1.06-0.089,1.473-0.262c0.415-0.175,0.759-0.422,1.038-0.741c0.275-0.321,0.483-0.696,0.62-1.125
			c0.139-0.43,0.209-0.896,0.209-1.405v-6.371h1.853V79.29H124.676z"/>
		<path fill="#F1F2F2" d="M132.006,68.013v1.527h0.043c0.305-0.625,0.786-1.08,1.438-1.363c0.654-0.284,1.376-0.426,2.162-0.426
			c0.871,0,1.632,0.161,2.279,0.481c0.646,0.321,1.185,0.752,1.613,1.298c0.429,0.545,0.752,1.173,0.97,1.886
			s0.327,1.469,0.327,2.268c0,0.801-0.107,1.557-0.317,2.27c-0.21,0.711-0.529,1.334-0.958,1.865
			c-0.429,0.532-0.969,0.949-1.614,1.254c-0.647,0.305-1.4,0.458-2.257,0.458c-0.277,0-0.588-0.029-0.93-0.087
			c-0.34-0.059-0.68-0.154-1.014-0.282c-0.334-0.132-0.65-0.309-0.947-0.533c-0.301-0.228-0.552-0.508-0.753-0.841h-0.045v5.801
			h-1.854V68.013H132.006z M138.668,72.013c-0.137-0.5-0.349-0.946-0.632-1.339c-0.283-0.392-0.648-0.704-1.091-0.938
			c-0.443-0.232-0.964-0.35-1.559-0.35c-0.626,0-1.156,0.124-1.594,0.37c-0.436,0.247-0.793,0.571-1.068,0.971
			c-0.277,0.4-0.477,0.855-0.601,1.363c-0.123,0.51-0.185,1.025-0.185,1.55c0,0.552,0.064,1.087,0.196,1.602
			c0.129,0.516,0.336,0.971,0.621,1.363c0.284,0.394,0.65,0.708,1.101,0.95c0.451,0.239,0.997,0.358,1.637,0.358
			c0.642,0,1.174-0.124,1.604-0.371c0.428-0.246,0.773-0.573,1.036-0.981c0.262-0.406,0.449-0.873,0.566-1.396
			c0.118-0.522,0.175-1.061,0.175-1.613C138.876,73.029,138.808,72.517,138.668,72.013z"/>
	</g>
	<g>
		<path fill="#F1F2F2" d="M57.399,84c-5.956,0.041-8.843-3.022-7.913-9.13c1.366-8.999,3.13-17.938,4.717-26.904
			c0.278-1.566,0.487-3.146,0.788-4.706c1.257-6.523,6.391-10.253,12.928-9.419c4.532,0.578,6.985,4.306,6.092,9.396
			c-1.08,6.156-2.237,12.3-3.347,18.451c-0.81,4.481-1.526,8.98-2.409,13.448C67.205,80.454,62.831,83.962,57.399,84z"/>
	</g>
	<g>
		<path fill="#F1F2F2" d="M36.645,84c-5.957,0.041-8.843-3.022-7.914-9.13c1.366-8.999,3.129-17.938,4.718-26.904
			c0.277-1.566,0.486-3.146,0.79-4.706c1.255-6.523,6.387-10.253,12.924-9.419c4.534,0.578,6.986,4.306,6.093,9.396
			c-1.08,6.156-2.236,12.3-3.346,18.451c-0.81,4.481-1.529,8.98-2.411,13.448C46.449,80.454,42.074,83.962,36.645,84z"/>
	</g>
	<g>
		<path fill="#F1F2F2" d="M15.917,84c-5.958,0.041-8.842-3.022-7.913-9.13c1.367-8.999,3.129-17.938,4.717-26.904
			C13,46.4,13.208,44.82,13.509,43.26c1.257-6.523,6.391-10.253,12.927-9.419c4.533,0.578,6.986,4.306,6.093,9.396
			c-1.08,6.156-2.237,12.3-3.348,18.451c-0.809,4.481-1.527,8.98-2.409,13.448C25.722,80.454,21.349,83.962,15.917,84z"/>
	</g>
	<g>
		<path fill="#F1F2F2" d="M108.73,38.693c-0.354-0.452-1.084-0.68-2.174-0.68h-2.773c-1.536,0-2.449,0.193-3.169,1.25l-5.585,8.117
			l-1.613-8.047c-0.146-0.773-0.411-1.319-2.5-1.319h-2.203c-2.131,0-3.404,0.97-3.894,2.965l-3.236,13.104
			c-0.211,0.863-0.145,1.526,0.206,1.974c0.382,0.488,1.129,0.746,2.162,0.746h0.995c2.07,0,2.995-0.775,3.538-2.966l2.304-9.216
			l0.59,7.579c0.008,0.086,0.011,0.227,0.017,0.404c0.068,2.668,0.776,3.822,2.368,3.857h0.079c0.646,0,1.148-0.128,1.608-0.538
			l4.623-9.393l0,0l0.353-0.616l-1.704,8.146c-0.218,0.882-0.15,1.549,0.199,1.998c0.382,0.488,1.13,0.746,2.163,0.746h0.995
			c2.069,0,2.993-0.776,3.54-2.966l3.268-13.165C109.107,39.771,109.054,39.105,108.73,38.693z"/>
	</g>
</g>
</svg>
