<?xml version="1.0" encoding="utf-8"?>
<!-- Generator: Adobe Illustrator 16.0.0, SVG Export Plug-In . SVG Version: 6.00 Build 0)  -->
<!DOCTYPE svg PUBLIC "-//W3C//DTD SVG 1.1//EN" "http://www.w3.org/Graphics/SVG/1.1/DTD/svg11.dtd">
<svg version="1.1" id="Layer_1" xmlns="http://www.w3.org/2000/svg" xmlns:xlink="http://www.w3.org/1999/xlink" x="0px" y="0px"
	 width="162.5px" height="150px" viewBox="0 0 162.5 150" enable-background="new 0 0 162.5 150" xml:space="preserve">
<g>
	<path fill="#F1F2F2" d="M31.724,72.311c1.139-2.48,2.506-3.619,4.7-3.619c2.022,0,3.104,0.912,3.39,2.68
		c1.027-1.879,2.278-2.68,4.103-2.68c0.476,0,0.888,0.062,1.265,0.156C42.49,59.129,33.586,51.99,23.01,51.99
		C10.302,51.99,0,62.293,0,75c0,2.658,0.456,5.209,1.284,7.582l1.326-6.883c0.057-0.268,0.104-0.525,0.144-0.775l1.003-5.826
		l3.367-0.406l-0.923,4.357l0.371-0.797c1.589-2.746,3.293-3.533,5.059-3.533c2.849,0,3.401,2.562,3.401,4.871
		c0,5.441-2.877,9.656-8.177,9.656c-0.484,0-0.94-0.057-1.339-0.111L4.46,88.609c4.188,5.699,10.937,9.4,18.55,9.4
		c9.897,0,18.333-6.252,21.583-15.018h-2.898c-0.199-1.141-0.199-1.68-0.199-2.166c0-2.707,1.509-5.27,1.509-7.607
		c0-0.512-0.171-0.883-0.626-0.883c-1.367,0-2.735,3.305-3.247,5.867l-0.913,4.789h-4.417l1.453-7.293
		c0.173-0.939,0.286-1.824,0.286-2.479c0-0.512-0.172-0.883-0.657-0.883c-1.337,0-2.734,3.305-3.248,5.898l-0.911,4.758H26.31
		l1.454-7.295c0.087-0.414,0.151-0.807,0.195-1.172l1.115-5.834h3.209l-0.93,4.416L31.724,72.311z M26.252,72.338h-3.019
		l-1.196,6.041c-0.058,0.197-0.085,0.654-0.085,0.855c0,0.369,0.049,0.871,0.705,0.871c0.712,0,2.372-0.15,2.372-0.15v2.582
		c0,0-1.766,0.654-4.073,0.654c-2.622,0-3.619-0.969-3.619-2.734c0-0.285,0.058-0.74,0.114-1.084l1.424-7.035h-2.106v-3.305h2.792
		l1.168-3.277l3.839-0.275l-0.705,3.553h2.906L26.252,72.338z"/>
	<path fill="#F1F2F2" d="M11.347,74.336c0-0.797-0.397-1.992-1.564-1.992c-1.447,0-2.587,3.215-3.384,6.576L6.17,79.857
		c0.286,0.088,0.513,0.105,0.883,0.117C10.251,80.055,11.347,76.332,11.347,74.336z"/>
	<path fill="#F1F2F2" d="M55.532,65.15c0.186,0,0.302-0.111,0.354-0.332l0.721-3.172h1.583c0.708,0,1.352-0.322,1.925-0.969
		c0.585-0.658,0.878-1.396,0.878-2.225c0-0.604-0.173-1.098-0.515-1.482c-0.344-0.383-0.772-0.576-1.288-0.576h-1.868
		c-0.127,0-0.25,0.109-0.361,0.334c-0.018,0.029-0.322,1.355-0.918,3.98c-0.594,2.621-0.894,3.963-0.894,4.023
		C55.149,65.01,55.278,65.15,55.532,65.15z M57.604,57.27h1.584c0.312,0,0.566,0.105,0.765,0.32
		c0.198,0.215,0.295,0.502,0.295,0.863c0,0.586-0.218,1.117-0.656,1.598c-0.435,0.48-0.901,0.721-1.404,0.721H56.81L57.604,57.27z"
		/>
	<path fill="#F1F2F2" d="M75.101,59.75c0-0.992-0.278-1.799-0.84-2.422c-0.559-0.621-1.261-0.936-2.111-0.936
		c-1.193,0-2.28,0.551-3.263,1.646c-0.991,1.113-1.489,2.365-1.489,3.754c0,0.992,0.284,1.803,0.847,2.428
		c0.554,0.619,1.255,0.93,2.105,0.93c1.189,0,2.276-0.549,3.258-1.648C74.604,62.391,75.101,61.141,75.101,59.75z M73.079,62.889
		c-0.833,0.926-1.745,1.387-2.729,1.387c-0.644,0-1.17-0.223-1.579-0.67c-0.417-0.455-0.626-1.061-0.626-1.811
		c0-1.148,0.424-2.193,1.27-3.135c0.836-0.93,1.748-1.391,2.735-1.391c0.646,0,1.171,0.225,1.584,0.676
		c0.412,0.451,0.621,1.053,0.621,1.805C74.355,60.9,73.932,61.945,73.079,62.889z"/>
	<path fill="#F1F2F2" d="M78.576,60.818l-0.859,3.777c-0.01,0.043-0.014,0.086-0.014,0.131c0,0.283,0.128,0.424,0.388,0.424
		c0.181,0,0.298-0.111,0.348-0.332l0.87-3.816l3.432-3.855c0.084-0.088,0.128-0.191,0.128-0.307c0-0.119-0.038-0.225-0.115-0.314
		c-0.078-0.088-0.168-0.133-0.268-0.133c-0.095,0-0.18,0.043-0.261,0.129l-3.147,3.525l-1.477-3.41
		c-0.071-0.164-0.18-0.246-0.323-0.246c-0.101,0-0.192,0.045-0.271,0.129c-0.08,0.082-0.121,0.186-0.121,0.307
		c0,0.068,0.016,0.139,0.045,0.207L78.576,60.818z"/>
	<path fill="#F1F2F2" d="M88.215,56.393h-3.729c-0.166,0-0.288,0.111-0.363,0.334c-0.02,0.057-0.326,1.373-0.916,3.947
		c-0.6,2.617-0.899,3.973-0.899,4.066c0,0.273,0.124,0.41,0.375,0.41h3.733c0.247,0,0.372-0.145,0.372-0.438
		c0-0.291-0.125-0.439-0.372-0.439h-3.243l0.695-3.064h2.703c0.249,0,0.372-0.146,0.372-0.438s-0.123-0.436-0.372-0.436h-2.495
		l0.697-3.066h3.445c0.248,0,0.372-0.148,0.372-0.439C88.59,56.539,88.464,56.393,88.215,56.393z"/>
	<path fill="#F1F2F2" d="M93.053,64.805c0.574-0.242,1.024-0.543,1.341-0.906c0.099-0.109,0.15-0.221,0.15-0.334
		c0-0.117-0.036-0.221-0.112-0.314c-0.074-0.094-0.163-0.141-0.265-0.141c-0.068,0-0.146,0.037-0.233,0.105
		c-0.486,0.371-0.861,0.625-1.128,0.758c-0.407,0.201-0.833,0.303-1.275,0.303c-0.644,0-1.17-0.223-1.577-0.67
		c-0.416-0.457-0.625-1.061-0.625-1.812c0-1.146,0.422-2.193,1.268-3.133c0.836-0.93,1.746-1.393,2.734-1.393
		c0.653,0,1.189,0.234,1.604,0.697c0.092,0.121,0.16,0.215,0.204,0.279c0.098,0.129,0.197,0.189,0.294,0.189
		c0.099,0,0.187-0.043,0.266-0.131c0.084-0.088,0.122-0.193,0.122-0.314c0-0.084-0.028-0.172-0.08-0.264
		c-0.256-0.43-0.61-0.768-1.064-1.006c-0.418-0.219-0.865-0.328-1.345-0.328c-1.192,0-2.28,0.551-3.261,1.646
		c-0.992,1.115-1.488,2.365-1.488,3.756c0,0.992,0.284,1.801,0.847,2.428c0.547,0.619,1.253,0.928,2.104,0.928
		C91.996,65.15,92.503,65.035,93.053,64.805z"/>
	<path fill="#F1F2F2" d="M97.453,57.27h1.753l-1.673,7.332c-0.012,0.043-0.017,0.084-0.017,0.127c0,0.281,0.132,0.422,0.39,0.422
		c0.182,0,0.299-0.111,0.349-0.332l1.728-7.551h1.947c0.249,0,0.372-0.146,0.372-0.438s-0.123-0.438-0.372-0.438h-4.477
		c-0.247,0-0.372,0.146-0.372,0.438S97.206,57.27,97.453,57.27z"/>
	<path fill="#F1F2F2" d="M102.891,64.223c0.556,0.619,1.256,0.928,2.104,0.928c1.188,0,2.278-0.549,3.259-1.646
		c0.994-1.113,1.493-2.363,1.493-3.754c0-0.992-0.281-1.799-0.839-2.422c-0.559-0.621-1.263-0.936-2.111-0.936
		c-1.193,0-2.281,0.551-3.263,1.646c-0.992,1.113-1.489,2.365-1.489,3.754C102.045,62.785,102.327,63.596,102.891,64.223z
		 M104.06,58.66c0.834-0.93,1.748-1.391,2.737-1.391c0.644,0,1.171,0.225,1.584,0.676s0.62,1.053,0.62,1.805
		c0,1.148-0.427,2.191-1.275,3.137c-0.835,0.926-1.746,1.387-2.73,1.387c-0.645,0-1.172-0.221-1.577-0.668
		c-0.416-0.457-0.628-1.061-0.628-1.812C102.79,60.645,103.214,59.6,104.06,58.66z"/>
	<path fill="#F1F2F2" d="M111.724,65.15c0.71,0,1.357-0.324,1.938-0.977c0.58-0.65,0.869-1.391,0.869-2.217
		c0-0.604-0.174-1.096-0.516-1.482c-0.343-0.385-0.772-0.576-1.29-0.576c-0.224,0-0.411-0.078-0.553-0.232
		c-0.147-0.152-0.217-0.363-0.217-0.627c0-0.449,0.167-0.854,0.497-1.223c0.336-0.365,0.69-0.547,1.075-0.547
		c0.31,0,0.536,0.145,0.678,0.436c0.14,0.291,0.273,0.438,0.399,0.438c0.261,0,0.386-0.141,0.386-0.422
		c0-0.057-0.005-0.105-0.017-0.152c-0.234-0.783-0.717-1.176-1.446-1.176c-0.589,0-1.12,0.264-1.599,0.799
		c-0.48,0.547-0.72,1.162-0.72,1.846c0,0.508,0.144,0.922,0.437,1.248c0.287,0.322,0.646,0.486,1.079,0.486
		c0.314,0,0.565,0.105,0.767,0.32c0.194,0.215,0.294,0.504,0.294,0.865c0,0.584-0.217,1.115-0.652,1.596
		c-0.435,0.482-0.902,0.721-1.407,0.721c-0.423,0-0.73-0.186-0.921-0.557c-0.048-0.123-0.097-0.242-0.144-0.363
		c-0.063-0.121-0.161-0.182-0.289-0.182c-0.259,0-0.386,0.139-0.386,0.42c0,0.053,0.007,0.102,0.018,0.148
		C110.271,64.682,110.847,65.15,111.724,65.15z"/>
	<path fill="#F1F2F2" d="M55.523,79.379h2.239c1.189,0,2.275-0.547,3.257-1.646c0.995-1.111,1.493-2.365,1.493-3.756
		c0-0.99-0.279-1.797-0.839-2.42c-0.561-0.623-1.262-0.934-2.11-0.934h-2.241c-0.069,0-0.141,0.033-0.217,0.105
		c-0.078,0.07-0.125,0.148-0.146,0.227l-1.796,7.877c-0.015,0.045-0.02,0.092-0.02,0.137C55.144,79.244,55.271,79.379,55.523,79.379
		z M57.608,71.496h1.957c0.64,0,1.17,0.227,1.582,0.678c0.413,0.451,0.62,1.053,0.62,1.803c0,1.15-0.423,2.195-1.271,3.139
		c-0.837,0.926-1.75,1.389-2.732,1.389H56.01L57.608,71.496z"/>
	<path fill="#F1F2F2" d="M67.475,78.941c0-0.293-0.125-0.438-0.373-0.438h-3.241l0.695-3.066h2.702c0.25,0,0.372-0.145,0.372-0.438
		c0-0.289-0.123-0.436-0.372-0.436h-2.494l0.692-3.068h3.45c0.247,0,0.372-0.145,0.372-0.438c0-0.289-0.127-0.436-0.375-0.436h-3.73
		c-0.164,0-0.286,0.109-0.361,0.332c-0.023,0.057-0.326,1.377-0.918,3.947c-0.597,2.619-0.898,3.975-0.898,4.068
		c0,0.273,0.123,0.408,0.378,0.408h3.729C67.35,79.379,67.475,79.234,67.475,78.941z"/>
	<path fill="#F1F2F2" d="M74.495,79.045l1.727-7.549h1.948c0.247,0,0.372-0.145,0.372-0.439c0-0.289-0.125-0.436-0.372-0.436h-4.477
		c-0.248,0-0.375,0.146-0.375,0.436c0,0.295,0.126,0.439,0.375,0.439h1.751l-1.671,7.336c-0.012,0.039-0.016,0.082-0.016,0.125
		c0,0.281,0.13,0.422,0.39,0.422C74.33,79.379,74.444,79.268,74.495,79.045z"/>
	<path fill="#F1F2F2" d="M83.908,71.496c0.243,0,0.371-0.145,0.371-0.438c0-0.291-0.128-0.436-0.375-0.436h-3.729
		c-0.165,0-0.287,0.109-0.362,0.332c-0.02,0.057-0.326,1.375-0.915,3.947c-0.601,2.619-0.9,3.975-0.9,4.066
		c0,0.275,0.124,0.41,0.379,0.41h3.729c0.247,0,0.373-0.145,0.373-0.438s-0.126-0.436-0.373-0.436h-3.243l0.696-3.068h2.701
		c0.25,0,0.37-0.145,0.37-0.438c0-0.291-0.121-0.436-0.37-0.436h-2.492l0.695-3.068H83.908L83.908,71.496z"/>
	<path fill="#F1F2F2" d="M88.088,78.504h-3.244l1.678-7.328c0.008-0.041,0.01-0.086,0.01-0.129c0-0.283-0.127-0.424-0.383-0.424
		c-0.186,0-0.305,0.109-0.353,0.33L84,78.832c-0.014,0.045-0.021,0.092-0.021,0.137c0,0.273,0.124,0.408,0.378,0.408h3.732
		c0.247,0,0.371-0.143,0.371-0.436S88.335,78.504,88.088,78.504z"/>
	<path fill="#F1F2F2" d="M91.773,70.953c-0.02,0.059-0.325,1.377-0.917,3.949c-0.6,2.617-0.9,3.975-0.9,4.066
		c0,0.273,0.125,0.41,0.38,0.41h3.73c0.248,0,0.373-0.145,0.373-0.438s-0.125-0.438-0.373-0.438h-3.242l0.694-3.066h2.702
		c0.249,0,0.372-0.145,0.372-0.438c0-0.289-0.123-0.436-0.372-0.436h-2.493l0.693-3.068h3.446c0.251,0,0.373-0.145,0.373-0.438
		c0-0.289-0.126-0.436-0.374-0.436h-3.729C91.971,70.621,91.849,70.732,91.773,70.953z"/>
	<path fill="#F1F2F2" d="M102.322,70.949c-0.416-0.221-0.864-0.326-1.342-0.326c-1.195,0-2.281,0.547-3.264,1.645
		c-0.992,1.113-1.488,2.365-1.488,3.754c0,0.994,0.286,1.803,0.847,2.43c0.55,0.617,1.253,0.928,2.104,0.928
		c0.469,0,0.974-0.115,1.522-0.344c0.576-0.242,1.023-0.545,1.343-0.908c0.099-0.107,0.148-0.219,0.148-0.334
		c0-0.117-0.035-0.221-0.108-0.312c-0.077-0.096-0.165-0.143-0.268-0.143c-0.066,0-0.146,0.037-0.234,0.105
		c-0.48,0.371-0.861,0.623-1.129,0.756c-0.404,0.201-0.828,0.307-1.273,0.307c-0.644,0-1.171-0.227-1.577-0.674
		c-0.417-0.455-0.627-1.059-0.627-1.811c0-1.148,0.425-2.193,1.271-3.137c0.837-0.926,1.744-1.389,2.734-1.389
		c0.653,0,1.188,0.232,1.602,0.695c0.093,0.121,0.162,0.215,0.205,0.283c0.097,0.125,0.197,0.186,0.292,0.186
		c0.1,0,0.189-0.041,0.268-0.131c0.082-0.086,0.122-0.191,0.122-0.311c0-0.086-0.028-0.176-0.08-0.268
		C103.132,71.521,102.776,71.188,102.322,70.949z"/>
	<path fill="#F1F2F2" d="M106.666,79.379c1.189,0,2.275-0.547,3.256-1.646c0.997-1.111,1.495-2.365,1.495-3.756
		c0-0.99-0.279-1.797-0.839-2.42c-0.559-0.623-1.262-0.934-2.111-0.934c-1.192,0-2.283,0.547-3.263,1.645
		c-0.988,1.113-1.484,2.365-1.484,3.754c0,0.994,0.279,1.803,0.847,2.43C105.114,79.068,105.816,79.379,106.666,79.379z
		 M105.73,72.885c0.837-0.926,1.75-1.389,2.735-1.389c0.644,0,1.171,0.227,1.586,0.678c0.412,0.451,0.619,1.053,0.619,1.803
		c0,1.15-0.426,2.195-1.274,3.139c-0.836,0.926-1.746,1.389-2.73,1.389c-0.646,0-1.169-0.225-1.577-0.67
		c-0.418-0.457-0.626-1.061-0.626-1.812C104.461,74.873,104.886,73.826,105.73,72.885z"/>
	<path fill="#F1F2F2" d="M119.61,78.957l0.304-7.805c0-0.008,0.002-0.021,0.003-0.041c0.006-0.021,0.006-0.035,0.006-0.047
		c0-0.295-0.129-0.441-0.387-0.441c-0.123,0-0.233,0.082-0.332,0.25l-3.076,5.182l-0.685-4.992
		c-0.037-0.293-0.168-0.439-0.385-0.439c-0.15,0-0.268,0.105-0.354,0.314l-3.269,7.807c-0.027,0.068-0.04,0.137-0.04,0.203
		c0,0.119,0.04,0.221,0.118,0.305c0.079,0.084,0.167,0.127,0.27,0.127c0.145,0,0.255-0.084,0.324-0.25l2.776-6.635l0.638,4.682
		c0.044,0.303,0.171,0.453,0.385,0.453c0.128,0,0.241-0.086,0.345-0.262l2.86-4.811l-0.247,6.367v0.027
		c-0.009,0.285,0.115,0.428,0.37,0.428C119.471,79.379,119.595,79.238,119.61,78.957z"/>
	<path fill="#F1F2F2" d="M125.45,77.367l2.863-4.811l-0.251,6.367v0.027c-0.006,0.285,0.119,0.428,0.375,0.428
		c0.233,0,0.359-0.141,0.373-0.422l0.303-7.805c0-0.008,0.002-0.02,0.008-0.041c0-0.02,0.003-0.035,0.003-0.047
		c0-0.293-0.13-0.441-0.386-0.441c-0.124,0-0.232,0.082-0.333,0.25l-3.076,5.182l-0.683-4.99c-0.039-0.295-0.173-0.441-0.385-0.441
		c-0.15,0-0.269,0.105-0.356,0.314l-3.269,7.807c-0.024,0.07-0.038,0.139-0.038,0.203c0,0.119,0.038,0.221,0.116,0.307
		c0.078,0.082,0.169,0.125,0.271,0.125c0.147,0,0.256-0.084,0.323-0.25l2.776-6.635l0.642,4.682c0.04,0.303,0.168,0.453,0.383,0.453
		C125.234,77.629,125.35,77.543,125.45,77.367z"/>
	<path fill="#F1F2F2" d="M62.787,84.85c-0.124,0-0.233,0.084-0.333,0.252l-3.075,5.184l-0.685-4.992
		c-0.039-0.297-0.17-0.443-0.384-0.443c-0.15,0-0.266,0.107-0.355,0.316l-3.268,7.805c-0.026,0.07-0.039,0.139-0.039,0.205
		c0,0.121,0.039,0.223,0.116,0.307c0.079,0.084,0.168,0.125,0.268,0.125c0.148,0,0.257-0.084,0.327-0.252l2.774-6.631l0.643,4.68
		c0.04,0.303,0.167,0.453,0.381,0.453c0.127,0,0.243-0.086,0.345-0.262l2.86-4.809l-0.25,6.367v0.027
		c-0.004,0.285,0.117,0.426,0.374,0.426c0.235,0,0.36-0.141,0.375-0.42l0.303-7.805c0-0.01,0-0.021,0.004-0.043
		c0.004-0.02,0.006-0.033,0.006-0.047C63.173,84.996,63.044,84.85,62.787,84.85z"/>
	<path fill="#F1F2F2" d="M69.391,84.85c-1.193,0-2.282,0.547-3.263,1.646c-0.992,1.113-1.489,2.365-1.489,3.754
		c0,0.992,0.284,1.803,0.847,2.43c0.552,0.615,1.254,0.926,2.106,0.926c1.188,0,2.277-0.549,3.257-1.646
		c0.996-1.113,1.493-2.363,1.493-3.752c0-0.992-0.278-1.803-0.837-2.424C70.942,85.16,70.239,84.85,69.391,84.85z M70.32,91.342
		c-0.835,0.928-1.746,1.391-2.729,1.391c-0.646,0-1.173-0.225-1.579-0.672c-0.417-0.455-0.626-1.057-0.626-1.811
		c0-1.15,0.423-2.195,1.269-3.137c0.836-0.926,1.748-1.389,2.737-1.389c0.644,0,1.169,0.227,1.584,0.678
		c0.412,0.451,0.619,1.051,0.619,1.805C71.593,89.354,71.168,90.4,70.32,91.342z"/>
	<path fill="#F1F2F2" d="M68.739,83.527c0,0.119,0.033,0.227,0.104,0.318c0.071,0.094,0.157,0.141,0.256,0.141
		c0.055,0,0.112-0.014,0.165-0.045l1.691-0.873c0.151-0.078,0.23-0.205,0.23-0.385c0-0.119-0.036-0.227-0.107-0.318
		c-0.072-0.094-0.158-0.141-0.255-0.141c-0.056,0-0.108,0.014-0.166,0.041l-1.689,0.877C68.815,83.219,68.739,83.348,68.739,83.527z
		"/>
	<path fill="#F1F2F2" d="M81.599,85.287c0-0.117-0.044-0.219-0.12-0.305c-0.077-0.09-0.169-0.133-0.269-0.133
		c-0.114,0-0.209,0.059-0.288,0.176l-4.675,7.141l-1.38-6.973c-0.049-0.229-0.164-0.344-0.355-0.344
		c-0.258,0-0.389,0.143-0.389,0.424c0,0.041,0.005,0.08,0.017,0.119l1.542,7.789c0.055,0.285,0.183,0.426,0.38,0.426
		c0.117,0,0.229-0.082,0.336-0.244l5.113-7.801C81.566,85.477,81.599,85.383,81.599,85.287z"/>
	<path fill="#F1F2F2" d="M83.197,84.85c-0.186,0-0.302,0.109-0.354,0.332l-1.795,7.871c-0.009,0.043-0.015,0.088-0.015,0.129
		c0,0.285,0.128,0.424,0.383,0.424c0.188,0,0.304-0.109,0.354-0.33l1.798-7.879c0.01-0.041,0.014-0.082,0.014-0.125
		C83.582,84.99,83.454,84.85,83.197,84.85z"/>
	<path fill="#F1F2F2" d="M87.86,92.732h-3.246l1.678-7.326c0.007-0.043,0.01-0.09,0.01-0.131c0-0.281-0.127-0.426-0.381-0.426
		c-0.185,0-0.306,0.109-0.353,0.334l-1.798,7.877c-0.014,0.045-0.02,0.092-0.02,0.139c0,0.271,0.127,0.408,0.379,0.408h3.73
		c0.249,0,0.373-0.145,0.373-0.439C88.233,92.879,88.108,92.732,87.86,92.732z"/>
	<path fill="#F1F2F2" d="M93.995,88.791h-2.497l0.693-3.066h3.448c0.248,0,0.373-0.146,0.373-0.438c0-0.293-0.125-0.438-0.375-0.438
		h-3.731c-0.165,0-0.284,0.109-0.36,0.332c-0.02,0.059-0.325,1.377-0.915,3.949c-0.604,2.621-0.903,3.975-0.903,4.068
		c0,0.273,0.128,0.406,0.379,0.406h3.733c0.245,0,0.372-0.145,0.372-0.436s-0.127-0.436-0.372-0.436h-3.245l0.696-3.068h2.704
		c0.245,0,0.372-0.145,0.372-0.436C94.366,88.936,94.24,88.791,93.995,88.791z"/>
	<path fill="#F1F2F2" d="M99.01,84.85c-0.586,0-1.117,0.266-1.595,0.801c-0.483,0.543-0.724,1.158-0.724,1.844
		c0,0.506,0.146,0.92,0.438,1.244c0.287,0.326,0.648,0.488,1.083,0.488c0.31,0,0.562,0.107,0.764,0.324
		c0.195,0.213,0.292,0.502,0.292,0.863c0,0.582-0.216,1.115-0.652,1.596c-0.433,0.48-0.903,0.723-1.407,0.723
		c-0.42,0-0.729-0.188-0.919-0.557c-0.051-0.121-0.098-0.244-0.145-0.361c-0.062-0.125-0.158-0.184-0.29-0.184
		c-0.256,0-0.385,0.141-0.385,0.42c0,0.053,0.005,0.1,0.021,0.146c0.269,0.941,0.839,1.408,1.718,1.408
		c0.71,0,1.355-0.324,1.938-0.977c0.58-0.65,0.869-1.387,0.869-2.215c0-0.604-0.17-1.1-0.515-1.482
		c-0.341-0.385-0.773-0.576-1.288-0.576c-0.228,0-0.413-0.078-0.557-0.23c-0.144-0.158-0.218-0.367-0.218-0.631
		c0-0.447,0.168-0.855,0.502-1.223s0.688-0.547,1.07-0.547c0.312,0,0.537,0.146,0.68,0.436c0.14,0.291,0.275,0.439,0.4,0.439
		c0.259,0,0.386-0.141,0.386-0.424c0-0.055-0.003-0.105-0.019-0.152C100.222,85.242,99.742,84.85,99.01,84.85z"/>
	<path fill="#F1F2F2" d="M107.285,84.85c-0.586,0-1.115,0.266-1.597,0.801c-0.479,0.543-0.722,1.158-0.722,1.844
		c0,0.506,0.147,0.92,0.438,1.244c0.29,0.326,0.65,0.488,1.08,0.488c0.311,0,0.565,0.107,0.763,0.324
		c0.197,0.213,0.298,0.502,0.298,0.863c0,0.582-0.219,1.115-0.652,1.596s-0.903,0.723-1.407,0.723c-0.42,0-0.729-0.188-0.923-0.557
		c-0.047-0.121-0.096-0.244-0.142-0.361c-0.063-0.125-0.163-0.184-0.287-0.184c-0.261,0-0.389,0.141-0.389,0.42
		c0,0.053,0.007,0.1,0.021,0.146c0.266,0.941,0.841,1.408,1.72,1.408c0.71,0,1.354-0.324,1.935-0.977
		c0.583-0.65,0.87-1.387,0.87-2.215c0-0.604-0.17-1.1-0.515-1.482c-0.345-0.385-0.771-0.576-1.291-0.576
		c-0.224,0-0.408-0.078-0.552-0.23c-0.146-0.158-0.221-0.367-0.221-0.631c0-0.447,0.17-0.855,0.503-1.223
		c0.337-0.367,0.688-0.547,1.07-0.547c0.313,0,0.538,0.146,0.682,0.436c0.14,0.291,0.271,0.439,0.398,0.439
		c0.259,0,0.388-0.141,0.388-0.424c0-0.055-0.005-0.105-0.021-0.152C108.499,85.242,108.015,84.85,107.285,84.85z"/>
	<path fill="#F1F2F2" d="M109.403,92.289c-0.167,0-0.311,0.068-0.438,0.209c-0.121,0.137-0.185,0.305-0.185,0.5
		c0,0.17,0.054,0.309,0.153,0.43c0.104,0.121,0.226,0.178,0.369,0.178c0.165,0,0.311-0.072,0.438-0.217
		c0.128-0.145,0.189-0.312,0.189-0.502c0-0.174-0.054-0.316-0.155-0.43S109.545,92.289,109.403,92.289z"/>
	<path fill="#F1F2F2" d="M116.774,85.275c-0.058-0.283-0.188-0.426-0.387-0.426c-0.119,0-0.231,0.082-0.337,0.246l-5.112,7.801
		c-0.057,0.084-0.085,0.178-0.085,0.271c0,0.119,0.041,0.221,0.12,0.309c0.08,0.084,0.168,0.131,0.27,0.131
		c0.113,0,0.21-0.059,0.287-0.176l1.631-2.498c0.048,0.027,0.104,0.043,0.165,0.043h3.735c0.027,0,0.052,0,0.075-0.002l0.459,2.285
		c0.041,0.232,0.158,0.346,0.351,0.346c0.252,0,0.381-0.141,0.381-0.424c0-0.041-0.005-0.078-0.012-0.117L116.774,85.275z
		 M113.702,90.1l2.503-3.814l0.757,3.814H113.702z"/>
	<path fill="#F1F2F2" d="M119.996,92.289c-0.167,0-0.312,0.068-0.436,0.209c-0.124,0.137-0.184,0.305-0.184,0.5
		c0,0.17,0.05,0.309,0.151,0.43c0.104,0.121,0.226,0.178,0.367,0.178c0.167,0,0.312-0.072,0.438-0.217
		c0.127-0.145,0.189-0.312,0.189-0.502c0-0.174-0.053-0.316-0.155-0.43C120.267,92.344,120.141,92.289,119.996,92.289z"/>
	<path fill="#F1F2F2" d="M129.406,84.85h-2.237c-0.07,0-0.144,0.035-0.221,0.107c-0.073,0.07-0.123,0.146-0.139,0.225l-1.801,7.877
		c-0.014,0.047-0.021,0.094-0.021,0.139c0,0.271,0.129,0.408,0.38,0.408h2.238c1.19,0,2.278-0.549,3.261-1.646
		c0.995-1.113,1.489-2.363,1.489-3.752c0-0.992-0.279-1.805-0.837-2.424C130.961,85.16,130.257,84.85,129.406,84.85z
		 M130.339,91.342c-0.837,0.928-1.75,1.391-2.732,1.391h-1.752l1.601-7.008h1.953c0.644,0,1.17,0.227,1.584,0.678
		c0.413,0.451,0.62,1.051,0.62,1.805C131.612,89.354,131.186,90.4,130.339,91.342z"/>
	<path fill="#F1F2F2" d="M138.75,84.85h-3.735c-0.161,0-0.285,0.109-0.36,0.332c-0.019,0.059-0.324,1.375-0.915,3.947
		c-0.601,2.621-0.901,3.977-0.901,4.07c0,0.271,0.126,0.406,0.378,0.406h3.732c0.247,0,0.373-0.145,0.373-0.438
		c0-0.289-0.126-0.436-0.373-0.436h-3.243l0.697-3.066h2.701c0.247,0,0.371-0.145,0.371-0.436c0-0.295-0.124-0.438-0.371-0.438
		h-2.494l0.692-3.068h3.45c0.247,0,0.37-0.146,0.37-0.438C139.122,84.994,138.997,84.85,138.75,84.85z"/>
	<path fill="#F1F2F2" d="M149.27,86.758c0.08-0.088,0.12-0.193,0.12-0.312c0-0.086-0.028-0.174-0.079-0.264
		c-0.259-0.434-0.613-0.77-1.063-1.004c-0.418-0.219-0.867-0.33-1.344-0.33c-1.195,0-2.282,0.549-3.265,1.646
		c-0.989,1.113-1.487,2.367-1.487,3.756c0,0.992,0.281,1.801,0.848,2.43c0.548,0.615,1.251,0.924,2.103,0.924
		c0.469,0,0.975-0.113,1.524-0.344c0.573-0.24,1.022-0.543,1.34-0.902c0.1-0.111,0.15-0.223,0.15-0.336
		c0-0.117-0.037-0.221-0.11-0.316c-0.076-0.094-0.165-0.141-0.266-0.141c-0.067,0-0.144,0.037-0.234,0.105
		c-0.484,0.371-0.863,0.623-1.129,0.756c-0.406,0.203-0.827,0.305-1.273,0.305c-0.646,0-1.17-0.223-1.576-0.67
		c-0.419-0.455-0.63-1.061-0.63-1.811c0-1.15,0.425-2.195,1.271-3.137c0.836-0.93,1.749-1.391,2.737-1.391
		c0.653,0,1.188,0.232,1.601,0.697c0.096,0.123,0.16,0.215,0.201,0.281c0.102,0.125,0.203,0.188,0.297,0.188
		C149.099,86.889,149.191,86.846,149.27,86.758z"/>
	<path fill="#F1F2F2" d="M149.522,92.289c-0.166,0-0.311,0.068-0.435,0.209c-0.124,0.137-0.188,0.305-0.188,0.5
		c0,0.17,0.052,0.309,0.153,0.43c0.104,0.121,0.228,0.178,0.369,0.178c0.165,0,0.311-0.072,0.438-0.217
		c0.126-0.145,0.188-0.312,0.188-0.502c0-0.174-0.052-0.316-0.153-0.43C149.792,92.344,149.666,92.289,149.522,92.289z"/>
	<path fill="#F1F2F2" d="M160.138,84.982c-0.078-0.088-0.168-0.133-0.269-0.133c-0.114,0-0.21,0.059-0.288,0.176l-4.676,7.141
		l-1.381-6.973c-0.045-0.227-0.158-0.344-0.353-0.344c-0.261,0-0.385,0.143-0.385,0.424c0,0.041,0.004,0.08,0.013,0.119l1.542,7.789
		c0.056,0.285,0.184,0.426,0.383,0.426c0.115,0,0.227-0.082,0.332-0.244l5.118-7.801c0.053-0.084,0.082-0.178,0.082-0.275
		C160.257,85.17,160.217,85.068,160.138,84.982z"/>
	<path fill="#F1F2F2" d="M61.512,65.15c0.186,0,0.303-0.111,0.354-0.332l0.765-3.35c-0.011-0.197,0.01-0.379,0.094-0.531
		c0.009-0.016,0.025-0.027,0.037-0.045l0.826-3.625h1.582c0.312,0,0.566,0.107,0.762,0.322c0.201,0.215,0.298,0.502,0.298,0.863
		c0,0.586-0.221,1.117-0.654,1.598c-0.435,0.48-0.904,0.721-1.405,0.721h-1.035c-0.097,0.061-0.198,0.137-0.267,0.26
		c-0.08,0.148-0.083,0.336-0.052,0.545l2.121,3.389c0.076,0.123,0.172,0.188,0.288,0.188c0.104,0,0.195-0.043,0.271-0.133
		c0.076-0.086,0.12-0.189,0.12-0.307c0-0.094-0.025-0.182-0.075-0.264l-1.752-2.801l0.384-0.002c0.706,0,1.354-0.324,1.934-0.979
		c0.581-0.65,0.87-1.387,0.87-2.215c0-0.602-0.173-1.098-0.512-1.482c-0.346-0.383-0.773-0.576-1.294-0.576h-1.838
		c-0.213,0-0.341,0.119-0.395,0.355l-1.791,7.848c-0.01,0.043-0.014,0.086-0.014,0.131C61.129,65.008,61.258,65.15,61.512,65.15z"/>
</g>
</svg>
