<?xml version="1.0" encoding="utf-8"?>
<!-- Generator: Adobe Illustrator 16.0.0, SVG Export Plug-In . SVG Version: 6.00 Build 0)  -->
<!DOCTYPE svg PUBLIC "-//W3C//DTD SVG 1.1//EN" "http://www.w3.org/Graphics/SVG/1.1/DTD/svg11.dtd">
<svg version="1.1" id="Layer_1" xmlns="http://www.w3.org/2000/svg" xmlns:xlink="http://www.w3.org/1999/xlink" x="0px" y="0px"
	 width="150px" height="150px" viewBox="0 0 150 150" enable-background="new 0 0 150 150" xml:space="preserve">
<g>
	<g>
		<path fill="#D1D3D4" d="M1.142,44.977V96.15h68.12l22.092-51.174H1.142z M29.804,88.816c-1.252,0.545-2.345,0.674-5.982,0.773
			c-0.375,0.012-0.758,0.014-1.15,0.012C11.626,89.518,4.553,83.092,4.652,73.23c0.1-9.807,7.398-16.592,18.162-16.885
			c0.305-0.01,0.611-0.012,0.918-0.01c4.052,0.031,5.512,0.412,6.492,0.805l0.603,6.84c-1.171-0.48-3.452-1.266-7.492-0.943
			c-4.713,0.375-8.622,4.531-8.677,9.914c-0.054,5.461,3.367,8.75,9.152,8.793c2.104,0.014,4.369-0.33,5.767-0.859l1.289-0.486
			L29.804,88.816z M59.55,89.387l-2.797-13.848c-0.204-1.043-0.393-2.029-0.563-2.996c-0.229,1.012-0.472,2.012-0.741,3.029
			l-3.43,13.758l-9.86-0.074l-7.961-32.35l10.265,0.078l2.505,13.277c0.295,1.547,0.576,3.123,0.846,4.699
			c0.349-1.604,0.715-3.221,1.077-4.795l3.079-13.127l9.677,0.072l2.651,13.584c0.238,1.23,0.461,2.443,0.67,3.686
			c0.101-0.494,0.2-0.99,0.303-1.496c0.17-0.848,0.343-1.701,0.513-2.561l2.982-13.158l9.896,0.074l-9.343,32.219L59.55,89.387z"/>
	</g>
	<g>
		<g>
			<path fill="#F1F2F2" d="M111.228,79.885c-0.255-0.287-0.562-0.518-0.926-0.693c-0.362-0.18-0.768-0.268-1.214-0.268
				c-0.464,0-0.884,0.08-1.264,0.244c-0.379,0.162-0.702,0.385-0.973,0.67c-0.27,0.287-0.484,0.621-0.646,1.008
				c-0.163,0.385-0.252,0.803-0.267,1.25h6.156c-0.031-0.418-0.119-0.82-0.266-1.205C111.684,80.506,111.482,80.17,111.228,79.885z"
				/>
		</g>
		<g>
			<path fill="#F1F2F2" d="M91.354,44.977L69.262,96.15h79.597V44.977H91.354z M99.85,89.131h-2.755V76.377h-0.046l-4.583,12.756
				H90.08l-4.582-12.756H85.45v12.756h-2.754V72.604h4.075l4.562,12.941h0.046l4.445-12.941h4.028v16.527H99.85z M114.734,83.832
				h-8.796c0,0.461,0.065,0.91,0.196,1.342c0.13,0.432,0.326,0.811,0.589,1.135s0.595,0.582,0.997,0.775
				c0.4,0.191,0.879,0.289,1.435,0.289c0.772,0,1.393-0.166,1.864-0.498c0.47-0.332,0.821-0.83,1.053-1.492h2.5
				c-0.139,0.648-0.378,1.227-0.717,1.736c-0.343,0.508-0.75,0.938-1.229,1.283c-0.478,0.348-1.014,0.611-1.606,0.787
				c-0.596,0.18-1.217,0.268-1.864,0.268c-0.941,0-1.775-0.156-2.502-0.465c-0.725-0.309-1.338-0.74-1.839-1.295
				c-0.502-0.557-0.879-1.221-1.134-1.992c-0.256-0.771-0.382-1.621-0.382-2.547c0-0.848,0.134-1.656,0.404-2.418
				c0.271-0.764,0.656-1.438,1.158-2.016c0.5-0.576,1.106-1.037,1.817-1.377c0.712-0.338,1.512-0.508,2.408-0.508
				c0.94,0,1.785,0.195,2.534,0.588c0.748,0.395,1.368,0.916,1.863,1.564c0.494,0.646,0.854,1.393,1.077,2.232
				C114.786,82.068,114.843,82.936,114.734,83.832z M123.487,79.131h-2.386v6.391c0,0.275,0.012,0.518,0.035,0.717
				c0.023,0.201,0.077,0.371,0.162,0.51c0.084,0.139,0.212,0.242,0.382,0.312s0.401,0.104,0.694,0.104
				c0.186,0,0.371-0.002,0.557-0.012c0.185-0.006,0.369-0.033,0.555-0.08v2.037c-0.294,0.031-0.578,0.061-0.855,0.094
				c-0.278,0.031-0.564,0.045-0.856,0.045c-0.695,0-1.255-0.064-1.679-0.195c-0.426-0.131-0.757-0.324-0.995-0.58
				c-0.242-0.254-0.402-0.572-0.487-0.961c-0.085-0.385-0.134-0.824-0.149-1.318v-7.062h-1.991v-1.969h1.991v-3.586h2.639v3.588
				h2.386L123.487,79.131L123.487,79.131z M137.607,89.156c-0.093,0.031-0.211,0.064-0.358,0.104
				c-0.146,0.037-0.298,0.074-0.451,0.104c-0.154,0.031-0.309,0.053-0.464,0.07c-0.152,0.014-0.285,0.023-0.393,0.023
				c-0.54,0-0.986-0.109-1.344-0.326c-0.354-0.215-0.584-0.594-0.693-1.133c-0.525,0.51-1.171,0.879-1.933,1.109
				c-0.764,0.232-1.501,0.35-2.211,0.35c-0.541,0-1.057-0.076-1.552-0.221c-0.492-0.148-0.931-0.363-1.307-0.648
				c-0.38-0.287-0.68-0.648-0.903-1.09c-0.225-0.438-0.336-0.951-0.336-1.539c0-0.74,0.135-1.344,0.406-1.805
				c0.268-0.463,0.624-0.824,1.063-1.088c0.441-0.264,0.935-0.451,1.48-0.566c0.55-0.115,1.102-0.205,1.656-0.266
				c0.479-0.094,0.935-0.16,1.368-0.199c0.431-0.037,0.812-0.104,1.146-0.197c0.332-0.092,0.592-0.232,0.785-0.428
				c0.193-0.193,0.29-0.48,0.29-0.867c0-0.34-0.081-0.617-0.242-0.834c-0.163-0.215-0.364-0.383-0.604-0.498s-0.505-0.193-0.8-0.23
				c-0.292-0.039-0.57-0.057-0.833-0.057c-0.74,0-1.351,0.152-1.829,0.461c-0.479,0.309-0.748,0.789-0.81,1.438h-2.64
				c0.048-0.773,0.231-1.414,0.557-1.922c0.324-0.51,0.736-0.918,1.237-1.229c0.502-0.309,1.069-0.525,1.702-0.648
				c0.632-0.123,1.28-0.184,1.943-0.184c0.587,0,1.165,0.059,1.737,0.184c0.57,0.123,1.084,0.324,1.538,0.602
				c0.455,0.277,0.821,0.639,1.1,1.076c0.278,0.441,0.416,0.979,0.416,1.609v6.158c0,0.324,0.044,0.557,0.129,0.695
				c0.083,0.139,0.25,0.207,0.497,0.207c0.077,0,0.168,0,0.278,0c0.107,0,0.231-0.014,0.37-0.045L137.607,89.156L137.607,89.156z
				 M142.816,89.131h-2.639V72.604h2.639V89.131z"/>
		</g>
		<g>
			<path fill="#F1F2F2" d="M130.454,83.854c-0.277,0.047-0.548,0.113-0.81,0.197c-0.262,0.086-0.494,0.201-0.695,0.346
				c-0.201,0.146-0.359,0.34-0.475,0.58c-0.116,0.24-0.174,0.527-0.174,0.867c0,0.293,0.084,0.541,0.254,0.74
				c0.17,0.201,0.375,0.361,0.614,0.477s0.5,0.195,0.786,0.242s0.544,0.068,0.774,0.068c0.294,0,0.61-0.037,0.95-0.115
				c0.341-0.076,0.659-0.209,0.961-0.393c0.301-0.188,0.552-0.422,0.753-0.707c0.2-0.287,0.3-0.637,0.3-1.055v-1.967
				c-0.401,0.262-0.896,0.42-1.482,0.475C131.626,83.666,131.041,83.748,130.454,83.854z"/>
		</g>
	</g>
	<g>
		<path fill="#E6E7E8" d="M49.052,99.775c0.3,0.402,0.45,0.916,0.45,1.543c0,0.678-0.171,1.24-0.517,1.689
			c-0.403,0.527-0.979,0.793-1.728,0.793c-0.698,0-1.248-0.234-1.647-0.693c-0.357-0.445-0.535-1.008-0.535-1.689
			c0-0.613,0.152-1.137,0.458-1.576c0.391-0.561,0.971-0.84,1.736-0.84C48.073,99.002,48.666,99.262,49.052,99.775z M48.508,102.67
			c0.242-0.389,0.364-0.836,0.364-1.34c0-0.535-0.139-0.965-0.419-1.291c-0.28-0.324-0.661-0.49-1.146-0.49
			c-0.47,0-0.854,0.162-1.15,0.486c-0.296,0.322-0.444,0.797-0.444,1.426c0,0.504,0.128,0.928,0.382,1.273
			c0.255,0.346,0.668,0.52,1.237,0.52C47.875,103.254,48.266,103.059,48.508,102.67z"/>
		<path fill="#E6E7E8" d="M50.366,99.111h0.543v1.646c0.122-0.158,0.267-0.279,0.437-0.363c0.17-0.082,0.354-0.125,0.552-0.125
			c0.415,0,0.75,0.143,1.007,0.426c0.257,0.281,0.386,0.699,0.386,1.252c0,0.525-0.127,0.959-0.381,1.307
			c-0.254,0.344-0.607,0.518-1.059,0.518c-0.252,0-0.464-0.061-0.639-0.182c-0.103-0.072-0.215-0.188-0.331-0.348v0.424h-0.514
			L50.366,99.111L50.366,99.111L50.366,99.111z M52.494,102.922c0.15-0.238,0.226-0.555,0.226-0.945
			c0-0.348-0.075-0.637-0.226-0.865c-0.149-0.229-0.37-0.342-0.661-0.342c-0.255,0-0.478,0.094-0.669,0.281
			c-0.19,0.186-0.286,0.496-0.286,0.926c0,0.311,0.038,0.562,0.117,0.758c0.147,0.365,0.421,0.547,0.822,0.547
			C52.118,103.281,52.344,103.162,52.494,102.922z"/>
		<path fill="#E6E7E8" d="M54.204,100.357h0.528v0.572c0.043-0.111,0.148-0.248,0.317-0.408s0.363-0.238,0.584-0.238
			c0.011,0,0.027,0,0.052,0.002c0.025,0.002,0.067,0.008,0.128,0.014v0.586c-0.033-0.006-0.063-0.01-0.092-0.014
			c-0.028-0.002-0.059-0.002-0.091-0.002c-0.279,0-0.495,0.09-0.645,0.271c-0.151,0.18-0.227,0.387-0.227,0.621v1.904h-0.556
			V100.357z"/>
		<path fill="#E6E7E8" d="M58.323,101.664c0.128-0.018,0.213-0.07,0.257-0.16c0.023-0.051,0.036-0.123,0.036-0.215
			c0-0.189-0.067-0.328-0.201-0.414c-0.136-0.084-0.328-0.127-0.579-0.127c-0.289,0-0.495,0.078-0.617,0.232
			c-0.067,0.088-0.112,0.217-0.133,0.391h-0.519c0.011-0.408,0.144-0.695,0.396-0.855c0.254-0.16,0.549-0.24,0.885-0.24
			c0.389,0,0.705,0.076,0.948,0.223c0.24,0.15,0.361,0.381,0.361,0.691v1.908c0,0.059,0.012,0.105,0.036,0.139
			c0.022,0.037,0.072,0.053,0.148,0.053c0.024,0,0.053-0.002,0.082-0.004c0.031-0.004,0.065-0.008,0.1-0.014v0.41
			c-0.085,0.025-0.152,0.041-0.198,0.047c-0.045,0.006-0.106,0.01-0.185,0.01c-0.19,0-0.331-0.068-0.417-0.205
			c-0.045-0.07-0.078-0.172-0.095-0.305c-0.114,0.146-0.276,0.277-0.489,0.387c-0.211,0.109-0.447,0.164-0.7,0.164
			c-0.309,0-0.559-0.094-0.753-0.279c-0.194-0.188-0.293-0.42-0.293-0.699c0-0.307,0.097-0.545,0.287-0.715
			c0.191-0.168,0.443-0.271,0.756-0.311L58.323,101.664z M57.151,103.168c0.118,0.092,0.257,0.139,0.417,0.139
			c0.196,0,0.386-0.047,0.569-0.137c0.309-0.148,0.463-0.395,0.463-0.738v-0.445c-0.068,0.043-0.154,0.08-0.263,0.107
			c-0.106,0.029-0.211,0.049-0.313,0.062l-0.336,0.043c-0.202,0.027-0.354,0.07-0.455,0.127c-0.172,0.098-0.258,0.25-0.258,0.461
			C56.976,102.947,57.034,103.074,57.151,103.168z"/>
		<path fill="#E6E7E8" d="M65.621,99.457c0.312,0.303,0.486,0.648,0.522,1.033h-0.603c-0.066-0.293-0.199-0.523-0.398-0.695
			c-0.199-0.17-0.478-0.258-0.84-0.258c-0.438,0-0.792,0.158-1.062,0.473c-0.27,0.316-0.404,0.797-0.404,1.445
			c0,0.533,0.121,0.965,0.364,1.297c0.244,0.33,0.608,0.496,1.093,0.496c0.445,0,0.783-0.176,1.018-0.521
			c0.123-0.186,0.214-0.426,0.275-0.725h0.601c-0.054,0.477-0.229,0.879-0.525,1.203c-0.357,0.389-0.838,0.584-1.444,0.584
			c-0.521,0-0.958-0.158-1.313-0.479c-0.466-0.422-0.698-1.076-0.698-1.957c0-0.67,0.174-1.221,0.525-1.648
			c0.378-0.467,0.9-0.697,1.566-0.697C64.866,99.002,65.307,99.156,65.621,99.457z"/>
		<path fill="#E6E7E8" d="M67.159,99.127h0.566v0.631h-0.566V99.127z M67.159,100.371h0.566v3.297h-0.566V100.371z"/>
		<path fill="#E6E7E8" d="M69.094,100.357l0.885,2.695l0.921-2.695h0.608l-1.246,3.311h-0.593l-1.222-3.311H69.094z"/>
		<path fill="#E6E7E8" d="M72.238,99.127h0.566v0.631h-0.566V99.127z M72.238,100.371h0.566v3.297h-0.566V100.371z"/>
		<path fill="#E6E7E8" d="M73.913,99.127h0.556v4.541h-0.556V99.127z"/>
		<path fill="#E6E7E8" d="M79.64,100.357h0.615c-0.079,0.211-0.254,0.697-0.522,1.451c-0.202,0.57-0.372,1.033-0.509,1.393
			c-0.32,0.846-0.547,1.359-0.679,1.545c-0.131,0.186-0.357,0.277-0.68,0.277c-0.077,0-0.138-0.002-0.18-0.01
			c-0.043-0.006-0.094-0.016-0.155-0.033v-0.506c0.096,0.025,0.166,0.043,0.209,0.047c0.044,0.008,0.081,0.01,0.116,0.01
			c0.101,0,0.178-0.016,0.227-0.051c0.048-0.031,0.089-0.074,0.12-0.123c0.012-0.018,0.05-0.1,0.112-0.254
			c0.064-0.152,0.109-0.266,0.139-0.34l-1.225-3.408h0.632l0.887,2.697L79.64,100.357z"/>
		<path fill="#E6E7E8" d="M83.134,99.127h3.295v0.557h-2.695v1.379h2.491v0.525h-2.491v1.539h2.742v0.541h-3.342V99.127z"/>
		<path fill="#E6E7E8" d="M87.808,102.629c0.016,0.184,0.062,0.328,0.142,0.428c0.143,0.178,0.393,0.268,0.744,0.268
			c0.21,0,0.396-0.045,0.556-0.135s0.24-0.229,0.24-0.414c0-0.143-0.064-0.252-0.191-0.326c-0.084-0.043-0.242-0.098-0.483-0.156
			l-0.45-0.111c-0.286-0.07-0.499-0.148-0.635-0.236c-0.243-0.15-0.363-0.357-0.363-0.623c0-0.314,0.114-0.568,0.343-0.762
			s0.536-0.289,0.923-0.289c0.505,0,0.869,0.146,1.094,0.438c0.139,0.186,0.207,0.385,0.202,0.6h-0.525
			c-0.01-0.125-0.055-0.238-0.137-0.342c-0.131-0.145-0.356-0.217-0.679-0.217c-0.216,0-0.38,0.039-0.491,0.119
			c-0.109,0.082-0.165,0.188-0.165,0.318c0,0.145,0.073,0.26,0.218,0.344c0.086,0.053,0.209,0.098,0.373,0.137l0.376,0.09
			c0.406,0.098,0.678,0.189,0.818,0.281c0.215,0.143,0.323,0.365,0.323,0.672c0,0.293-0.113,0.547-0.339,0.762
			c-0.227,0.215-0.572,0.322-1.034,0.322c-0.498,0-0.851-0.113-1.058-0.336c-0.21-0.225-0.321-0.502-0.334-0.83H87.808z"/>
		<path fill="#E6E7E8" d="M91.006,99.434h0.562v0.924h0.528v0.453h-0.528v2.16c0,0.115,0.038,0.193,0.118,0.23
			c0.043,0.025,0.115,0.035,0.216,0.035c0.026,0,0.056,0,0.085-0.002c0.031-0.002,0.066-0.006,0.109-0.008v0.441
			c-0.064,0.018-0.13,0.031-0.199,0.039c-0.07,0.008-0.145,0.012-0.225,0.012c-0.259,0-0.435-0.066-0.528-0.199
			c-0.093-0.133-0.139-0.305-0.139-0.518v-2.191h-0.449v-0.455h0.449V99.434L91.006,99.434z"/>
		<path fill="#E6E7E8" d="M92.922,100.357h0.528v0.572c0.044-0.111,0.15-0.248,0.318-0.408c0.169-0.16,0.364-0.238,0.586-0.238
			c0.01,0,0.027,0,0.052,0.002s0.066,0.008,0.126,0.014v0.586c-0.033-0.006-0.062-0.01-0.09-0.014
			c-0.028-0.002-0.06-0.002-0.092-0.002c-0.28,0-0.497,0.09-0.646,0.271c-0.149,0.18-0.226,0.387-0.226,0.621v1.904h-0.557V100.357z
			"/>
		<path fill="#E6E7E8" d="M95.824,100.357v2.197c0,0.17,0.026,0.307,0.077,0.412c0.099,0.199,0.276,0.297,0.54,0.297
			c0.377,0,0.633-0.174,0.771-0.518c0.075-0.186,0.111-0.439,0.111-0.764v-1.625h0.557v3.311h-0.524l0.006-0.49
			c-0.071,0.129-0.159,0.232-0.265,0.32c-0.207,0.172-0.46,0.258-0.757,0.258c-0.464,0-0.778-0.158-0.946-0.473
			c-0.091-0.168-0.136-0.395-0.136-0.676v-2.25H95.824L95.824,100.357L95.824,100.357z"/>
		<path fill="#E6E7E8" d="M101.229,100.533c0.233,0.182,0.375,0.492,0.422,0.938h-0.543c-0.032-0.205-0.107-0.375-0.226-0.508
			c-0.115-0.137-0.306-0.203-0.564-0.203c-0.354,0-0.607,0.172-0.762,0.518c-0.099,0.225-0.148,0.502-0.148,0.832
			s0.07,0.607,0.211,0.836c0.141,0.225,0.361,0.34,0.661,0.34c0.232,0,0.414-0.072,0.549-0.213c0.135-0.139,0.229-0.332,0.278-0.576
			h0.543c-0.062,0.439-0.216,0.76-0.464,0.963c-0.249,0.203-0.563,0.305-0.948,0.305c-0.433,0-0.779-0.16-1.037-0.475
			c-0.259-0.316-0.385-0.713-0.385-1.186c0-0.58,0.141-1.033,0.422-1.355c0.282-0.326,0.643-0.486,1.079-0.486
			C100.691,100.262,100.996,100.352,101.229,100.533z"/>
		<path fill="#E6E7E8" d="M102.571,99.434h0.564v0.924h0.528v0.453h-0.528v2.16c0,0.115,0.038,0.193,0.116,0.23
			c0.042,0.025,0.115,0.035,0.216,0.035c0.026,0,0.056,0,0.087-0.002s0.065-0.006,0.107-0.008v0.441
			c-0.063,0.018-0.13,0.031-0.199,0.039c-0.07,0.008-0.144,0.012-0.224,0.012c-0.261,0-0.437-0.066-0.529-0.199
			s-0.139-0.305-0.139-0.518v-2.191h-0.449v-0.455h0.449V99.434L102.571,99.434z"/>
		<path fill="#E6E7E8" d="M105.029,100.357v2.197c0,0.17,0.025,0.307,0.077,0.412c0.097,0.199,0.277,0.297,0.54,0.297
			c0.377,0,0.635-0.174,0.77-0.518c0.074-0.186,0.111-0.439,0.111-0.764v-1.625h0.557v3.311h-0.525l0.008-0.49
			c-0.071,0.129-0.16,0.232-0.264,0.32c-0.209,0.172-0.461,0.258-0.758,0.258c-0.464,0-0.779-0.158-0.948-0.473
			c-0.091-0.168-0.136-0.395-0.136-0.676v-2.25H105.029L105.029,100.357L105.029,100.357z"/>
		<path fill="#E6E7E8" d="M108.262,100.357h0.528v0.572c0.044-0.111,0.15-0.248,0.319-0.408c0.168-0.16,0.363-0.238,0.584-0.238
			c0.012,0,0.027,0,0.053,0.002s0.066,0.008,0.127,0.014v0.586c-0.033-0.006-0.064-0.01-0.092-0.014
			c-0.027-0.002-0.059-0.002-0.091-0.002c-0.28,0-0.497,0.09-0.646,0.271c-0.15,0.18-0.227,0.387-0.227,0.621v1.904h-0.557V100.357
			L108.262,100.357z"/>
		<path fill="#E6E7E8" d="M112.383,101.664c0.127-0.018,0.214-0.07,0.256-0.16c0.024-0.051,0.036-0.123,0.036-0.215
			c0-0.189-0.065-0.328-0.202-0.414c-0.135-0.084-0.326-0.127-0.578-0.127c-0.288,0-0.495,0.078-0.615,0.232
			c-0.067,0.088-0.113,0.217-0.133,0.391h-0.519c0.009-0.408,0.143-0.695,0.396-0.855c0.254-0.16,0.548-0.24,0.886-0.24
			c0.388,0,0.704,0.076,0.947,0.223c0.241,0.15,0.36,0.381,0.36,0.691v1.908c0,0.059,0.012,0.105,0.035,0.139
			c0.025,0.037,0.074,0.053,0.149,0.053c0.025,0,0.053-0.002,0.084-0.004c0.03-0.004,0.062-0.008,0.1-0.014v0.41
			c-0.087,0.025-0.152,0.041-0.198,0.047c-0.047,0.006-0.108,0.01-0.186,0.01c-0.192,0-0.331-0.068-0.418-0.205
			c-0.045-0.07-0.077-0.172-0.095-0.305c-0.114,0.146-0.276,0.277-0.49,0.387c-0.21,0.109-0.444,0.164-0.7,0.164
			c-0.307,0-0.559-0.094-0.752-0.279c-0.195-0.188-0.292-0.42-0.292-0.699c0-0.307,0.095-0.545,0.286-0.715
			c0.191-0.168,0.443-0.271,0.755-0.311L112.383,101.664z M111.212,103.168c0.117,0.092,0.256,0.139,0.417,0.139
			c0.194,0,0.385-0.047,0.567-0.137c0.31-0.148,0.465-0.395,0.465-0.738v-0.445c-0.068,0.043-0.155,0.08-0.264,0.107
			c-0.105,0.029-0.211,0.049-0.313,0.062l-0.336,0.043c-0.201,0.027-0.354,0.07-0.455,0.127c-0.171,0.098-0.258,0.25-0.258,0.461
			C111.035,102.947,111.093,103.074,111.212,103.168z"/>
		<path fill="#E6E7E8" d="M114.713,102.629c0.018,0.184,0.065,0.328,0.143,0.428c0.144,0.178,0.391,0.268,0.744,0.268
			c0.211,0,0.396-0.045,0.556-0.135c0.16-0.09,0.239-0.229,0.239-0.414c0-0.143-0.063-0.252-0.19-0.326
			c-0.082-0.043-0.244-0.098-0.484-0.156l-0.448-0.111c-0.288-0.07-0.499-0.148-0.635-0.236c-0.243-0.15-0.365-0.357-0.365-0.623
			c0-0.314,0.116-0.568,0.345-0.762s0.536-0.289,0.923-0.289c0.504,0,0.868,0.146,1.093,0.438c0.139,0.186,0.207,0.385,0.204,0.6
			h-0.525c-0.012-0.125-0.056-0.238-0.136-0.342c-0.133-0.145-0.358-0.217-0.68-0.217c-0.215,0-0.38,0.039-0.489,0.119
			c-0.111,0.082-0.166,0.188-0.166,0.318c0,0.145,0.072,0.26,0.218,0.344c0.083,0.053,0.206,0.098,0.37,0.137l0.376,0.09
			c0.408,0.098,0.68,0.189,0.819,0.281c0.216,0.143,0.324,0.365,0.324,0.672c0,0.293-0.113,0.547-0.341,0.762
			c-0.226,0.215-0.569,0.322-1.034,0.322c-0.498,0-0.851-0.113-1.06-0.336c-0.207-0.225-0.318-0.502-0.334-0.83H114.713z"/>
		<path fill="#E6E7E8" d="M119.872,99.127h0.881l1.305,3.84l1.298-3.84h0.873v4.541h-0.585v-2.682c0-0.092,0.002-0.246,0.006-0.459
			c0.003-0.215,0.006-0.445,0.006-0.689l-1.296,3.83h-0.61l-1.31-3.83v0.139c0,0.111,0.004,0.281,0.011,0.508
			c0.007,0.23,0.01,0.396,0.01,0.502v2.682h-0.587L119.872,99.127L119.872,99.127z"/>
		<path fill="#E6E7E8" d="M127.385,100.447c0.221,0.111,0.387,0.254,0.501,0.43c0.111,0.166,0.185,0.361,0.221,0.584
			c0.033,0.152,0.049,0.396,0.049,0.73h-2.408c0.011,0.336,0.09,0.607,0.237,0.809c0.146,0.205,0.374,0.307,0.684,0.307
			c0.287,0,0.518-0.098,0.689-0.289c0.096-0.113,0.164-0.24,0.204-0.389h0.547c-0.016,0.121-0.062,0.258-0.144,0.406
			c-0.082,0.15-0.173,0.271-0.272,0.367c-0.168,0.164-0.375,0.275-0.622,0.334c-0.134,0.033-0.283,0.049-0.452,0.049
			c-0.409,0-0.756-0.148-1.042-0.449c-0.283-0.301-0.426-0.721-0.426-1.26c0-0.531,0.144-0.963,0.43-1.295
			c0.287-0.332,0.661-0.498,1.125-0.498C126.938,100.283,127.164,100.336,127.385,100.447z M127.584,101.748
			c-0.022-0.242-0.075-0.434-0.155-0.578c-0.152-0.268-0.406-0.4-0.758-0.4c-0.254,0-0.467,0.09-0.638,0.275
			c-0.172,0.184-0.263,0.418-0.272,0.703H127.584L127.584,101.748z"/>
		<path fill="#E6E7E8" d="M129.224,99.434h0.563v0.924h0.529v0.453h-0.529v2.16c0,0.115,0.04,0.193,0.118,0.23
			c0.043,0.025,0.116,0.035,0.216,0.035c0.026,0,0.056,0,0.087-0.002s0.066-0.006,0.108-0.008v0.441
			c-0.064,0.018-0.132,0.031-0.2,0.039c-0.069,0.008-0.145,0.012-0.225,0.012c-0.259,0-0.435-0.066-0.528-0.199
			c-0.092-0.133-0.14-0.305-0.14-0.518v-2.191h-0.447v-0.455h0.447V99.434L129.224,99.434z"/>
		<path fill="#E6E7E8" d="M132.9,101.664c0.127-0.018,0.213-0.07,0.256-0.16c0.024-0.051,0.037-0.123,0.037-0.215
			c0-0.189-0.068-0.328-0.202-0.414c-0.135-0.084-0.328-0.127-0.578-0.127c-0.29,0-0.497,0.078-0.617,0.232
			c-0.067,0.088-0.113,0.217-0.132,0.391h-0.521c0.012-0.408,0.143-0.695,0.397-0.855c0.253-0.16,0.549-0.24,0.885-0.24
			c0.389,0,0.704,0.076,0.948,0.223c0.24,0.15,0.36,0.381,0.36,0.691v1.908c0,0.059,0.013,0.105,0.035,0.139
			c0.023,0.037,0.075,0.053,0.15,0.053c0.025,0,0.053-0.002,0.083-0.004c0.031-0.004,0.063-0.008,0.099-0.014v0.41
			c-0.086,0.025-0.152,0.041-0.197,0.047c-0.046,0.006-0.108,0.01-0.186,0.01c-0.191,0-0.33-0.068-0.417-0.205
			c-0.046-0.07-0.077-0.172-0.097-0.305c-0.113,0.146-0.276,0.277-0.488,0.387s-0.445,0.164-0.702,0.164
			c-0.308,0-0.558-0.094-0.752-0.279c-0.194-0.188-0.292-0.42-0.292-0.699c0-0.307,0.096-0.545,0.287-0.715
			c0.191-0.168,0.443-0.271,0.754-0.311L132.9,101.664z M131.729,103.168c0.117,0.092,0.256,0.139,0.418,0.139
			c0.193,0,0.385-0.047,0.568-0.137c0.309-0.148,0.463-0.395,0.463-0.738v-0.445c-0.067,0.043-0.154,0.08-0.261,0.107
			c-0.107,0.029-0.213,0.049-0.315,0.062l-0.337,0.043c-0.201,0.027-0.353,0.07-0.454,0.127c-0.172,0.098-0.258,0.25-0.258,0.461
			C131.553,102.947,131.611,103.074,131.729,103.168z M133.135,99.023l-0.825,0.895h-0.427l0.565-0.895H133.135z"/>
		<path fill="#E6E7E8" d="M134.915,99.127h0.557v4.541h-0.557V99.127z"/>
		<path fill="#E6E7E8" d="M136.559,99.127h0.565v0.631h-0.565V99.127z M136.559,100.371h0.565v3.297h-0.565V100.371z"/>
		<path fill="#E6E7E8" d="M140.406,100.533c0.234,0.182,0.375,0.492,0.423,0.938h-0.543c-0.032-0.205-0.107-0.375-0.226-0.508
			c-0.115-0.137-0.306-0.203-0.565-0.203c-0.354,0-0.606,0.172-0.76,0.518c-0.1,0.225-0.149,0.502-0.149,0.832
			s0.071,0.607,0.211,0.836c0.141,0.225,0.361,0.34,0.661,0.34c0.232,0,0.414-0.072,0.548-0.213c0.137-0.139,0.229-0.332,0.28-0.576
			h0.542c-0.062,0.439-0.216,0.76-0.463,0.963c-0.25,0.203-0.564,0.305-0.949,0.305c-0.433,0-0.779-0.16-1.037-0.475
			c-0.257-0.316-0.385-0.713-0.385-1.186c0-0.58,0.141-1.033,0.423-1.355c0.281-0.326,0.641-0.486,1.077-0.486
			C139.869,100.262,140.172,100.352,140.406,100.533z"/>
		<path fill="#E6E7E8" d="M143.412,101.664c0.128-0.018,0.215-0.07,0.258-0.16c0.024-0.051,0.037-0.123,0.037-0.215
			c0-0.189-0.068-0.328-0.202-0.414c-0.136-0.084-0.328-0.127-0.579-0.127c-0.289,0-0.497,0.078-0.617,0.232
			c-0.067,0.088-0.112,0.217-0.133,0.391h-0.519c0.011-0.408,0.142-0.695,0.396-0.855c0.254-0.16,0.549-0.24,0.885-0.24
			c0.389,0,0.705,0.076,0.947,0.223c0.241,0.15,0.361,0.381,0.361,0.691v1.908c0,0.059,0.013,0.105,0.036,0.139
			c0.023,0.037,0.073,0.053,0.15,0.053c0.024,0,0.052-0.002,0.083-0.004c0.028-0.004,0.062-0.008,0.099-0.014v0.41
			c-0.086,0.025-0.152,0.041-0.197,0.047c-0.047,0.006-0.108,0.01-0.187,0.01c-0.19,0-0.33-0.068-0.416-0.205
			c-0.048-0.07-0.078-0.172-0.098-0.305c-0.114,0.146-0.275,0.277-0.487,0.387c-0.214,0.109-0.445,0.164-0.702,0.164
			c-0.308,0-0.558-0.094-0.753-0.279c-0.194-0.188-0.292-0.42-0.292-0.699c0-0.307,0.096-0.545,0.287-0.715
			c0.191-0.168,0.444-0.271,0.755-0.311L143.412,101.664z M142.241,103.168c0.117,0.092,0.255,0.139,0.416,0.139
			c0.196,0,0.387-0.047,0.568-0.137c0.312-0.148,0.466-0.395,0.466-0.738v-0.445c-0.069,0.043-0.156,0.08-0.263,0.107
			c-0.108,0.029-0.213,0.049-0.314,0.062l-0.336,0.043c-0.202,0.027-0.354,0.07-0.455,0.127c-0.173,0.098-0.258,0.25-0.258,0.461
			C142.065,102.947,142.124,103.074,142.241,103.168z"/>
		<path fill="#E6E7E8" d="M145.742,102.629c0.017,0.184,0.064,0.328,0.142,0.428c0.145,0.178,0.392,0.268,0.745,0.268
			c0.21,0,0.396-0.045,0.556-0.135s0.239-0.229,0.239-0.414c0-0.143-0.064-0.252-0.191-0.326c-0.082-0.043-0.243-0.098-0.484-0.156
			l-0.447-0.111c-0.288-0.07-0.498-0.148-0.636-0.236c-0.243-0.15-0.365-0.357-0.365-0.623c0-0.314,0.116-0.568,0.345-0.762
			c0.229-0.193,0.537-0.289,0.923-0.289c0.506,0,0.87,0.146,1.094,0.438c0.139,0.186,0.206,0.385,0.203,0.6h-0.525
			c-0.01-0.125-0.055-0.238-0.136-0.342c-0.131-0.145-0.358-0.217-0.68-0.217c-0.215,0-0.379,0.039-0.489,0.119
			c-0.111,0.082-0.166,0.188-0.166,0.318c0,0.145,0.072,0.26,0.218,0.344c0.083,0.053,0.208,0.098,0.371,0.137l0.375,0.09
			c0.409,0.098,0.681,0.189,0.819,0.281c0.216,0.143,0.324,0.365,0.324,0.672c0,0.293-0.113,0.547-0.339,0.762
			c-0.227,0.215-0.571,0.322-1.034,0.322c-0.5,0-0.853-0.113-1.061-0.336c-0.208-0.225-0.319-0.502-0.332-0.83H145.742z"/>
	</g>
</g>
</svg>
